{
.appVersion = "3337";
.formatVersion = 3;
classes = (
{
automatic = 1;
code = "A Aacute Abreve Acircumflex Adieresis Agrave Amacron Aogonek Aring Atilde AE B C Cacute Ccaron Ccedilla Ccircumflex Cdotaccent D Dcaron Dcroat Eth E Eacute Ebreve Ecaron Ecircumflex Edieresis Edotaccent Egrave Emacron Eogonek F G Gbreve Gcircumflex Gcommaaccent Gdotaccent H Hbar Hcircumflex I IJ Iacute Icircumflex Idieresis Idotaccent Igrave Imacron Iogonek Itilde J Jcircumflex K Kcommaaccent L Lacute Lcaron Lcommaaccent Ldot Lslash M N Nacute Ncaron Ncommaaccent Ntilde O Oacute Obreve Ocircumflex Odieresis Ograve Ohungarumlaut Omacron Oslash Otilde OE P Thorn Q R Racute Rcaron Rcommaaccent S Sacute Scaron Scedilla Scircumflex Scommaaccent Germandbls T Tbar Tcaron Tcedilla Tcommaaccent U Uacute Ubreve Ucircumflex Udieresis Ugrave Uhungarumlaut Umacron Uogonek Uring Utilde V W Wacute Wcircumflex Wdieresis Wgrave X Y Yacute Ycircumflex Ydieresis Ygrave Z Zacute Zcaron Zdotaccent Q.ss01 Delta Omega";
name = Uppercase;
}
);
customParameters = (
{
name = fsType;
value = (
);
},
{
name = "Use Typo Metrics";
value = 1;
}
);
date = "2025-02-19 14:17:15 +0000";
familyName = Boldonse;
featurePrefixes = (
{
automatic = 1;
code = "languagesystem DFLT dflt;

languagesystem latn dflt;
languagesystem latn ROM;
languagesystem latn MOL;
languagesystem latn CAT;
";
name = Languagesystems;
}
);
features = (
{
automatic = 1;
code = "feature locl;
feature sups;
feature frac;
feature ordn;
feature case;
feature salt;
feature ss01;
";
tag = aalt;
},
{
automatic = 1;
code = "lookup ccmp_DFLT_1 {
	@CombiningTopAccents = [acutecomb brevecomb caroncomb circumflexcomb dieresiscomb dotaccentcomb gravecomb hungarumlautcomb macroncomb ringcomb tildecomb];
	lookupflag UseMarkFilteringSet @CombiningTopAccents;
	sub i' @CombiningTopAccents by idotless;
	sub j' @CombiningTopAccents by jdotless;
} ccmp_DFLT_1;

lookup ccmp_Other_1 {
	lookupflag 0;

glyphs = (
{
glyphname = A;
kernLeft = A2;
kernRight = A;
lastChange = "2025-02-19 14:26:39 +0000";
layers = (
{
anchors = (
{
name = bottom;
pos = (364,0);
},
{
name = ogonek;
pos = (718,0);
},
{
name = top;
pos = (364,1190);
}
);
background = {
anchors = (
{
name = bottom;
pos = (364,0);
},
{
name = ogonek;
pos = (655,10);
},
{
name = top;
pos = (364,1190);
}
);
shapes = (
{
closed = 1;
nodes = (
(196,1190,l),
(532,1190,l),
(718,0,l),
(483,0,l),
(448,273,l),
(280,273,l),
(245,0,l),
(10,0,l),
(10,0,l)
);
},
{
closed = 1;
nodes = (
(380,866,ls),
(376.516,911.288,o),
(374,937.741,o),
(374,1000,c),
(354,1000,l),
(354,995.333,o),
(354,990.5,o),
(354,985.5,cs),
(354,980.5,o),
(354,975.667,o),
(354,971,cs),
(354,966.333,o),
(353.833,961.5,o),
(353.5,956.5,cs),
(353.167,951.5,o),
(353,946.667,o),
(353,942,cs),
(353,928.16,o),
(351,914.351,o),
(351,900.5,cs),
(351,888.328,o),
(349.953,875.765,o),
(348,866,c),
(308,493,l),
(420,493,l),
(420,493,l)
);
}
);
};
layerId = "4B056265-F7A9-4FE5-8F86-068480F74FC7";
shapes = (
{
closed = 1;
nodes = (
(196,1190,l),
(532,1190,l),
(718,0,l),
(483,0,l),
(448,273,l),
(280,273,l),
(245,0,l),
(10,0,l),
(10,0,l)
);
},
{
closed = 1;
nodes = (
(380,866,ls),
(376.516,911.288,o),
(374,937.741,o),
(374,1000,c),
(354,1000,l),
(354,995.333,o),
(354,990.5,o),
(354,985.5,cs),
(354,980.5,o),
(354,975.667,o),
(354,971,cs),
(354,966.333,o),
(353.833,961.5,o),
(353.5,956.5,cs),
(353.167,951.5,o),
(353,946.667,o),
(353,942,cs),
(353,928.16,o),
(351,914.351,o),
(351,900.5,cs),
(351,888.328,o),
(349.953,875.765,o),
(348,866,c),
(308,493,l),
(420,493,l),
(420,493,l)
);
}
);
width = 728;
}
);
unicode = 65;
},
{
color = 4;
glyphname = Aacute;
kernLeft = A2;
kernRight = A;
lastChange = "2025-02-19 14:24:16 +0000";
layers = (
{
background = {
shapes = (
{
closed = 1;
nodes = (
(196,1190,l),
(532,1190,l),
(718,0,l),
(483,0,l),
(448,273,l),
(280,273,l),
(245,0,l),
(10,0,l),
(10,0,l)
);
},
{
closed = 1;
nodes = (
(238,1250,l),
(376,1561,l),
(593,1561,l),
(410,1250,l),
(410,1250,l)
);
},
{
closed = 1;
nodes = (
(380,866,ls),
(376.516,911.288,o),
(374,937.741,o),
(374,1000,c),
(354,1000,l),
(354,995.333,o),
(354,990.5,o),
(354,985.5,cs),
(354,980.5,o),
(354,975.667,o),
(354,971,cs),
(354,966.333,o),
(353.833,961.5,o),
(353.5,956.5,cs),
(353.167,951.5,o),
(353,946.667,o),
(353,942,cs),
(353,928.16,o),
(351,914.351,o),
(351,900.5,cs),
(351,888.328,o),
(349.953,875.765,o),
(348,866,c),
(308,493,l),
(420,493,l),
(420,493,l)
);
}
);
};
layerId = "4B056265-F7A9-4FE5-8F86-068480F74FC7";
shapes = (
{
ref = A;
},
{
pos = (253,0);
ref = acutecomb.case;
}
);
width = 728;
}
);
unicode = 193;
},
{
color = 4;
glyphname = Abreve;
kernLeft = A2;
kernRight = A;
lastChange = "2025-02-19 14:25:04 +0000";
layers = (
{
background = {
shapes = (
{
closed = 1;
nodes = (
(196,1190,l),
(532,1190,l),
(718,0,l),
(483,0,l),
(448,273,l),
(280,273,l),
(245,0,l),
(10,0,l),
(10,0,l)
);
},
{
closed = 1;
nodes = (
(586,1482,l),
(586,1421.925,o),
(566.974,1376.362,o),
(545,1344.5,cs),
(519.701,1307.816,o),
(484.374,1277.125,o),
(437.5,1261.5,cs),
(415.5,1254.167,o),
(391.333,1250,o),
(366,1250,cs),
(316.495,1250,o),
(271.397,1265.91,o),
(236,1294.5,cs),
(198.354,1324.907,o),
(174.852,1360.55,o),
(159.5,1408,cs),
(152.167,1430.667,o),
(149,1455.333,o),
(149,1482,c),
(298,1482,l),
(298,1466.642,o),
(302.872,1448.692,o),
(311,1436.5,cs),
(321.338,1420.993,o),
(331.705,1414.318,o),
(345,1409,cs),
(351.667,1406.333,o),
(359,1405,o),
(367,1405,cs),
(380.272,1405,o),
(398.084,1409.949,o),
(409,1419.5,cs),
(420.31,1429.396,o),
(429.522,1442.915,o),
(433.5,1457.5,cs),
(435.5,1464.833,o),
(437,1474,o),
(437,1482,c)
);
},
{
closed = 1;
nodes = (
(380,866,ls),
(376.516,911.288,o),
(374,937.741,o),
(374,1000,c),
(354,1000,l),
(354,995.333,o),
(354,990.5,o),
(354,985.5,cs),
(354,980.5,o),
(354,975.667,o),
(354,971,cs),
(354,966.333,o),
(353.833,961.5,o),
(353.5,956.5,cs),
(353.167,951.5,o),
(353,946.667,o),
(353,942,cs),
(353,928.16,o),
(351,914.351,o),
(351,900.5,cs),
(351,888.328,o),
(349.953,875.765,o),
(348,866,c),
(308,493,l),
(420,493,l),
(420,493,l)
);
}
);
};
layerId = "4B056265-F7A9-4FE5-8F86-068480F74FC7";
shapes = (
{
ref = A;
},
{
pos = (214,0);
ref = brevecomb.case;
}
);
width = 728;
}
);
unicode = 258;
},
{
color = 4;
glyphname = Acircumflex;
kernLeft = A2;
kernRight = A;
lastChange = "2025-02-19 14:25:04 +0000";
layers = (
{
background = {
shapes = (
{
closed = 1;
nodes = (
(196,1190,l),
(532,1190,l),
(718,0,l),
(483,0,l),
(448,273,l),
(280,273,l),
(245,0,l),
(10,0,l),
(10,0,l)
);
},
{
closed = 1;
nodes = (
(243,1555,l),
(487,1555,l),
(617,1250,l),
(454,1250,l),
(366,1405,l),
(277,1250,l),
(113,1250,l),
(113,1250,l)
);
},
{
closed = 1;
nodes = (
(380,866,ls),
(376.516,911.288,o),
(374,937.741,o),
(374,1000,c),
(354,1000,l),
(354,995.333,o),
(354,990.5,o),
(354,985.5,cs),
(354,980.5,o),
(354,975.667,o),
(354,971,cs),
(354,966.333,o),
(353.833,961.5,o),
(353.5,956.5,cs),
(353.167,951.5,o),
(353,946.667,o),
(353,942,cs),
(353,928.16,o),
(351,914.351,o),
(351,900.5,cs),
(351,888.328,o),
(349.953,875.765,o),
(348,866,c),
(308,493,l),
(420,493,l),
(420,493,l)
);
}
);
};
layerId = "4B056265-F7A9-4FE5-8F86-068480F74FC7";
shapes = (
{
ref = A;
},
{
pos = (250,0);
ref = circumflexcomb.case;
}
);
width = 728;
}
);
unicode = 194;
},
{
color = 4;
glyphname = Adieresis;
kernLeft = A2;
kernRight = A;
lastChange = "2025-02-19 14:25:04 +0000";
layers = (
{
background = {
shapes = (
{
closed = 1;
nodes = (
(196,1190,l),
(532,1190,l),
(718,0,l),
(483,0,l),
(448,273,l),
(280,273,l),
(245,0,l),
(10,0,l),
(10,0,l)
);
},
{
closed = 1;
nodes = (
(85,1395.403,o),
(92.885,1422.239,o),
(107,1442,cs),
(121.242,1461.939,o),
(139.352,1475.117,o),
(163,1483,cs),
(175,1487,o),
(186.667,1489,o),
(200,1489,cs),
(224.169,1489,o),
(247.82,1481.415,o),
(268,1467,cs),
(288.703,1452.212,o),
(301.053,1432.842,o),
(309,1409,cs),
(313,1397,o),
(315,1384.333,o),
(315,1371,cs),
(315,1345.442,o),
(307.19,1319.285,o),
(294,1299.5,cs),
(281.486,1280.729,o),
(258.092,1263.268,o),
(237.5,1256,cs),
(226.167,1252,o),
(213.333,1250,o),
(200,1250,cs),
(167.698,1250,o),
(148.872,1260.76,o),
(131.5,1273.5,cs),
(112.077,1287.744,o),
(99.421,1307.736,o),
(91,1333,cs),
(87,1345,o),
(85,1357.667,o),
(85,1371,cs)
);
},
{
closed = 1;
nodes = (
(391,1395.403,o),
(398.885,1422.239,o),
(413,1442,cs),
(427.242,1461.939,o),
(445.352,1475.117,o),
(469,1483,cs),
(481,1487,o),
(492.667,1489,o),
(506,1489,cs),
(530.169,1489,o),
(553.82,1481.415,o),
(574,1467,cs),
(594.703,1452.212,o),
(607.053,1432.842,o),
(615,1409,cs),
(619,1397,o),
(621,1384.333,o),
(621,1371,cs),
(621,1345.442,o),
(613.19,1319.285,o),
(600,1299.5,cs),
(587.486,1280.729,o),
(564.092,1263.268,o),
(543.5,1256,cs),
(532.167,1252,o),
(519.333,1250,o),
(506,1250,cs),
(473.698,1250,o),
(454.872,1260.76,o),
(437.5,1273.5,cs),
(418.077,1287.744,o),
(405.421,1307.736,o),
(397,1333,cs),
(393,1345,o),
(391,1357.667,o),
(391,1371,cs)
);
},
{
closed = 1;
nodes = (
(380,866,ls),
(376.516,911.288,o),
(374,937.741,o),
(374,1000,c),
(354,1000,l),
(354,995.333,o),
(354,990.5,o),
(354,985.5,cs),
(354,980.5,o),
(354,975.667,o),
(354,971,cs),
(354,966.333,o),
(353.833,961.5,o),
(353.5,956.5,cs),
(353.167,951.5,o),
(353,946.667,o),
(353,942,cs),
(353,928.16,o),
(351,914.351,o),
(351,900.5,cs),
(351,888.328,o),
(349.953,875.765,o),
(348,866,c),
(308,493,l),
(420,493,l),
(420,493,l)
);
}
);
};
layerId = "4B056265-F7A9-4FE5-8F86-068480F74FC7";
shapes = (
{
ref = A;
},
{
pos = (69,0);
ref = dieresiscomb.case;
}
);
width = 728;
}
);
unicode = 196;
},
{
color = 4;
glyphname = Agrave;
kernLeft = A2;
kernRight = A;
lastChange = "2025-02-19 14:25:04 +0000";
layers = (
{
background = {
shapes = (
{
closed = 1;
nodes = (
(196,1190,l),
(532,1190,l),
(718,0,l),
(483,0,l),
(448,273,l),
(280,273,l),
(245,0,l),
(10,0,l),
(10,0,l)
);
},
{
closed = 1;
nodes = (
(130,1561,l),
(347,1561,l),
(485,1250,l),
(313,1250,l),
(313,1250,l)
);
},
{
closed = 1;
nodes = (
(380,866,ls),
(376.516,911.288,o),
(374,937.741,o),
(374,1000,c),
(354,1000,l),
(354,995.333,o),
(354,990.5,o),
(354,985.5,cs),
(354,980.5,o),
(354,975.667,o),
(354,971,cs),
(354,966.333,o),
(353.833,961.5,o),
(353.5,956.5,cs),
(353.167,951.5,o),
(353,946.667,o),
(353,942,cs),
(353,928.16,o),
(351,914.351,o),
(351,900.5,cs),
(351,888.328,o),
(349.953,875.765,o),
(348,866,c),
(308,493,l),
(420,493,l),
(420,493,l)
);
}
);
};
layerId = "4B056265-F7A9-4FE5-8F86-068480F74FC7";
shapes = (
{
ref = A;
},
{
pos = (154,0);
ref = gravecomb.case;
}
);
width = 728;
}
);
unicode = 192;
},
{
color = 4;
glyphname = Amacron;
kernLeft = A2;
kernRight = A;
lastChange = "2025-02-19 14:25:04 +0000";
layers = (
{
background = {
shapes = (
{
closed = 1;
nodes = (
(196,1190,l),
(532,1190,l),
(718,0,l),
(483,0,l),
(448,273,l),
(280,273,l),
(245,0,l),
(10,0,l),
(10,0,l)
);
},
{
closed = 1;
nodes = (
(153,1450,l),
(576,1450,l),
(576,1270,l),
(153,1270,l),
(153,1270,l)
);
},
{
closed = 1;
nodes = (
(380,866,ls),
(376.516,911.288,o),
(374,937.741,o),
(374,1000,c),
(354,1000,l),
(354,995.333,o),
(354,990.5,o),
(354,985.5,cs),
(354,980.5,o),
(354,975.667,o),
(354,971,cs),
(354,966.333,o),
(353.833,961.5,o),
(353.5,956.5,cs),
(353.167,951.5,o),
(353,946.667,o),
(353,942,cs),
(353,928.16,o),
(351,914.351,o),
(351,900.5,cs),
(351,888.328,o),
(349.953,875.765,o),
(348,866,c),
(308,493,l),
(420,493,l),
(420,493,l)
);
}
);
};
layerId = "4B056265-F7A9-4FE5-8F86-068480F74FC7";
shapes = (
{
ref = A;
},
{
pos = (234,0);
ref = macroncomb.case;
}
);
width = 728;
}
);
unicode = 256;
},
{
color = 4;
glyphname = Aogonek;
kernLeft = A2;
kernRight = A;
lastChange = "2025-02-19 14:26:40 +0000";
layers = (
{
background = {
shapes = (
{
closed = 1;
nodes = (
(196,1190,l),
(532,1190,l),
(718,0,l),
(687.116,-9.265,o),
(669.221,-16.423,o),
(643.5,-37,cs),
(622.524,-53.781,o),
(606.037,-74.569,o),
(598,-96,cs),
(594,-106.667,o),
(592,-118.333,o),
(592,-129,cs),
(592,-152.345,o),
(602.852,-167.091,o),
(609.5,-173,cs),
(622.498,-184.553,o),
(642.489,-193.217,o),
(660,-196.5,cs),
(670.667,-198.5,o),
(682.667,-199,o),
(696,-199,c),
(696,-347,l),
(630.505,-347,o),
(579.93,-335.425,o),
(536.5,-317,cs),
(488.172,-296.497,o),
(461.664,-269.584,o),
(445.5,-238.5,cs),
(436.833,-221.833,o),
(433,-203.667,o),
(433,-185,cs),
(433,-155.887,o),
(439.964,-127.065,o),
(456.5,-97,cs),
(471.688,-69.386,o),
(496.14,-42.9,o),
(520.5,-25.5,cs),
(534.5,-15.5,o),
(549,-6.667,o),
(565,0,c),
(483,0,l),
(448,273,l),
(280,273,l),
(245,0,l),
(10,0,l),
(10,0,l)
);
},
{
closed = 1;
nodes = (
(380,866,ls),
(376.516,911.288,o),
(374,937.741,o),
(374,1000,c),
(354,1000,l),
(354,995.333,o),
(354,990.5,o),
(354,985.5,cs),
(354,980.5,o),
(354,975.667,o),
(354,971,cs),
(354,966.333,o),
(353.833,961.5,o),
(353.5,956.5,cs),
(353.167,951.5,o),
(353,946.667,o),
(353,942,cs),
(353,928.16,o),
(351,914.351,o),
(351,900.5,cs),
(351,888.328,o),
(349.953,875.765,o),
(348,866,c),
(308,493,l),
(420,493,l),
(420,493,l)
);
}
);
};
layerId = "4B056265-F7A9-4FE5-8F86-068480F74FC7";
shapes = (
{
ref = A;
},
{
pos = (437,0);
ref = ogonekcomb;
}
);
width = 728;
}
);
unicode = 260;
},
{
color = 4;
glyphname = Aring;
kernLeft = A2;
kernRight = A;
lastChange = "2025-02-19 14:25:04 +0000";
layers = (
{
background = {
shapes = (
{
closed = 1;
nodes = (
(196,1190,l),
(532,1190,l),
(718,0,l),
(483,0,l),
(448,273,l),
(280,273,l),
(245,0,l),
(10,0,l),
(10,0,l)
);
},
{
closed = 1;
nodes = (
(195,1467.625,o),
(205.431,1502.003,o),
(226.5,1531.5,cs),
(247.604,1561.045,o),
(277.841,1582.413,o),
(309,1592,cs),
(326.333,1597.333,o),
(344.333,1600,o),
(363,1600,cs),
(399.9,1600,o),
(437.566,1589.148,o),
(464,1568,cs),
(491.919,1545.665,o),
(511.862,1522.433,o),
(524,1484.5,cs),
(529.333,1467.833,o),
(532,1449,o),
(532,1429,cs),
(532,1389.112,o),
(521.103,1352.218,o),
(500.5,1322,cs),
(482.045,1294.933,o),
(451.844,1269.414,o),
(418,1259,cs),
(400.667,1253.667,o),
(383,1250,o),
(363,1250,cs),
(323.517,1250,o),
(289.291,1263.588,o),
(262.5,1284,cs),
(234.968,1304.977,o),
(213.95,1334.543,o),
(203,1371.5,cs),
(197.667,1389.5,o),
(195,1409,o),
(195,1429,cs)
);
},
{
closed = 1;
nodes = (
(380,866,ls),
(376.516,911.288,o),
(374,937.741,o),
(374,1000,c),
(354,1000,l),
(354,995.333,o),
(354,990.5,o),
(354,985.5,cs),
(354,980.5,o),
(354,975.667,o),
(354,971,cs),
(354,966.333,o),
(353.833,961.5,o),
(353.5,956.5,cs),
(353.167,951.5,o),
(353,946.667,o),
(353,942,cs),
(353,928.16,o),
(351,914.351,o),
(351,900.5,cs),
(351,888.328,o),
(349.953,875.765,o),
(348,866,c),
(308,493,l),
(420,493,l),
(420,493,l)
);
},
{
closed = 1;
nodes = (
(322,1415.142,o),
(324.687,1403.97,o),
(330,1396,cs),
(334.267,1389.6,o),
(340.977,1381.721,o),
(350.5,1379,cs),
(355.167,1377.667,o),
(358.667,1377,o),
(364,1377,cs),
(374.146,1377,o),
(381.382,1379.506,o),
(389.5,1386,cs),
(395.74,1390.992,o),
(401.177,1399.621,o),
(404,1409.5,cs),
(405.333,1414.167,o),
(406,1419.667,o),
(406,1425,cs),
(406,1434.858,o),
(403.313,1446.03,o),
(398,1454,cs),
(393.733,1460.4,o),
(387.023,1468.279,o),
(377.5,1471,cs),
(372.833,1472.333,o),
(369.333,1473,o),
(364,1473,cs),
(353.854,1473,o),
(346.618,1470.494,o),
(338.5,1464,cs),
(332.26,1459.008,o),
(326.823,1450.379,o),
(324,1440.5,cs),
(322.667,1435.833,o),
(322,1430.333,o),
(322,1425,cs)
);
}
);
};
layerId = "4B056265-F7A9-4FE5-8F86-068480F74FC7";
shapes = (
{
ref = A;
},
{
pos = (225,0);
ref = ringcomb.case;
}
);
width = 728;
}
);
unicode = 197;
},
{
color = 4;
glyphname = Atilde;
kernLeft = A2;
kernRight = A;
lastChange = "2025-02-19 14:25:04 +0000";
layers = (
{
background = {
shapes = (
{
closed = 1;
nodes = (
(196,1190,l),
(532,1190,l),
(718,0,l),
(483,0,l),
(448,273,l),
(280,273,l),
(245,0,l),
(10,0,l),
(10,0,l)
);
},
{
closed = 1;
nodes = (
(124,1250,l),
(124,1307.219,o),
(131.624,1358.385,o),
(145,1394.5,cs),
(157.212,1427.472,o),
(181.094,1458.183,o),
(207.5,1469.5,cs),
(221.5,1475.5,o),
(235.667,1479,o),
(253,1479,cs),
(285.02,1479,o),
(310.669,1467.166,o),
(334,1455.5,cs),
(354.885,1445.058,o),
(374.6,1429.108,o),
(396.5,1419,cs),
(405.167,1415,o),
(413,1412,o),
(421,1412,cs),
(444.641,1412,o),
(461,1441.829,o),
(461,1479,c),
(611,1479,l),
(611,1325.667,o),
(569,1250,o),
(481,1250,cs),
(456.248,1250,o),
(428.146,1256.409,o),
(400,1274,cs),
(383.212,1284.493,o),
(360.044,1302.441,o),
(341.5,1311,cs),
(332.833,1315,o),
(324,1318,o),
(316,1318,cs),
(306.964,1318,o),
(296.229,1312.875,o),
(290.5,1306,cs),
(282.689,1296.627,o),
(279.975,1287.873,o),
(277,1273,cs),
(275.667,1266.333,o),
(275,1258,o),
(275,1250,c)
);
},
{
closed = 1;
nodes = (
(380,866,ls),
(376.516,911.288,o),
(374,937.741,o),
(374,1000,c),
(354,1000,l),
(354,995.333,o),
(354,990.5,o),
(354,985.5,cs),
(354,980.5,o),
(354,975.667,o),
(354,971,cs),
(354,966.333,o),
(353.833,961.5,o),
(353.5,956.5,cs),
(353.167,951.5,o),
(353,946.667,o),
(353,942,cs),
(353,928.16,o),
(351,914.351,o),
(351,900.5,cs),
(351,888.328,o),
(349.953,875.765,o),
(348,866,c),
(308,493,l),
(420,493,l),
(420,493,l)
);
}
);
};
layerId = "4B056265-F7A9-4FE5-8F86-068480F74FC7";
shapes = (
{
ref = A;
},
{
pos = (214,0);
ref = tildecomb.case;
}
);
width = 728;
}
);
unicode = 195;
},
{
glyphname = AE;
kernLeft = A2;
kernRight = E;
lastChange = "2025-02-19 14:22:40 +0000";
layers = (
{
background = {
shapes = (
{
closed = 1;
nodes = (
(196,1190,l),
(973,1190,l),
(973,970,l),
(713,970,l),
(713,743,l),
(953,743,l),
(953,523,l),
(713,523,l),
(713,220,l),
(978,220,l),
(978,0,l),
(478,0,l),
(478,273,l),
(280,273,l),
(245,0,l),
(10,0,l),
(10,0,l)
);
},
{
closed = 1;
nodes = (
(478,493,l),
(478,970,l),
(363,970,l),
(308,493,l),
(308,493,l)
);
}
);
};
layerId = "4B056265-F7A9-4FE5-8F86-068480F74FC7";
shapes = (
{
closed = 1;
nodes = (
(196,1190,l),
(973,1190,l),
(973,970,l),
(713,970,l),
(713,743,l),
(953,743,l),
(953,523,l),
(713,523,l),
(713,220,l),
(978,220,l),
(978,0,l),
(478,0,l),
(478,273,l),
(280,273,l),
(245,0,l),
(10,0,l),
(10,0,l)
);
},
{
closed = 1;
nodes = (
(478,493,l),
(478,970,l),
(363,970,l),
(308,493,l),
(308,493,l)
);
}
);
width = 1008;
}
);
unicode = 198;
},
{
glyphname = B;
lastChange = "2025-02-19 14:22:40 +0000";
layers = (
{
anchors = (
{
name = bottom;
pos = (368,0);
},
{
name = center;
pos = (184,298);
},
{
name = top;
pos = (368,1190);
}
);
background = {
anchors = (
{
name = bottom;
pos = (368,0);
},
{
name = center;
pos = (184,298);
},
{
name = top;
pos = (368,1190);
}
);
shapes = (
{
closed = 1;
nodes = (
(685,741.147,o),
(617.208,664.701,o),
(457,638,c),
(457,622,l),
(519.483,614.19,o),
(572.044,595.362,o),
(614,559,cs),
(654.256,524.111,o),
(682.68,472.94,o),
(695,417.5,cs),
(701.667,387.5,o),
(705,354,o),
(705,318,cs),
(705,241.089,o),
(688.235,173.126,o),
(654.5,120.5,cs),
(619.771,66.323,o),
(570.279,31.433,o),
(513,14,cs),
(482.333,4.667,o),
(449,0,o),
(413,0,cs),
(60,0,l),
(60,1190,l),
(404,1190,ls),
(471.711,1190,o),
(532.698,1173.811,o),
(578,1140.5,cs),
(622.206,1107.995,o),
(653.692,1066.603,o),
(672.5,1001.5,cs),
(681.167,971.5,o),
(685,938,o),
(685,902,cs)
);
},
{
closed = 1;
nodes = (
(356,220,ls),
(384.879,220,o),
(408.546,228.182,o),
(427,244,cs),
(446.345,260.581,o),
(457.912,284.013,o),
(464.5,313,cs),
(467.833,327.667,o),
(470,344.667,o),
(470,362,cs),
(470,393.544,o),
(462.598,428.084,o),
(450,449.5,cs),
(436.117,473.1,o),
(417.864,489.379,o),
(395,497,cs),
(383,501,o),
(369.333,503,o),
(356,503,cs),
(295,503,l),
(295,220,l),
(295,220,l)
);
},
{
closed = 1;
nodes = (
(295,970,l),
(295,723,l),
(344,723,ls),
(370.34,723,o),
(394.252,730.751,o),
(410.5,744.5,cs),
(427.139,758.579,o),
(438.518,776.071,o),
(445.5,804,cs),
(448.833,817.333,o),
(450,831.333,o),
(450,846,cs),
(450,877.926,o),
(444.071,901.548,o),
(431.5,922.5,cs),
(420.088,941.52,o),
(402.776,957.948,o),
(380.5,964.5,cs),
(369.167,967.833,o),
(357.333,970,o),
(344,970,cs)
);
}
);
};
layerId = "4B056265-F7A9-4FE5-8F86-068480F74FC7";
shapes = (
{
closed = 1;
nodes = (
(685,741.147,o),
(617.208,664.701,o),
(457,638,c),
(457,622,l),
(519.483,614.19,o),
(572.044,595.362,o),
(614,559,cs),
(654.256,524.111,o),
(682.68,472.94,o),
(695,417.5,cs),
(701.667,387.5,o),
(705,354,o),
(705,318,cs),
(705,241.089,o),
(688.235,173.126,o),
(654.5,120.5,cs),
(619.771,66.323,o),
(570.279,31.433,o),
(513,14,cs),
(482.333,4.667,o),
(449,0,o),
(413,0,cs),
(60,0,l),
(60,1190,l),
(404,1190,ls),
(471.711,1190,o),
(532.698,1173.811,o),
(578,1140.5,cs),
(622.206,1107.995,o),
(653.692,1066.603,o),
(672.5,1001.5,cs),
(681.167,971.5,o),
(685,938,o),
(685,902,cs)
);
},
{
closed = 1;
nodes = (
(356,220,ls),
(384.879,220,o),
(408.546,228.182,o),
(427,244,cs),
(446.345,260.581,o),
(457.912,284.013,o),
(464.5,313,cs),
(467.833,327.667,o),
(470,344.667,o),
(470,362,cs),
(470,393.544,o),
(462.598,428.084,o),
(450,449.5,cs),
(436.117,473.1,o),
(417.864,489.379,o),
(395,497,cs),
(383,501,o),
(369.333,503,o),
(356,503,cs),
(295,503,l),
(295,220,l),
(295,220,l)
);
},
{
closed = 1;
nodes = (
(295,970,l),
(295,723,l),
(344,723,ls),
(370.34,723,o),
(394.252,730.751,o),
(410.5,744.5,cs),
(427.139,758.579,o),
(438.518,776.071,o),
(445.5,804,cs),
(448.833,817.333,o),
(450,831.333,o),
(450,846,cs),
(450,877.926,o),
(444.071,901.548,o),
(431.5,922.5,cs),
(420.088,941.52,o),
(402.776,957.948,o),
(380.5,964.5,cs),
(369.167,967.833,o),
(357.333,970,o),
(344,970,cs)
);
}
);
width = 735;
}
);
unicode = 66;
},
{
glyphname = C;
kernLeft = C2;
kernRight = C;
lastChange = "2025-02-19 14:22:40 +0000";
layers = (
{
anchors = (
{
name = bottom;
pos = (596,0);
},
{
name = top;
pos = (596,1190);
}
);
background = {
anchors = (
{
name = bottom;
pos = (596,0);
},
{
name = top;
pos = (596,1190);
}
);
shapes = (
{
closed = 1;
nodes = (
(265,511.793,o),
(284.928,434.578,o),
(329,367,cs),
(367.835,307.453,o),
(427.848,260.108,o),
(497,237.5,cs),
(531.667,226.167,o),
(570,220,o),
(610,220,cs),
(673.621,220,o),
(733.36,235.887,o),
(781,265,cs),
(828.798,294.21,o),
(868.042,338.296,o),
(892.5,388.5,cs),
(905.167,414.5,o),
(914.333,443.333,o),
(921,474,c),
(1161,474,l),
(1149.684,358.014,o),
(1106.511,264.613,o),
(1041,186,cs),
(973.028,104.433,o),
(883.305,45.84,o),
(778.5,14,cs),
(725.833,-2,o),
(670.667,-10,o),
(612,-10,cs),
(495.781,-10,o),
(375.879,22.841,o),
(265,106,cs),
(168.217,178.587,o),
(94.889,285.859,o),
(59,402.5,cs),
(40.333,463.167,o),
(30,527,o),
(30,595,cs),
(30,733.899,o),
(72.36,855.943,o),
(140,953.5,cs),
(215.69,1062.668,o),
(323.097,1135.918,o),
(425,1169.5,cs),
(483.667,1188.833,o),
(546.667,1200,o),
(612,1200,cs),
(724.385,1200,o),
(830.431,1169.462,o),
(924,1108.5,cs),
(1012.903,1050.578,o),
(1082.777,965.041,o),
(1122.5,871.5,cs),
(1143.167,822.833,o),
(1155.667,770.667,o),
(1161,716,c),
(921,716,l),
(910.528,776.213,o),
(880.545,832.147,o),
(845,871.5,cs),
(807.721,912.773,o),
(759.69,943.614,o),
(701.5,958.5,cs),
(672.833,965.833,o),
(642,970,o),
(610,970,cs),
(524.542,970,o),
(452.065,940.836,o),
(402,901.5,cs),
(343.715,855.705,o),
(304.288,795.748,o),
(281.5,718,cs),
(270.167,679.333,o),
(265,637,o),
(265,593,cs)
);
}
);
};
layerId = "4B056265-F7A9-4FE5-8F86-068480F74FC7";
shapes = (
{
closed = 1;
nodes = (
(265,511.793,o),
(284.928,434.578,o),
(329,367,cs),
(367.835,307.453,o),
(427.848,260.108,o),
(497,237.5,cs),
(531.667,226.167,o),
(570,220,o),
(610,220,cs),
(673.621,220,o),
(733.36,235.887,o),
(781,265,cs),
(828.798,294.21,o),
(868.042,338.296,o),
(892.5,388.5,cs),
(905.167,414.5,o),
(914.333,443.333,o),
(921,474,c),
(1161,474,l),
(1149.684,358.014,o),
(1106.511,264.613,o),
(1041,186,cs),
(973.028,104.433,o),
(883.305,45.84,o),
(778.5,14,cs),
(725.833,-2,o),
(670.667,-10,o),
(612,-10,cs),
(495.781,-10,o),
(375.879,22.841,o),
(265,106,cs),
(168.217,178.587,o),
(94.889,285.859,o),
(59,402.5,cs),
(40.333,463.167,o),
(30,527,o),
(30,595,cs),
(30,733.899,o),
(72.36,855.943,o),
(140,953.5,cs),
(215.69,1062.668,o),
(323.097,1135.918,o),
(425,1169.5,cs),
(483.667,1188.833,o),
(546.667,1200,o),
(612,1200,cs),
(724.385,1200,o),
(830.431,1169.462,o),
(924,1108.5,cs),
(1012.903,1050.578,o),
(1082.777,965.041,o),
(1122.5,871.5,cs),
(1143.167,822.833,o),
(1155.667,770.667,o),
(1161,716,c),
(921,716,l),
(910.528,776.213,o),
(880.545,832.147,o),
(845,871.5,cs),
(807.721,912.773,o),
(759.69,943.614,o),
(701.5,958.5,cs),
(672.833,965.833,o),
(642,970,o),
(610,970,cs),
(524.542,970,o),
(452.065,940.836,o),
(402,901.5,cs),
(343.715,855.705,o),
(304.288,795.748,o),
(281.5,718,cs),
(270.167,679.333,o),
(265,637,o),
(265,593,cs)
);
}
);
width = 1191;
}
);
unicode = 67;
},
{
color = 4;
glyphname = Cacute;
kernLeft = C2;
kernRight = C;
lastChange = "2025-02-19 14:25:48 +0000";
layers = (
{
background = {
shapes = (
{
closed = 1;
nodes = (
(265,511.793,o),
(284.928,434.578,o),
(329,367,cs),
(367.835,307.453,o),
(427.848,260.108,o),
(497,237.5,cs),
(531.667,226.167,o),
(570,220,o),
(610,220,cs),
(673.621,220,o),
(733.36,235.887,o),
(781,265,cs),
(828.798,294.21,o),
(868.042,338.296,o),
(892.5,388.5,cs),
(905.167,414.5,o),
(914.333,443.333,o),
(921,474,c),
(1161,474,l),
(1149.684,358.014,o),
(1106.511,264.613,o),
(1041,186,cs),
(973.028,104.433,o),
(883.305,45.84,o),
(778.5,14,cs),
(725.833,-2,o),
(670.667,-10,o),
(612,-10,cs),
(495.781,-10,o),
(375.879,22.841,o),
(265,106,cs),
(168.217,178.587,o),
(94.889,285.859,o),
(59,402.5,cs),
(40.333,463.167,o),
(30,527,o),
(30,595,cs),
(30,733.899,o),
(72.36,855.943,o),
(140,953.5,cs),
(215.69,1062.668,o),
(323.097,1135.918,o),
(425,1169.5,cs),
(483.667,1188.833,o),
(546.667,1200,o),
(612,1200,cs),
(724.385,1200,o),
(830.431,1169.462,o),
(924,1108.5,cs),
(1012.903,1050.578,o),
(1082.777,965.041,o),
(1122.5,871.5,cs),
(1143.167,822.833,o),
(1155.667,770.667,o),
(1161,716,c),
(921,716,l),
(910.528,776.213,o),
(880.545,832.147,o),
(845,871.5,cs),
(807.721,912.773,o),
(759.69,943.614,o),
(701.5,958.5,cs),
(672.833,965.833,o),
(642,970,o),
(610,970,cs),
(524.542,970,o),
(452.065,940.836,o),
(402,901.5,cs),
(343.715,855.705,o),
(304.288,795.748,o),
(281.5,718,cs),
(270.167,679.333,o),
(265,637,o),
(265,593,cs)
);
},
{
closed = 1;
nodes = (
(440,1250,l),
(578,1561,l),
(795,1561,l),
(612,1250,l),
(612,1250,l)
);
}
);
};
layerId = "4B056265-F7A9-4FE5-8F86-068480F74FC7";
shapes = (
{
ref = C;
},
{
pos = (485,0);
ref = acutecomb.case;
}
);
width = 1191;
}
);
unicode = 262;
},
{
color = 4;
glyphname = Ccaron;
kernLeft = C2;
kernRight = C;
lastChange = "2025-02-19 14:25:48 +0000";
layers = (
{
background = {
shapes = (
{
closed = 1;
nodes = (
(265,511.793,o),
(284.928,434.578,o),
(329,367,cs),
(367.835,307.453,o),
(427.848,260.108,o),
(497,237.5,cs),
(531.667,226.167,o),
(570,220,o),
(610,220,cs),
(673.621,220,o),
(733.36,235.887,o),
(781,265,cs),
(828.798,294.21,o),
(868.042,338.296,o),
(892.5,388.5,cs),
(905.167,414.5,o),
(914.333,443.333,o),
(921,474,c),
(1161,474,l),
(1149.684,358.014,o),
(1106.511,264.613,o),
(1041,186,cs),
(973.028,104.433,o),
(883.305,45.84,o),
(778.5,14,cs),
(725.833,-2,o),
(670.667,-10,o),
(612,-10,cs),
(495.781,-10,o),
(375.879,22.841,o),
(265,106,cs),
(168.217,178.587,o),
(94.889,285.859,o),
(59,402.5,cs),
(40.333,463.167,o),
(30,527,o),
(30,595,cs),
(30,733.899,o),
(72.36,855.943,o),
(140,953.5,cs),
(215.69,1062.668,o),
(323.097,1135.918,o),
(425,1169.5,cs),
(483.667,1188.833,o),
(546.667,1200,o),
(612,1200,cs),
(724.385,1200,o),
(830.431,1169.462,o),
(924,1108.5,cs),
(1012.903,1050.578,o),
(1082.777,965.041,o),
(1122.5,871.5,cs),
(1143.167,822.833,o),
(1155.667,770.667,o),
(1161,716,c),
(921,716,l),
(910.528,776.213,o),
(880.545,832.147,o),
(845,871.5,cs),
(807.721,912.773,o),
(759.69,943.614,o),
(701.5,958.5,cs),
(672.833,965.833,o),
(642,970,o),
(610,970,cs),
(524.542,970,o),
(452.065,940.836,o),
(402,901.5,cs),
(343.715,855.705,o),
(304.288,795.748,o),
(281.5,718,cs),
(270.167,679.333,o),
(265,637,o),
(265,593,cs)
);
},
{
closed = 1;
nodes = (
(373,1545,l),
(531,1545,l),
(616,1395,l),
(702,1545,l),
(859,1545,l),
(734,1250,l),
(499,1250,l),
(499,1250,l)
);
}
);
};
layerId = "4B056265-F7A9-4FE5-8F86-068480F74FC7";
shapes = (
{
ref = C;
},
{
pos = (458,0);
ref = caroncomb.case;
}
);
width = 1191;
}
);
unicode = 268;
},
{
color = 4;
glyphname = Ccedilla;
kernLeft = C2;
kernRight = C;
lastChange = "2025-02-19 14:25:48 +0000";
layers = (
{
background = {
shapes = (
{
closed = 1;
nodes = (
(265,511.793,o),
(284.928,434.578,o),
(329,367,cs),
(367.835,307.453,o),
(427.848,260.108,o),
(497,237.5,cs),
(531.667,226.167,o),
(570,220,o),
(610,220,cs),
(673.621,220,o),
(733.36,235.887,o),
(781,265,cs),
(828.798,294.21,o),
(868.042,338.296,o),
(892.5,388.5,cs),
(905.167,414.5,o),
(914.333,443.333,o),
(921,474,c),
(1161,474,l),
(1150.331,369.977,o),
(1112.296,277.359,o),
(1051.5,199,cs),
(988.821,118.214,o),
(906.88,61.08,o),
(812,25.5,cs),
(764,7.5,o),
(712.333,-4,o),
(659,-8,c),
(634,-66,l),
(669.917,-78.828,o),
(698.536,-93.479,o),
(726.5,-118.5,cs),
(749.812,-139.358,o),
(769.409,-165.501,o),
(778,-197,cs),
(782,-211.667,o),
(785,-228,o),
(785,-244,cs),
(785,-293.361,o),
(766.241,-338.759,o),
(731,-374,cs),
(696.44,-408.56,o),
(648.204,-433.825,o),
(583,-448,cs),
(552.333,-454.667,o),
(517,-458,o),
(481,-458,c),
(481,-296,l),
(514.153,-296,o),
(545.181,-292.94,o),
(569,-285,cs),
(590.382,-277.873,o),
(604.982,-271.88,o),
(618.5,-254.5,cs),
(623.167,-248.5,o),
(625,-242,o),
(625,-234,cs),
(625,-221.442,o),
(616.971,-208.18,o),
(606,-200.5,cs),
(591.494,-190.346,o),
(575.536,-184.35,o),
(555,-180.5,cs),
(544.333,-178.5,o),
(533,-178,o),
(521,-178,c),
(520,-74,l),
(550,-7,l),
(430.11,6.321,o),
(326.1,51.789,o),
(238,127.5,cs),
(151.836,201.547,o),
(88.89,299.139,o),
(55.5,414,cs),
(38.833,471.333,o),
(30,532.333,o),
(30,595,cs),
(30,733.899,o),
(72.36,855.943,o),
(140,953.5,cs),
(215.69,1062.668,o),
(323.097,1135.918,o),
(425,1169.5,cs),
(483.667,1188.833,o),
(546.667,1200,o),
(612,1200,cs),
(724.385,1200,o),
(830.431,1169.462,o),
(924,1108.5,cs),
(1012.903,1050.578,o),
(1082.777,965.041,o),
(1122.5,871.5,cs),
(1143.167,822.833,o),
(1155.667,770.667,o),
(1161,716,c),
(921,716,l),
(910.528,776.213,o),
(880.545,832.147,o),
(845,871.5,cs),
(807.721,912.773,o),
(759.69,943.614,o),
(701.5,958.5,cs),
(672.833,965.833,o),
(642,970,o),
(610,970,cs),
(524.542,970,o),
(452.065,940.836,o),
(402,901.5,cs),
(343.715,855.705,o),
(304.288,795.748,o),
(281.5,718,cs),
(270.167,679.333,o),
(265,637,o),
(265,593,cs)
);
}
);
};
layerId = "4B056265-F7A9-4FE5-8F86-068480F74FC7";
shapes = (
{
ref = C;
},
{
pos = (430,0);
ref = cedillacomb;
}
);
width = 1191;
}
);
unicode = 199;
},
{
color = 4;
glyphname = Ccircumflex;
kernLeft = C2;
kernRight = C;
lastChange = "2025-02-19 14:25:48 +0000";
layers = (
{
background = {
shapes = (
{
closed = 1;
nodes = (
(265,511.793,o),
(284.928,434.578,o),
(329,367,cs),
(367.835,307.453,o),
(427.848,260.108,o),
(497,237.5,cs),
(531.667,226.167,o),
(570,220,o),
(610,220,cs),
(673.621,220,o),
(733.36,235.887,o),
(781,265,cs),
(828.798,294.21,o),
(868.042,338.296,o),
(892.5,388.5,cs),
(905.167,414.5,o),
(914.333,443.333,o),
(921,474,c),
(1161,474,l),
(1149.684,358.014,o),
(1106.511,264.613,o),
(1041,186,cs),
(973.028,104.433,o),
(883.305,45.84,o),
(778.5,14,cs),
(725.833,-2,o),
(670.667,-10,o),
(612,-10,cs),
(495.781,-10,o),
(375.879,22.841,o),
(265,106,cs),
(168.217,178.587,o),
(94.889,285.859,o),
(59,402.5,cs),
(40.333,463.167,o),
(30,527,o),
(30,595,cs),
(30,733.899,o),
(72.36,855.943,o),
(140,953.5,cs),
(215.69,1062.668,o),
(323.097,1135.918,o),
(425,1169.5,cs),
(483.667,1188.833,o),
(546.667,1200,o),
(612,1200,cs),
(724.385,1200,o),
(830.431,1169.462,o),
(924,1108.5,cs),
(1012.903,1050.578,o),
(1082.777,965.041,o),
(1122.5,871.5,cs),
(1143.167,822.833,o),
(1155.667,770.667,o),
(1161,716,c),
(921,716,l),
(910.528,776.213,o),
(880.545,832.147,o),
(845,871.5,cs),
(807.721,912.773,o),
(759.69,943.614,o),
(701.5,958.5,cs),
(672.833,965.833,o),
(642,970,o),
(610,970,cs),
(524.542,970,o),
(452.065,940.836,o),
(402,901.5,cs),
(343.715,855.705,o),
(304.288,795.748,o),
(281.5,718,cs),
(270.167,679.333,o),
(265,637,o),
(265,593,cs)
);
},
{
closed = 1;
nodes = (
(474,1555,l),
(718,1555,l),
(848,1250,l),
(685,1250,l),
(597,1405,l),
(508,1250,l),
(344,1250,l),
(344,1250,l)
);
}
);
};
layerId = "4B056265-F7A9-4FE5-8F86-068480F74FC7";
shapes = (
{
ref = C;
},
{
pos = (482,0);
ref = circumflexcomb.case;
}
);
width = 1191;
}
);
unicode = 264;
},
{
color = 4;
glyphname = Cdotaccent;
kernLeft = C2;
kernRight = C;
lastChange = "2025-02-19 14:25:48 +0000";
layers = (
{
background = {
shapes = (
{
closed = 1;
nodes = (
(265,511.793,o),
(284.928,434.578,o),
(329,367,cs),
(367.835,307.453,o),
(427.848,260.108,o),
(497,237.5,cs),
(531.667,226.167,o),
(570,220,o),
(610,220,cs),
(673.621,220,o),
(733.36,235.887,o),
(781,265,cs),
(828.798,294.21,o),
(868.042,338.296,o),
(892.5,388.5,cs),
(905.167,414.5,o),
(914.333,443.333,o),
(921,474,c),
(1161,474,l),
(1149.684,358.014,o),
(1106.511,264.613,o),
(1041,186,cs),
(973.028,104.433,o),
(883.305,45.84,o),
(778.5,14,cs),
(725.833,-2,o),
(670.667,-10,o),
(612,-10,cs),
(495.781,-10,o),
(375.879,22.841,o),
(265,106,cs),
(168.217,178.587,o),
(94.889,285.859,o),
(59,402.5,cs),
(40.333,463.167,o),
(30,527,o),
(30,595,cs),
(30,733.899,o),
(72.36,855.943,o),
(140,953.5,cs),
(215.69,1062.668,o),
(323.097,1135.918,o),
(425,1169.5,cs),
(483.667,1188.833,o),
(546.667,1200,o),
(612,1200,cs),
(724.385,1200,o),
(830.431,1169.462,o),
(924,1108.5,cs),
(1012.903,1050.578,o),
(1082.777,965.041,o),
(1122.5,871.5,cs),
(1143.167,822.833,o),
(1155.667,770.667,o),
(1161,716,c),
(921,716,l),
(910.528,776.213,o),
(880.545,832.147,o),
(845,871.5,cs),
(807.721,912.773,o),
(759.69,943.614,o),
(701.5,958.5,cs),
(672.833,965.833,o),
(642,970,o),
(610,970,cs),
(524.542,970,o),
(452.065,940.836,o),
(402,901.5,cs),
(343.715,855.705,o),
(304.288,795.748,o),
(281.5,718,cs),
(270.167,679.333,o),
(265,637,o),
(265,593,cs)
);
},
{
closed = 1;
nodes = (
(481,1409.096,o),
(488.602,1434.876,o),
(504.5,1458,cs),
(518.879,1478.915,o),
(542.691,1495.797,o),
(565.5,1503,cs),
(578.167,1507,o),
(591.333,1509,o),
(606,1509,cs),
(634.791,1509,o),
(657.2,1501.175,o),
(680,1485.5,cs),
(700.741,1471.241,o),
(717.045,1447.69,o),
(725,1422.5,cs),
(729,1409.833,o),
(731,1395.667,o),
(731,1381,cs),
(731,1344.168,o),
(718.211,1312.23,o),
(696,1288,cs),
(673.754,1263.732,o),
(642.235,1250,o),
(606,1250,cs),
(576.995,1250,o),
(551.625,1258.9,o),
(531.5,1275,cs),
(510.804,1291.557,o),
(496.103,1310.673,o),
(487,1339.5,cs),
(483,1352.167,o),
(481,1366.333,o),
(481,1381,cs)
);
}
);
};
layerId = "4B056265-F7A9-4FE5-8F86-068480F74FC7";
shapes = (
{
ref = C;
},
{
pos = (466,0);
ref = dotaccentcomb.case;
}
);
width = 1191;
}
);
unicode = 266;
},
{
glyphname = D;
kernRight = D;
lastChange = "2025-02-19 14:22:40 +0000";
layers = (
{
anchors = (
{
name = bottom;
pos = (375,0);
},
{
name = center;
pos = (188,595);
},
{
name = top;
pos = (375,1190);
}
);
background = {
anchors = (
{
name = bottom;
pos = (375,0);
},
{
name = center;
pos = (188,595);
},
{
name = top;
pos = (375,1190);
}
);
shapes = (
{
closed = 1;
nodes = (
(381,1190,ls),
(463.1,1190,o),
(532.413,1165.264,o),
(587,1117.5,cs),
(639.591,1071.483,o),
(678.218,996.601,o),
(696,911.5,cs),
(705.333,866.833,o),
(710,817.333,o),
(710,764,cs),
(710,426,ls),
(710,315.009,o),
(690.703,228.163,o),
(654,160,cs),
(616.195,89.79,o),
(566.273,44.542,o),
(495,18.5,cs),
(460.333,5.833,o),
(422.333,0,o),
(381,0,cs),
(60,0,l),
(60,1190,l),
(60,1190,l)
);
},
{
closed = 1;
nodes = (
(328,220,ls),
(425.333,220,o),
(475,290,o),
(475,426,cs),
(475,764,ls),
(475,900,o),
(425.333,970,o),
(328,970,cs),
(295,970,l),
(295,220,l),
(295,220,l)
);
}
);
};
layerId = "4B056265-F7A9-4FE5-8F86-068480F74FC7";
shapes = (
{
closed = 1;
nodes = (
(381,1190,ls),
(463.1,1190,o),
(532.413,1165.264,o),
(587,1117.5,cs),
(639.591,1071.483,o),
(678.218,996.601,o),
(696,911.5,cs),
(705.333,866.833,o),
(710,817.333,o),
(710,764,cs),
(710,426,ls),
(710,315.009,o),
(690.703,228.163,o),
(654,160,cs),
(616.195,89.79,o),
(566.273,44.542,o),
(495,18.5,cs),
(460.333,5.833,o),
(422.333,0,o),
(381,0,cs),
(60,0,l),
(60,1190,l),
(60,1190,l)
);
},
{
closed = 1;
nodes = (
(328,220,ls),
(425.333,220,o),
(475,290,o),
(475,426,cs),
(475,764,ls),
(475,900,o),
(425.333,970,o),
(328,970,cs),
(295,970,l),
(295,220,l),
(295,220,l)
);
}
);
width = 750;
}
);
unicode = 68;
},
{
color = 4;
glyphname = Dcaron;
kernRight = D;
lastChange = "2025-02-19 14:25:59 +0000";
layers = (
{
background = {
shapes = (
{
closed = 1;
nodes = (
(381,1190,ls),
(463.1,1190,o),
(532.413,1165.264,o),
(587,1117.5,cs),
(639.591,1071.483,o),
(678.218,996.601,o),
(696,911.5,cs),
(705.333,866.833,o),
(710,817.333,o),
(710,764,cs),
(710,426,ls),
(710,315.009,o),
(690.703,228.163,o),
(654,160,cs),
(616.195,89.79,o),
(566.273,44.542,o),
(495,18.5,cs),
(460.333,5.833,o),
(422.333,0,o),
(381,0,cs),
(60,0,l),
(60,1190,l),
(60,1190,l)
);
},
{
closed = 1;
nodes = (
(113,1545,l),
(271,1545,l),
(356,1395,l),
(442,1545,l),
(599,1545,l),
(474,1250,l),
(239,1250,l),
(239,1250,l)
);
},
{
closed = 1;
nodes = (
(328,220,ls),
(425.333,220,o),
(475,290,o),
(475,426,cs),
(475,764,ls),
(475,900,o),
(425.333,970,o),
(328,970,cs),
(295,970,l),
(295,220,l),
(295,220,l)
);
}
);
};
layerId = "4B056265-F7A9-4FE5-8F86-068480F74FC7";
shapes = (
{
ref = D;
},
{
pos = (237,0);
ref = caroncomb.case;
}
);
width = 750;
}
);
unicode = 270;
},
{
color = 4;
glyphname = Dcroat;
kernRight = D;
lastChange = "2025-02-19 14:25:59 +0000";
layers = (
{
background = {
shapes = (
{
closed = 1;
nodes = (
(381,1190,ls),
(463.1,1190,o),
(532.413,1165.264,o),
(587,1117.5,cs),
(639.591,1071.483,o),
(678.218,996.601,o),
(696,911.5,cs),
(705.333,866.833,o),
(710,817.333,o),
(710,764,cs),
(710,426,ls),
(710,315.009,o),
(690.703,228.163,o),
(654,160,cs),
(616.195,89.79,o),
(566.273,44.542,o),
(495,18.5,cs),
(460.333,5.833,o),
(422.333,0,o),
(381,0,cs),
(60,0,l),
(60,480,l),
(-22,480,l),
(-22,690,l),
(60,690,l),
(60,1190,l),
(60,1190,l)
);
},
{
closed = 1;
nodes = (
(328,220,ls),
(425.333,220,o),
(475,290,o),
(475,426,cs),
(475,764,ls),
(475,900,o),
(425.333,970,o),
(328,970,cs),
(295,970,l),
(295,690,l),
(382,690,l),
(382,480,l),
(295,480,l),
(295,220,l),
(295,220,l)
);
}
);
};
layerId = "4B056265-F7A9-4FE5-8F86-068480F74FC7";
shapes = (
{
ref = Eth;
}
);
width = 750;
}
);
unicode = 272;
},
{
glyphname = Eth;
lastChange = "2025-02-19 14:25:56 +0000";
layers = (
{
background = {
shapes = (
{
closed = 1;
nodes = (
(381,1190,ls),
(463.1,1190,o),
(532.413,1165.264,o),
(587,1117.5,cs),
(639.591,1071.483,o),
(678.218,996.601,o),
(696,911.5,cs),
(705.333,866.833,o),
(710,817.333,o),
(710,764,cs),
(710,426,ls),
(710,315.009,o),
(690.703,228.163,o),
(654,160,cs),
(616.195,89.79,o),
(566.273,44.542,o),
(495,18.5,cs),
(460.333,5.833,o),
(422.333,0,o),
(381,0,cs),
(60,0,l),
(60,330,l),
(-22,330,l),
(-22,540,l),
(60,540,l),
(60,1190,l),
(60,1190,l)
);
},
{
closed = 1;
nodes = (
(328,220,ls),
(425.333,220,o),
(475,290,o),
(475,426,cs),
(475,764,ls),
(475,900,o),
(425.333,970,o),
(328,970,cs),
(295,970,l),
(295,540,l),
(382,540,l),
(382,330,l),
(295,330,l),
(295,220,l),
(295,220,l)
);
}
);
};
layerId = "4B056265-F7A9-4FE5-8F86-068480F74FC7";
shapes = (
{
closed = 1;
nodes = (
(381,1190,ls),
(463.1,1190,o),
(532.413,1165.264,o),
(587,1117.5,cs),
(639.591,1071.483,o),
(678.218,996.601,o),
(696,911.5,cs),
(705.333,866.833,o),
(710,817.333,o),
(710,764,cs),
(710,426,ls),
(710,315.009,o),
(690.703,228.163,o),
(654,160,cs),
(616.195,89.79,o),
(566.273,44.542,o),
(495,18.5,cs),
(460.333,5.833,o),
(422.333,0,o),
(381,0,cs),
(60,0,l),
(60,330,l),
(-22,330,l),
(-22,540,l),
(60,540,l),
(60,1190,l),
(60,1190,l)
);
},
{
closed = 1;
nodes = (
(328,220,ls),
(425.333,220,o),
(475,290,o),
(475,426,cs),
(475,764,ls),
(475,900,o),
(425.333,970,o),
(328,970,cs),
(295,970,l),
(295,540,l),
(382,540,l),
(382,330,l),
(295,330,l),
(295,220,l),
(295,220,l)
);
}
);
width = 750;
}
);
unicode = 208;
},
{
glyphname = E;
kernRight = E;
lastChange = "2025-02-19 14:26:35 +0000";
layers = (
{
anchors = (
{
name = bottom;
pos = (295,0);
},
{
name = ogonek;
pos = (560,0);
},
{
name = top;
pos = (295,1190);
},
{
name = topleft;
pos = (20,1190);
}
);
background = {
anchors = (
{
name = bottom;
pos = (295,0);
},
{
name = ogonek;
pos = (531,10);
},
{
name = top;
pos = (295,1190);
},
{
name = topleft;
pos = (20,1190);
}
);
shapes = (
{
closed = 1;
nodes = (
(60,0,l),
(60,1190,l),
(555,1190,l),
(555,970,l),
(295,970,l),
(295,743,l),
(535,743,l),
(535,523,l),
(295,523,l),
(295,220,l),
(560,220,l),
(560,0,l),
(560,0,l)
);
}
);
};
layerId = "4B056265-F7A9-4FE5-8F86-068480F74FC7";
shapes = (
{
closed = 1;
nodes = (
(60,0,l),
(60,1190,l),
(555,1190,l),
(555,970,l),
(295,970,l),
(295,743,l),
(535,743,l),
(535,523,l),
(295,523,l),
(295,220,l),
(560,220,l),
(560,0,l),
(560,0,l)
);
}
);
width = 590;
}
);
unicode = 69;
},
{
color = 4;
glyphname = Eacute;
kernRight = E;
lastChange = "2025-02-19 14:26:17 +0000";
layers = (
{
background = {
shapes = (
{
closed = 1;
nodes = (
(60,0,l),
(60,1190,l),
(555,1190,l),
(555,970,l),
(295,970,l),
(295,743,l),
(535,743,l),
(535,523,l),
(295,523,l),
(295,220,l),
(560,220,l),
(560,0,l),
(560,0,l)
);
},
{
closed = 1;
nodes = (
(139,1250,l),
(277,1561,l),
(494,1561,l),
(311,1250,l),
(311,1250,l)
);
}
);
};
layerId = "4B056265-F7A9-4FE5-8F86-068480F74FC7";
shapes = (
{
ref = E;
},
{
pos = (184,0);
ref = acutecomb.case;
}
);
width = 590;
}
);
unicode = 201;
},
{
color = 4;
glyphname = Ebreve;
kernRight = E;
lastChange = "2025-02-19 14:26:17 +0000";
layers = (
{
background = {
shapes = (
{
closed = 1;
nodes = (
(60,0,l),
(60,1190,l),
(555,1190,l),
(555,970,l),
(295,970,l),
(295,743,l),
(535,743,l),
(535,523,l),
(295,523,l),
(295,220,l),
(560,220,l),
(560,0,l),
(560,0,l)
);
},
{
closed = 1;
nodes = (
(517,1482,l),
(517,1421.925,o),
(497.974,1376.362,o),
(476,1344.5,cs),
(450.701,1307.816,o),
(415.374,1277.125,o),
(368.5,1261.5,cs),
(346.5,1254.167,o),
(322.333,1250,o),
(297,1250,cs),
(247.495,1250,o),
(202.397,1265.91,o),
(167,1294.5,cs),
(129.354,1324.907,o),
(105.852,1360.55,o),
(90.5,1408,cs),
(83.167,1430.667,o),
(80,1455.333,o),
(80,1482,c),
(229,1482,l),
(229,1466.642,o),
(233.872,1448.692,o),
(242,1436.5,cs),
(252.338,1420.993,o),
(262.705,1414.318,o),
(276,1409,cs),
(282.667,1406.333,o),
(290,1405,o),
(298,1405,cs),
(311.272,1405,o),
(329.084,1409.949,o),
(340,1419.5,cs),
(351.31,1429.396,o),
(360.522,1442.915,o),
(364.5,1457.5,cs),
(366.5,1464.833,o),
(368,1474,o),
(368,1482,c)
);
}
);
};
layerId = "4B056265-F7A9-4FE5-8F86-068480F74FC7";
shapes = (
{
ref = E;
},
{
pos = (145,0);
ref = brevecomb.case;
}
);
width = 590;
}
);
unicode = 276;
},
{
color = 4;
glyphname = Ecaron;
kernRight = E;
lastChange = "2025-02-19 14:26:17 +0000";
layers = (
{
background = {
shapes = (
{
closed = 1;
nodes = (
(60,0,l),
(60,1190,l),
(555,1190,l),
(555,970,l),
(295,970,l),
(295,743,l),
(535,743,l),
(535,523,l),
(295,523,l),
(295,220,l),
(560,220,l),
(560,0,l),
(560,0,l)
);
},
{
closed = 1;
nodes = (
(63,1545,l),
(221,1545,l),
(306,1395,l),
(392,1545,l),
(549,1545,l),
(424,1250,l),
(189,1250,l),
(189,1250,l)
);
}
);
};
layerId = "4B056265-F7A9-4FE5-8F86-068480F74FC7";
shapes = (
{
ref = E;
},
{
pos = (157,0);
ref = caroncomb.case;
}
);
width = 590;
}
);
unicode = 282;
},
{
color = 4;
glyphname = Ecircumflex;
kernRight = E;
lastChange = "2025-02-19 14:26:17 +0000";
layers = (
{
background = {
shapes = (
{
closed = 1;
nodes = (
(60,0,l),
(60,1190,l),
(555,1190,l),
(555,970,l),
(295,970,l),
(295,743,l),
(535,743,l),
(535,523,l),
(295,523,l),
(295,220,l),
(560,220,l),
(560,0,l),
(560,0,l)
);
},
{
closed = 1;
nodes = (
(174,1555,l),
(418,1555,l),
(548,1250,l),
(385,1250,l),
(297,1405,l),
(208,1250,l),
(44,1250,l),
(44,1250,l)
);
}
);
};
layerId = "4B056265-F7A9-4FE5-8F86-068480F74FC7";
shapes = (
{
ref = E;
},
{
pos = (181,0);
ref = circumflexcomb.case;
}
);
width = 590;
}
);
unicode = 202;
},
{
color = 4;
glyphname = Edieresis;
kernRight = E;
lastChange = "2025-02-19 14:26:17 +0000";
layers = (
{
background = {
shapes = (
{
closed = 1;
nodes = (
(60,0,l),
(60,1190,l),
(555,1190,l),
(555,970,l),
(295,970,l),
(295,743,l),
(535,743,l),
(535,523,l),
(295,523,l),
(295,220,l),
(560,220,l),
(560,0,l),
(560,0,l)
);
},
{
closed = 1;
nodes = (
(42,1395.403,o),
(49.885,1422.239,o),
(64,1442,cs),
(78.242,1461.939,o),
(96.352,1475.117,o),
(120,1483,cs),
(132,1487,o),
(143.667,1489,o),
(157,1489,cs),
(181.169,1489,o),
(204.82,1481.415,o),
(225,1467,cs),
(245.703,1452.212,o),
(258.053,1432.842,o),
(266,1409,cs),
(270,1397,o),
(272,1384.333,o),
(272,1371,cs),
(272,1345.442,o),
(264.19,1319.285,o),
(251,1299.5,cs),
(238.486,1280.729,o),
(215.092,1263.268,o),
(194.5,1256,cs),
(183.167,1252,o),
(170.333,1250,o),
(157,1250,cs),
(124.698,1250,o),
(105.872,1260.76,o),
(88.5,1273.5,cs),
(69.077,1287.744,o),
(56.421,1307.736,o),
(48,1333,cs),
(44,1345,o),
(42,1357.667,o),
(42,1371,cs)
);
},
{
closed = 1;
nodes = (
(348,1395.403,o),
(355.885,1422.239,o),
(370,1442,cs),
(384.242,1461.939,o),
(402.352,1475.117,o),
(426,1483,cs),
(438,1487,o),
(449.667,1489,o),
(463,1489,cs),
(487.169,1489,o),
(510.82,1481.415,o),
(531,1467,cs),
(551.703,1452.212,o),
(564.053,1432.842,o),
(572,1409,cs),
(576,1397,o),
(578,1384.333,o),
(578,1371,cs),
(578,1345.442,o),
(570.19,1319.285,o),
(557,1299.5,cs),
(544.486,1280.729,o),
(521.092,1263.268,o),
(500.5,1256,cs),
(489.167,1252,o),
(476.333,1250,o),
(463,1250,cs),
(430.698,1250,o),
(411.872,1260.76,o),
(394.5,1273.5,cs),
(375.077,1287.744,o),
(362.421,1307.736,o),
(354,1333,cs),
(350,1345,o),
(348,1357.667,o),
(348,1371,cs)
);
}
);
};
layerId = "4B056265-F7A9-4FE5-8F86-068480F74FC7";
shapes = (
{
ref = E;
},
{
ref = dieresiscomb.case;
}
);
width = 590;
}
);
unicode = 203;
},
{
color = 4;
glyphname = Edotaccent;
kernRight = E;
lastChange = "2025-02-19 14:26:17 +0000";
layers = (
{
background = {
shapes = (
{
closed = 1;
nodes = (
(60,0,l),
(60,1190,l),
(555,1190,l),
(555,970,l),
(295,970,l),
(295,743,l),
(535,743,l),
(535,523,l),
(295,523,l),
(295,220,l),
(560,220,l),
(560,0,l),
(560,0,l)
);
},
{
closed = 1;
nodes = (
(170,1409.096,o),
(177.602,1434.876,o),
(193.5,1458,cs),
(207.879,1478.915,o),
(231.691,1495.797,o),
(254.5,1503,cs),
(267.167,1507,o),
(280.333,1509,o),
(295,1509,cs),
(323.791,1509,o),
(346.2,1501.175,o),
(369,1485.5,cs),
(389.741,1471.241,o),
(406.045,1447.69,o),
(414,1422.5,cs),
(418,1409.833,o),
(420,1395.667,o),
(420,1381,cs),
(420,1344.168,o),
(407.211,1312.23,o),
(385,1288,cs),
(362.754,1263.732,o),
(331.235,1250,o),
(295,1250,cs),
(265.995,1250,o),
(240.625,1258.9,o),
(220.5,1275,cs),
(199.804,1291.557,o),
(185.103,1310.673,o),
(176,1339.5,cs),
(172,1352.167,o),
(170,1366.333,o),
(170,1381,cs)
);
}
);
};
layerId = "4B056265-F7A9-4FE5-8F86-068480F74FC7";
shapes = (
{
ref = E;
},
{
pos = (165,0);
ref = dotaccentcomb.case;
}
);
width = 590;
}
);
unicode = 278;
},
{
color = 4;
glyphname = Egrave;
kernRight = E;
lastChange = "2025-02-19 14:26:17 +0000";
layers = (
{
background = {
shapes = (
{
closed = 1;
nodes = (
(60,0,l),
(60,1190,l),
(555,1190,l),
(555,970,l),
(295,970,l),
(295,743,l),
(535,743,l),
(535,523,l),
(295,523,l),
(295,220,l),
(560,220,l),
(560,0,l),
(560,0,l)
);
},
{
closed = 1;
nodes = (
(111,1561,l),
(328,1561,l),
(466,1250,l),
(294,1250,l),
(294,1250,l)
);
}
);
};
layerId = "4B056265-F7A9-4FE5-8F86-068480F74FC7";
shapes = (
{
ref = E;
},
{
pos = (85,0);
ref = gravecomb.case;
}
);
width = 590;
}
);
unicode = 200;
},
{
color = 4;
glyphname = Emacron;
kernRight = E;
lastChange = "2025-02-19 14:26:17 +0000";
layers = (
{
background = {
shapes = (
{
closed = 1;
nodes = (
(60,0,l),
(60,1190,l),
(555,1190,l),
(555,970,l),
(295,970,l),
(295,743,l),
(535,743,l),
(535,523,l),
(295,523,l),
(295,220,l),
(560,220,l),
(560,0,l),
(560,0,l)
);
},
{
closed = 1;
nodes = (
(94,1450,l),
(517,1450,l),
(517,1270,l),
(94,1270,l),
(94,1270,l)
);
}
);
};
layerId = "4B056265-F7A9-4FE5-8F86-068480F74FC7";
shapes = (
{
ref = E;
},
{
pos = (165,0);
ref = macroncomb.case;
}
);
width = 590;
}
);
unicode = 274;
},
{
color = 4;
glyphname = Eogonek;
kernRight = E;
lastChange = "2025-02-19 14:27:23 +0000";
layers = (
{
background = {
shapes = (
{
closed = 1;
nodes = (
(60,0,l),
(60,1190,l),
(555,1190,l),
(555,970,l),
(295,970,l),
(295,743,l),
(535,743,l),
(535,523,l),
(295,523,l),
(295,220,l),
(560,220,l),
(560,0,l),
(560,0,l)
);
}
);
};
layerId = "4B056265-F7A9-4FE5-8F86-068480F74FC7";
shapes = (
{
ref = E;
},
{
pos = (279,0);
ref = ogonekcomb;
}
);
width = 590;
}
);
unicode = 280;
},
{
glyphname = F;
kernRight = F;
lastChange = "2025-02-19 14:22:40 +0000";
layers = (
{
anchors = (
{
name = bottom;
pos = (293,0);
},
{
name = top;
pos = (293,1190);
}
);
background = {
anchors = (
{
name = bottom;
pos = (293,0);
},
{
name = top;
pos = (293,1190);
}
);
shapes = (
{
closed = 1;
nodes = (
(555,1190,l),
(555,970,l),
(295,970,l),
(295,713,l),
(535,713,l),
(535,493,l),
(295,493,l),
(295,0,l),
(60,0,l),
(60,1190,l),
(60,1190,l)
);
}
);
};
layerId = "4B056265-F7A9-4FE5-8F86-068480F74FC7";
shapes = (
{
closed = 1;
nodes = (
(555,1190,l),
(555,970,l),
(295,970,l),
(295,713,l),
(535,713,l),
(535,493,l),
(295,493,l),
(295,0,l),
(60,0,l),
(60,1190,l),
(60,1190,l)
);
}
);
width = 585;
}
);
unicode = 70;
},
{
glyphname = G;
kernLeft = C2;
kernRight = C;
lastChange = "2025-02-19 14:22:40 +0000";
layers = (
{
anchors = (
{
name = bottom;
pos = (593,0);
},
{
name = top;
pos = (593,1190);
}
);
background = {
anchors = (
{
name = bottom;
pos = (593,0);
},
{
name = top;
pos = (593,1190);
}
);
shapes = (
{
closed = 1;
nodes = (
(1156,484,ls),
(1156,376.935,o),
(1115.012,277.283,o),
(1046,195,cs),
(977.029,112.765,o),
(882.019,49.09,o),
(770.5,15.5,cs),
(715.167,-1.167,o),
(656.333,-10,o),
(595,-10,cs),
(465.256,-10,o),
(349.572,30.816,o),
(256,103,cs),
(178.68,162.647,o),
(98.593,258.98,o),
(57.5,399,cs),
(39.5,460.333,o),
(30,525.667,o),
(30,595,cs),
(30,735.289,o),
(67.008,854.788,o),
(131.5,953.5,cs),
(205.778,1067.19,o),
(311.579,1137.395,o),
(409,1169.5,cs),
(467.667,1188.833,o),
(532.667,1200,o),
(602,1200,cs),
(713.976,1200,o),
(811.118,1173.103,o),
(897.5,1121,cs),
(976.475,1073.364,o),
(1046.929,999.405,o),
(1091,903,cs),
(1112.333,856.333,o),
(1128,806,o),
(1136,750,c),
(896,750,l),
(887.352,793.242,o),
(865.727,842.273,o),
(823.5,884.5,cs),
(787.518,920.482,o),
(738.746,947.501,o),
(687.5,960,cs),
(660.167,966.667,o),
(631.333,970,o),
(602,970,cs),
(525.487,970,o),
(452.185,945.515,o),
(397.5,901.5,cs),
(342.235,857.019,o),
(302.029,794.23,o),
(281,718,cs),
(270.333,679.333,o),
(265,637,o),
(265,593,cs),
(265,499.919,o),
(291.57,420.149,o),
(325.5,367.5,cs),
(362.409,310.227,o),
(415.139,263.913,o),
(490,238,cs),
(524.667,226,o),
(563,220,o),
(603,220,cs),
(661.503,220,o),
(716.937,234.053,o),
(763.5,258,cs),
(808.495,281.14,o),
(848.842,316.69,o),
(876,361.5,cs),
(889.333,383.5,o),
(900,407.667,o),
(908,433,c),
(603,433,l),
(603,633,l),
(1156,633,l),
(1156,633,l)
);
}
);
};
layerId = "4B056265-F7A9-4FE5-8F86-068480F74FC7";
shapes = (
{
closed = 1;
nodes = (
(1156,484,ls),
(1156,376.935,o),
(1115.012,277.283,o),
(1046,195,cs),
(977.029,112.765,o),
(882.019,49.09,o),
(770.5,15.5,cs),
(715.167,-1.167,o),
(656.333,-10,o),
(595,-10,cs),
(465.256,-10,o),
(349.572,30.816,o),
(256,103,cs),
(178.68,162.647,o),
(98.593,258.98,o),
(57.5,399,cs),
(39.5,460.333,o),
(30,525.667,o),
(30,595,cs),
(30,735.289,o),
(67.008,854.788,o),
(131.5,953.5,cs),
(205.778,1067.19,o),
(311.579,1137.395,o),
(409,1169.5,cs),
(467.667,1188.833,o),
(532.667,1200,o),
(602,1200,cs),
(713.976,1200,o),
(811.118,1173.103,o),
(897.5,1121,cs),
(976.475,1073.364,o),
(1046.929,999.405,o),
(1091,903,cs),
(1112.333,856.333,o),
(1128,806,o),
(1136,750,c),
(896,750,l),
(887.352,793.242,o),
(865.727,842.273,o),
(823.5,884.5,cs),
(787.518,920.482,o),
(738.746,947.501,o),
(687.5,960,cs),
(660.167,966.667,o),
(631.333,970,o),
(602,970,cs),
(525.487,970,o),
(452.185,945.515,o),
(397.5,901.5,cs),
(342.235,857.019,o),
(302.029,794.23,o),
(281,718,cs),
(270.333,679.333,o),
(265,637,o),
(265,593,cs),
(265,499.919,o),
(291.57,420.149,o),
(325.5,367.5,cs),
(362.409,310.227,o),
(415.139,263.913,o),
(490,238,cs),
(524.667,226,o),
(563,220,o),
(603,220,cs),
(661.503,220,o),
(716.937,234.053,o),
(763.5,258,cs),
(808.495,281.14,o),
(848.842,316.69,o),
(876,361.5,cs),
(889.333,383.5,o),
(900,407.667,o),
(908,433,c),
(603,433,l),
(603,633,l),
(1156,633,l),
(1156,633,l)
);
}
);
width = 1186;
}
);
unicode = 71;
},
{
color = 4;
glyphname = Gbreve;
kernLeft = C2;
kernRight = C;
lastChange = "2025-02-19 14:27:23 +0000";
layers = (
{
background = {
shapes = (
{
closed = 1;
nodes = (
(1156,484,ls),
(1156,376.935,o),
(1115.012,277.283,o),
(1046,195,cs),
(977.029,112.765,o),
(882.019,49.09,o),
(770.5,15.5,cs),
(715.167,-1.167,o),
(656.333,-10,o),
(595,-10,cs),
(465.256,-10,o),
(349.572,30.816,o),
(256,103,cs),
(178.68,162.647,o),
(98.593,258.98,o),
(57.5,399,cs),
(39.5,460.333,o),
(30,525.667,o),
(30,595,cs),
(30,735.289,o),
(67.008,854.788,o),
(131.5,953.5,cs),
(205.778,1067.19,o),
(311.579,1137.395,o),
(409,1169.5,cs),
(467.667,1188.833,o),
(532.667,1200,o),
(602,1200,cs),
(713.976,1200,o),
(811.118,1173.103,o),
(897.5,1121,cs),
(976.475,1073.364,o),
(1046.929,999.405,o),
(1091,903,cs),
(1112.333,856.333,o),
(1128,806,o),
(1136,750,c),
(896,750,l),
(887.352,793.242,o),
(865.727,842.273,o),
(823.5,884.5,cs),
(787.518,920.482,o),
(738.746,947.501,o),
(687.5,960,cs),
(660.167,966.667,o),
(631.333,970,o),
(602,970,cs),
(525.487,970,o),
(452.185,945.515,o),
(397.5,901.5,cs),
(342.235,857.019,o),
(302.029,794.23,o),
(281,718,cs),
(270.333,679.333,o),
(265,637,o),
(265,593,cs),
(265,499.919,o),
(291.57,420.149,o),
(325.5,367.5,cs),
(362.409,310.227,o),
(415.139,263.913,o),
(490,238,cs),
(524.667,226,o),
(563,220,o),
(603,220,cs),
(661.503,220,o),
(716.937,234.053,o),
(763.5,258,cs),
(808.495,281.14,o),
(848.842,316.69,o),
(876,361.5,cs),
(889.333,383.5,o),
(900,407.667,o),
(908,433,c),
(603,433,l),
(603,633,l),
(1156,633,l),
(1156,633,l)
);
},
{
closed = 1;
nodes = (
(815,1482,l),
(815,1421.925,o),
(795.974,1376.362,o),
(774,1344.5,cs),
(748.701,1307.816,o),
(713.374,1277.125,o),
(666.5,1261.5,cs),
(644.5,1254.167,o),
(620.333,1250,o),
(595,1250,cs),
(545.495,1250,o),
(500.397,1265.91,o),
(465,1294.5,cs),
(427.354,1324.907,o),
(403.852,1360.55,o),
(388.5,1408,cs),
(381.167,1430.667,o),
(378,1455.333,o),
(378,1482,c),
(527,1482,l),
(527,1466.642,o),
(531.872,1448.692,o),
(540,1436.5,cs),
(550.338,1420.993,o),
(560.705,1414.318,o),
(574,1409,cs),
(580.667,1406.333,o),
(588,1405,o),
(596,1405,cs),
(609.272,1405,o),
(627.084,1409.949,o),
(638,1419.5,cs),
(649.31,1429.396,o),
(658.522,1442.915,o),
(662.5,1457.5,cs),
(664.5,1464.833,o),
(666,1474,o),
(666,1482,c)
);
}
);
};
layerId = "4B056265-F7A9-4FE5-8F86-068480F74FC7";
shapes = (
{
ref = G;
},
{
pos = (443,0);
ref = brevecomb.case;
}
);
width = 1186;
}
);
unicode = 286;
},
{
color = 4;
glyphname = Gcircumflex;
kernLeft = C2;
kernRight = C;
lastChange = "2025-02-19 14:27:23 +0000";
layers = (
{
background = {
shapes = (
{
closed = 1;
nodes = (
(1156,484,ls),
(1156,376.935,o),
(1115.012,277.283,o),
(1046,195,cs),
(977.029,112.765,o),
(882.019,49.09,o),
(770.5,15.5,cs),
(715.167,-1.167,o),
(656.333,-10,o),
(595,-10,cs),
(465.256,-10,o),
(349.572,30.816,o),
(256,103,cs),
(178.68,162.647,o),
(98.593,258.98,o),
(57.5,399,cs),
(39.5,460.333,o),
(30,525.667,o),
(30,595,cs),
(30,735.289,o),
(67.008,854.788,o),
(131.5,953.5,cs),
(205.778,1067.19,o),
(311.579,1137.395,o),
(409,1169.5,cs),
(467.667,1188.833,o),
(532.667,1200,o),
(602,1200,cs),
(713.976,1200,o),
(811.118,1173.103,o),
(897.5,1121,cs),
(976.475,1073.364,o),
(1046.929,999.405,o),
(1091,903,cs),
(1112.333,856.333,o),
(1128,806,o),
(1136,750,c),
(896,750,l),
(887.352,793.242,o),
(865.727,842.273,o),
(823.5,884.5,cs),
(787.518,920.482,o),
(738.746,947.501,o),
(687.5,960,cs),
(660.167,966.667,o),
(631.333,970,o),
(602,970,cs),
(525.487,970,o),
(452.185,945.515,o),
(397.5,901.5,cs),
(342.235,857.019,o),
(302.029,794.23,o),
(281,718,cs),
(270.333,679.333,o),
(265,637,o),
(265,593,cs),
(265,499.919,o),
(291.57,420.149,o),
(325.5,367.5,cs),
(362.409,310.227,o),
(415.139,263.913,o),
(490,238,cs),
(524.667,226,o),
(563,220,o),
(603,220,cs),
(661.503,220,o),
(716.937,234.053,o),
(763.5,258,cs),
(808.495,281.14,o),
(848.842,316.69,o),
(876,361.5,cs),
(889.333,383.5,o),
(900,407.667,o),
(908,433,c),
(603,433,l),
(603,633,l),
(1156,633,l),
(1156,633,l)
);
},
{
closed = 1;
nodes = (
(472,1555,l),
(716,1555,l),
(846,1250,l),
(683,1250,l),
(595,1405,l),
(506,1250,l),
(342,1250,l),
(342,1250,l)
);
}
);
};
layerId = "4B056265-F7A9-4FE5-8F86-068480F74FC7";
shapes = (
{
ref = G;
},
{
pos = (479,0);
ref = circumflexcomb.case;
}
);
width = 1186;
}
);
unicode = 284;
},
{
color = 4;
glyphname = Gcommaaccent;
kernLeft = C2;
kernRight = C;
lastChange = "2025-02-19 14:33:57 +0000";
layers = (
{
background = {
shapes = (
{
closed = 1;
nodes = (
(1156,484,ls),
(1156,376.935,o),
(1115.012,277.283,o),
(1046,195,cs),
(977.029,112.765,o),
(882.019,49.09,o),
(770.5,15.5,cs),
(715.167,-1.167,o),
(656.333,-10,o),
(595,-10,cs),
(465.256,-10,o),
(349.572,30.816,o),
(256,103,cs),
(178.68,162.647,o),
(98.593,258.98,o),
(57.5,399,cs),
(39.5,460.333,o),
(30,525.667,o),
(30,595,cs),
(30,735.289,o),
(67.008,854.788,o),
(131.5,953.5,cs),
(205.778,1067.19,o),
(311.579,1137.395,o),
(409,1169.5,cs),
(467.667,1188.833,o),
(532.667,1200,o),
(602,1200,cs),
(713.976,1200,o),
(811.118,1173.103,o),
(897.5,1121,cs),
(976.475,1073.364,o),
(1046.929,999.405,o),
(1091,903,cs),
(1112.333,856.333,o),
(1128,806,o),
(1136,750,c),
(896,750,l),
(887.352,793.242,o),
(865.727,842.273,o),
(823.5,884.5,cs),
(787.518,920.482,o),
(738.746,947.501,o),
(687.5,960,cs),
(660.167,966.667,o),
(631.333,970,o),
(602,970,cs),
(525.487,970,o),
(452.185,945.515,o),
(397.5,901.5,cs),
(342.235,857.019,o),
(302.029,794.23,o),
(281,718,cs),
(270.333,679.333,o),
(265,637,o),
(265,593,cs),
(265,499.919,o),
(291.57,420.149,o),
(325.5,367.5,cs),
(362.409,310.227,o),
(415.139,263.913,o),
(490,238,cs),
(524.667,226,o),
(563,220,o),
(603,220,cs),
(661.503,220,o),
(716.937,234.053,o),
(763.5,258,cs),
(808.495,281.14,o),
(848.842,316.69,o),
(876,361.5,cs),
(889.333,383.5,o),
(900,407.667,o),
(908,433,c),
(603,433,l),
(603,633,l),
(1156,633,l),
(1156,633,l)
);
},
{
closed = 1;
nodes = (
(528,-77,l),
(719,-77,l),
(596,-387,l),
(431,-387,l),
(431,-387,l)
);
}
);
};
layerId = "4B056265-F7A9-4FE5-8F86-068480F74FC7";
shapes = (
{
ref = G;
},
{
pos = (336,0);
ref = commaaccentcomb;
}
);
width = 1186;
}
);
unicode = 290;
},
{
color = 4;
glyphname = Gdotaccent;
kernLeft = C2;
kernRight = C;
lastChange = "2025-02-19 14:27:23 +0000";
layers = (
{
background = {
shapes = (
{
closed = 1;
nodes = (
(1156,484,ls),
(1156,376.935,o),
(1115.012,277.283,o),
(1046,195,cs),
(977.029,112.765,o),
(882.019,49.09,o),
(770.5,15.5,cs),
(715.167,-1.167,o),
(656.333,-10,o),
(595,-10,cs),
(465.256,-10,o),
(349.572,30.816,o),
(256,103,cs),
(178.68,162.647,o),
(98.593,258.98,o),
(57.5,399,cs),
(39.5,460.333,o),
(30,525.667,o),
(30,595,cs),
(30,735.289,o),
(67.008,854.788,o),
(131.5,953.5,cs),
(205.778,1067.19,o),
(311.579,1137.395,o),
(409,1169.5,cs),
(467.667,1188.833,o),
(532.667,1200,o),
(602,1200,cs),
(713.976,1200,o),
(811.118,1173.103,o),
(897.5,1121,cs),
(976.475,1073.364,o),
(1046.929,999.405,o),
(1091,903,cs),
(1112.333,856.333,o),
(1128,806,o),
(1136,750,c),
(896,750,l),
(887.352,793.242,o),
(865.727,842.273,o),
(823.5,884.5,cs),
(787.518,920.482,o),
(738.746,947.501,o),
(687.5,960,cs),
(660.167,966.667,o),
(631.333,970,o),
(602,970,cs),
(525.487,970,o),
(452.185,945.515,o),
(397.5,901.5,cs),
(342.235,857.019,o),
(302.029,794.23,o),
(281,718,cs),
(270.333,679.333,o),
(265,637,o),
(265,593,cs),
(265,499.919,o),
(291.57,420.149,o),
(325.5,367.5,cs),
(362.409,310.227,o),
(415.139,263.913,o),
(490,238,cs),
(524.667,226,o),
(563,220,o),
(603,220,cs),
(661.503,220,o),
(716.937,234.053,o),
(763.5,258,cs),
(808.495,281.14,o),
(848.842,316.69,o),
(876,361.5,cs),
(889.333,383.5,o),
(900,407.667,o),
(908,433,c),
(603,433,l),
(603,633,l),
(1156,633,l),
(1156,633,l)
);
},
{
closed = 1;
nodes = (
(468,1409.096,o),
(475.602,1434.876,o),
(491.5,1458,cs),
(505.879,1478.915,o),
(529.691,1495.797,o),
(552.5,1503,cs),
(565.167,1507,o),
(578.333,1509,o),
(593,1509,cs),
(621.791,1509,o),
(644.2,1501.175,o),
(667,1485.5,cs),
(687.741,1471.241,o),
(704.045,1447.69,o),
(712,1422.5,cs),
(716,1409.833,o),
(718,1395.667,o),
(718,1381,cs),
(718,1344.168,o),
(705.211,1312.23,o),
(683,1288,cs),
(660.754,1263.732,o),
(629.235,1250,o),
(593,1250,cs),
(563.995,1250,o),
(538.625,1258.9,o),
(518.5,1275,cs),
(497.804,1291.557,o),
(483.103,1310.673,o),
(474,1339.5,cs),
(470,1352.167,o),
(468,1366.333,o),
(468,1381,cs)
);
}
);
};
layerId = "4B056265-F7A9-4FE5-8F86-068480F74FC7";
shapes = (
{
ref = G;
},
{
pos = (463,0);
ref = dotaccentcomb.case;
}
);
width = 1186;
}
);
unicode = 288;
},
{
glyphname = H;
lastChange = "2025-02-19 14:22:40 +0000";
layers = (
{
anchors = (
{
name = bottom;
pos = (383,0);
},
{
name = center;
pos = (383,893);
},
{
name = top;
pos = (383,1190);
},
{
name = topleft;
pos = (20,1190);
}
);
background = {
anchors = (
{
name = bottom;
pos = (383,0);
},
{
name = center;
pos = (383,893);
},
{
name = top;
pos = (383,1190);
},
{
name = topleft;
pos = (20,1190);
}
);
shapes = (
{
closed = 1;
nodes = (
(60,1190,l),
(295,1190,l),
(295,773,l),
(470,773,l),
(470,1190,l),
(705,1190,l),
(705,0,l),
(470,0,l),
(470,553,l),
(295,553,l),
(295,0,l),
(60,0,l),
(60,0,l)
);
}
);
};
layerId = "4B056265-F7A9-4FE5-8F86-068480F74FC7";
shapes = (
{
closed = 1;
nodes = (
(60,1190,l),
(295,1190,l),
(295,773,l),
(470,773,l),
(470,1190,l),
(705,1190,l),
(705,0,l),
(470,0,l),
(470,553,l),
(295,553,l),
(295,0,l),
(60,0,l),
(60,0,l)
);
}
);
width = 765;
}
);
unicode = 72;
},
{
glyphname = Hbar;
lastChange = "2025-02-19 14:27:14 +0000";
layers = (
{
background = {
shapes = (
{
closed = 1;
nodes = (
(80,1190,l),
(315,1190,l),
(315,773,l),
(490,773,l),
(490,1190,l),
(725,1190,l),
(725,0,l),
(490,0,l),
(490,553,l),
(315,553,l),
(315,0,l),
(80,0,l),
(80,0,l)
);
},
{
closed = 1;
nodes = (
(191,1430,l),
(614,1430,l),
(614,1250,l),
(191,1250,l),
(191,1250,l)
);
}
);
};
layerId = "4B056265-F7A9-4FE5-8F86-068480F74FC7";
shapes = (
{
closed = 1;
nodes = (
(80,1190,l),
(315,1190,l),
(315,773,l),
(490,773,l),
(490,1190,l),
(725,1190,l),
(725,0,l),
(490,0,l),
(490,553,l),
(315,553,l),
(315,0,l),
(80,0,l),
(80,0,l)
);
},
{
closed = 1;
nodes = (
(33,1064,l),
(772,1064,l),
(772,884,l),
(33,884,l),
(33,884,l)
);
}
);
width = 805;
}
);
unicode = 294;
},
{
color = 4;
glyphname = Hcircumflex;
lastChange = "2025-02-19 14:27:23 +0000";
layers = (
{
background = {
shapes = (
{
closed = 1;
nodes = (
(60,1190,l),
(295,1190,l),
(295,773,l),
(470,773,l),
(470,1190,l),
(705,1190,l),
(705,0,l),
(470,0,l),
(470,553,l),
(295,553,l),
(295,0,l),
(60,0,l),
(60,0,l)
);
},
{
closed = 1;
nodes = (
(261,1555,l),
(505,1555,l),
(635,1250,l),
(472,1250,l),
(384,1405,l),
(295,1250,l),
(131,1250,l),
(131,1250,l)
);
}
);
};
layerId = "4B056265-F7A9-4FE5-8F86-068480F74FC7";
shapes = (
{
ref = H;
},
{
pos = (269,0);
ref = circumflexcomb.case;
}
);
width = 765;
}
);
unicode = 292;
},
{
glyphname = I;
lastChange = "2025-02-19 14:27:35 +0000";
layers = (
{
anchors = (
{
name = bottom;
pos = (178,0);
},
{
name = ogonek;
pos = (295,0);
},
{
name = top;
pos = (178,1190);
},
{
name = topleft;
pos = (20,1190);
}
);
background = {
anchors = (
{
name = bottom;
pos = (178,0);
},
{
name = ogonek;
pos = (320,10);
},
{
name = top;
pos = (178,1190);
},
{
name = topleft;
pos = (20,1190);
}
);
shapes = (
{
closed = 1;
nodes = (
(60,1190,l),
(295,1190,l),
(295,0,l),
(60,0,l),
(60,0,l)
);
}
);
};
layerId = "4B056265-F7A9-4FE5-8F86-068480F74FC7";
shapes = (
{
closed = 1;
nodes = (
(60,1190,l),
(295,1190,l),
(295,0,l),
(60,0,l),
(60,0,l)
);
}
);
width = 355;
}
);
unicode = 73;
},
{
glyphname = IJ;
kernLeft = J2;
kernRight = J;
lastChange = "2025-02-19 14:22:40 +0000";
layers = (
{
background = {
shapes = (
{
closed = 1;
nodes = (
(411,1190,l),
(645,1190,l),
(645,308,ls),
(645,227.292,o),
(628.995,160.825,o),
(595,107,cs),
(563.299,56.807,o),
(510.825,19.973,o),
(450,3.5,cs),
(418,-5.167,o),
(381.667,-10,o),
(343,-10,cs),
(267.456,-10,o),
(205.613,5.891,o),
(157,41,cs),
(110.74,74.41,o),
(78.165,124.646,o),
(62,192,cs),
(54,225.333,o),
(50,261.667,o),
(50,303,cs),
(50,418,l),
(285,418,l),
(285,309,ls),
(285,249.667,o),
(306,220,o),
(348,220,cs),
(389.333,220,o),
(410,250,o),
(410,310,cs)
);
},
{
closed = 1;
nodes = (
(50,1190,l),
(285,1190,l),
(285,500,l),
(50,500,l),
(50,500,l)
);
}
);
};
layerId = "4B056265-F7A9-4FE5-8F86-068480F74FC7";
shapes = (
{
closed = 1;
nodes = (
(411,1190,l),
(645,1190,l),
(645,308,ls),
(645,227.292,o),
(628.995,160.825,o),
(595,107,cs),
(563.299,56.807,o),
(510.825,19.973,o),
(450,3.5,cs),
(418,-5.167,o),
(381.667,-10,o),
(343,-10,cs),
(267.456,-10,o),
(205.613,5.891,o),
(157,41,cs),
(110.74,74.41,o),
(78.165,124.646,o),
(62,192,cs),
(54,225.333,o),
(50,261.667,o),
(50,303,cs),
(50,418,l),
(285,418,l),
(285,309,ls),
(285,249.667,o),
(306,220,o),
(348,220,cs),
(389.333,220,o),
(410,250,o),
(410,310,cs)
);
},
{
closed = 1;
nodes = (
(50,1190,l),
(285,1190,l),
(285,500,l),
(50,500,l),
(50,500,l)
);
}
);
width = 695;
}
);
unicode = 306;
},
{
color = 4;
glyphname = Iacute;
lastChange = "2025-02-19 14:27:23 +0000";
layers = (
{
background = {
shapes = (
{
closed = 1;
nodes = (
(60,1190,l),
(295,1190,l),
(295,0,l),
(60,0,l),
(60,0,l)
);
},
{
closed = 1;
nodes = (
(22,1250,l),
(160,1561,l),
(377,1561,l),
(194,1250,l),
(194,1250,l)
);
}
);
};
layerId = "4B056265-F7A9-4FE5-8F86-068480F74FC7";
shapes = (
{
ref = I;
},
{
pos = (67,0);
ref = acutecomb.case;
}
);
width = 355;
}
);
unicode = 205;
},
{
color = 4;
glyphname = Icircumflex;
lastChange = "2025-02-19 14:27:23 +0000";
layers = (
{
background = {
shapes = (
{
closed = 1;
nodes = (
(60,1190,l),
(295,1190,l),
(295,0,l),
(60,0,l),
(60,0,l)
);
},
{
closed = 1;
nodes = (
(56,1555,l),
(300,1555,l),
(430,1250,l),
(267,1250,l),
(179,1405,l),
(90,1250,l),
(-74,1250,l),
(-74,1250,l)
);
}
);
};
layerId = "4B056265-F7A9-4FE5-8F86-068480F74FC7";
shapes = (
{
ref = I;
},
{
pos = (64,0);
ref = circumflexcomb.case;
}
);
width = 355;
}
);
unicode = 206;
},
{
color = 4;
glyphname = Idieresis;
lastChange = "2025-02-19 14:27:23 +0000";
layers = (
{
background = {
shapes = (
{
closed = 1;
nodes = (
(60,1190,l),
(295,1190,l),
(295,0,l),
(60,0,l),
(60,0,l)
);
},
{
closed = 1;
nodes = (
(-102,1395.403,o),
(-94.115,1422.239,o),
(-80,1442,cs),
(-65.758,1461.939,o),
(-47.648,1475.117,o),
(-24,1483,cs),
(-12,1487,o),
(-0.333,1489,o),
(13,1489,cs),
(37.169,1489,o),
(60.82,1481.415,o),
(81,1467,cs),
(101.703,1452.212,o),
(114.053,1432.842,o),
(122,1409,cs),
(126,1397,o),
(128,1384.333,o),
(128,1371,cs),
(128,1345.442,o),
(120.19,1319.285,o),
(107,1299.5,cs),
(94.486,1280.729,o),
(71.092,1263.268,o),
(50.5,1256,cs),
(39.167,1252,o),
(26.333,1250,o),
(13,1250,cs),
(-19.302,1250,o),
(-38.128,1260.76,o),
(-55.5,1273.5,cs),
(-74.923,1287.744,o),
(-87.579,1307.736,o),
(-96,1333,cs),
(-100,1345,o),
(-102,1357.667,o),
(-102,1371,cs)
);
},
{
closed = 1;
nodes = (
(204,1395.403,o),
(211.885,1422.239,o),
(226,1442,cs),
(240.242,1461.939,o),
(258.352,1475.117,o),
(282,1483,cs),
(294,1487,o),
(305.667,1489,o),
(319,1489,cs),
(343.169,1489,o),
(366.82,1481.415,o),
(387,1467,cs),
(407.703,1452.212,o),
(420.053,1432.842,o),
(428,1409,cs),
(432,1397,o),
(434,1384.333,o),
(434,1371,cs),
(434,1345.442,o),
(426.19,1319.285,o),
(413,1299.5,cs),
(400.486,1280.729,o),
(377.092,1263.268,o),
(356.5,1256,cs),
(345.167,1252,o),
(332.333,1250,o),
(319,1250,cs),
(286.698,1250,o),
(267.872,1260.76,o),
(250.5,1273.5,cs),
(231.077,1287.744,o),
(218.421,1307.736,o),
(210,1333,cs),
(206,1345,o),
(204,1357.667,o),
(204,1371,cs)
);
}
);
};
layerId = "4B056265-F7A9-4FE5-8F86-068480F74FC7";
shapes = (
{
ref = I;
},
{
pos = (-117,0);
ref = dieresiscomb.case;
}
);
width = 355;
}
);
unicode = 207;
},
{
color = 4;
glyphname = Idotaccent;
lastChange = "2025-02-19 14:27:23 +0000";
layers = (
{
background = {
shapes = (
{
closed = 1;
nodes = (
(60,1190,l),
(295,1190,l),
(295,0,l),
(60,0,l),
(60,0,l)
);
},
{
closed = 1;
nodes = (
(53,1409.096,o),
(60.602,1434.876,o),
(76.5,1458,cs),
(90.879,1478.915,o),
(114.691,1495.797,o),
(137.5,1503,cs),
(150.167,1507,o),
(163.333,1509,o),
(178,1509,cs),
(206.791,1509,o),
(229.2,1501.175,o),
(252,1485.5,cs),
(272.741,1471.241,o),
(289.045,1447.69,o),
(297,1422.5,cs),
(301,1409.833,o),
(303,1395.667,o),
(303,1381,cs),
(303,1344.168,o),
(290.211,1312.23,o),
(268,1288,cs),
(245.754,1263.732,o),
(214.235,1250,o),
(178,1250,cs),
(148.995,1250,o),
(123.625,1258.9,o),
(103.5,1275,cs),
(82.804,1291.557,o),
(68.103,1310.673,o),
(59,1339.5,cs),
(55,1352.167,o),
(53,1366.333,o),
(53,1381,cs)
);
}
);
};
layerId = "4B056265-F7A9-4FE5-8F86-068480F74FC7";
shapes = (
{
ref = I;
},
{
pos = (48,0);
ref = dotaccentcomb.case;
}
);
width = 355;
}
);
unicode = 304;
},
{
color = 4;
glyphname = Igrave;
lastChange = "2025-02-19 14:27:23 +0000";
layers = (
{
background = {
shapes = (
{
closed = 1;
nodes = (
(60,1190,l),
(295,1190,l),
(295,0,l),
(60,0,l),
(60,0,l)
);
},
{
closed = 1;
nodes = (
(-37,1561,l),
(180,1561,l),
(318,1250,l),
(146,1250,l),
(146,1250,l)
);
}
);
};
layerId = "4B056265-F7A9-4FE5-8F86-068480F74FC7";
shapes = (
{
ref = I;
},
{
pos = (-32,0);
ref = gravecomb.case;
}
);
width = 355;
}
);
unicode = 204;
},
{
color = 4;
glyphname = Imacron;
lastChange = "2025-02-19 14:27:23 +0000";
layers = (
{
background = {
shapes = (
{
closed = 1;
nodes = (
(60,1190,l),
(295,1190,l),
(295,0,l),
(60,0,l),
(60,0,l)
);
},
{
closed = 1;
nodes = (
(-34,1450,l),
(389,1450,l),
(389,1270,l),
(-34,1270,l),
(-34,1270,l)
);
}
);
};
layerId = "4B056265-F7A9-4FE5-8F86-068480F74FC7";
shapes = (
{
ref = I;
},
{
pos = (48,0);
ref = macroncomb.case;
}
);
width = 355;
}
);
unicode = 298;
},
{
color = 4;
glyphname = Iogonek;
lastChange = "2025-02-19 14:27:35 +0000";
layers = (
{
background = {
shapes = (
{
closed = 1;
nodes = (
(60,1190,l),
(295,1190,l),
(295,0,l),
(287,0,l),
(264.981,-6.606,o),
(234.078,-21.642,o),
(217,-37.5,cs),
(196.273,-56.747,o),
(182.86,-74.04,o),
(175,-95,cs),
(171,-105.667,o),
(169,-116.333,o),
(169,-127,cs),
(169,-150.345,o),
(179.852,-165.091,o),
(186.5,-171,cs),
(199.498,-182.553,o),
(219.489,-191.217,o),
(237,-194.5,cs),
(247.667,-196.5,o),
(259.667,-197,o),
(273,-197,c),
(273,-345,l),
(207.505,-345,o),
(156.93,-333.425,o),
(113.5,-315,cs),
(65.172,-294.497,o),
(38.664,-267.584,o),
(22.5,-236.5,cs),
(13.833,-219.833,o),
(10,-201.667,o),
(10,-183,cs),
(10,-152.722,o),
(18.712,-121.069,o),
(32.5,-96,cs),
(51.353,-61.722,o),
(78.102,-37.128,o),
(94,-26,cs),
(107.333,-16.667,o),
(121,-8,o),
(137,0,c),
(60,0,l),
(60,0,l)
);
}
);
};
layerId = "4B056265-F7A9-4FE5-8F86-068480F74FC7";
shapes = (
{
ref = I;
},
{
pos = (14,0);
ref = ogonekcomb;
}
);
width = 355;
}
);
unicode = 302;
},
{
color = 4;
glyphname = Itilde;
lastChange = "2025-02-19 14:27:23 +0000";
layers = (
{
background = {
shapes = (
{
closed = 1;
nodes = (
(60,1190,l),
(295,1190,l),
(295,0,l),
(60,0,l),
(60,0,l)
);
},
{
closed = 1;
nodes = (
(-62,1250,l),
(-62,1307.219,o),
(-54.376,1358.385,o),
(-41,1394.5,cs),
(-28.788,1427.472,o),
(-4.906,1458.183,o),
(21.5,1469.5,cs),
(35.5,1475.5,o),
(49.667,1479,o),
(67,1479,cs),
(99.02,1479,o),
(124.669,1467.166,o),
(148,1455.5,cs),
(168.885,1445.058,o),
(188.6,1429.108,o),
(210.5,1419,cs),
(219.167,1415,o),
(227,1412,o),
(235,1412,cs),
(258.641,1412,o),
(275,1441.829,o),
(275,1479,c),
(425,1479,l),
(425,1325.667,o),
(383,1250,o),
(295,1250,cs),
(270.248,1250,o),
(242.146,1256.409,o),
(214,1274,cs),
(197.212,1284.493,o),
(174.044,1302.441,o),
(155.5,1311,cs),
(146.833,1315,o),
(138,1318,o),
(130,1318,cs),
(120.964,1318,o),
(110.229,1312.875,o),
(104.5,1306,cs),
(96.689,1296.627,o),
(93.975,1287.873,o),
(91,1273,cs),
(89.667,1266.333,o),
(89,1258,o),
(89,1250,c)
);
}
);
};
layerId = "4B056265-F7A9-4FE5-8F86-068480F74FC7";
shapes = (
{
ref = I;
},
{
pos = (28,0);
ref = tildecomb.case;
}
);
width = 355;
}
);
unicode = 296;
},
{
glyphname = J;
kernLeft = J2;
kernRight = J;
lastChange = "2025-02-19 14:22:40 +0000";
layers = (
{
anchors = (
{
name = bottom;
pos = (323,0);
},
{
name = top;
pos = (323,1190);
}
);
background = {
anchors = (
{
name = bottom;
pos = (323,0);
},
{
name = top;
pos = (323,1190);
}
);
shapes = (
{
closed = 1;
nodes = (
(30,418,l),
(250,418,l),
(250,309,ls),
(250,249.667,o),
(268.667,220,o),
(306,220,cs),
(342,220,o),
(360,250,o),
(360,310,cs),
(360,970,l),
(90,970,l),
(90,1190,l),
(595,1190,l),
(595,308,ls),
(595,229.443,o),
(579.875,160.489,o),
(547.5,107,cs),
(517.674,57.722,o),
(470.476,21.115,o),
(409.5,3.5,cs),
(379.5,-5.167,o),
(345.333,-10,o),
(308,-10,cs),
(126.966,-10,o),
(30,96.979,o),
(30,303,cs)
);
}
);
};
layerId = "4B056265-F7A9-4FE5-8F86-068480F74FC7";
shapes = (
{
closed = 1;
nodes = (
(30,418,l),
(250,418,l),
(250,309,ls),
(250,249.667,o),
(268.667,220,o),
(306,220,cs),
(342,220,o),
(360,250,o),
(360,310,cs),
(360,970,l),
(90,970,l),
(90,1190,l),
(595,1190,l),
(595,308,ls),
(595,229.443,o),
(579.875,160.489,o),
(547.5,107,cs),
(517.674,57.722,o),
(470.476,21.115,o),
(409.5,3.5,cs),
(379.5,-5.167,o),
(345.333,-10,o),
(308,-10,cs),
(126.966,-10,o),
(30,96.979,o),
(30,303,cs)
);
}
);
width = 645;
}
);
unicode = 74;
},
{
color = 4;
glyphname = Jcircumflex;
kernLeft = J2;
kernRight = J;
lastChange = "2025-02-19 14:27:40 +0000";
layers = (
{
background = {
shapes = (
{
closed = 1;
nodes = (
(30,418,l),
(250,418,l),
(250,309,ls),
(250,249.667,o),
(268.667,220,o),
(306,220,cs),
(342,220,o),
(360,250,o),
(360,310,cs),
(360,970,l),
(90,970,l),
(90,1190,l),
(595,1190,l),
(595,308,ls),
(595,229.443,o),
(579.875,160.489,o),
(547.5,107,cs),
(517.674,57.722,o),
(470.476,21.115,o),
(409.5,3.5,cs),
(379.5,-5.167,o),
(345.333,-10,o),
(308,-10,cs),
(126.966,-10,o),
(30,96.979,o),
(30,303,cs)
);
},
{
closed = 1;
nodes = (
(221,1555,l),
(465,1555,l),
(595,1250,l),
(432,1250,l),
(344,1405,l),
(255,1250,l),
(91,1250,l),
(91,1250,l)
);
}
);
};
layerId = "4B056265-F7A9-4FE5-8F86-068480F74FC7";
shapes = (
{
ref = J;
},
{
pos = (209,0);
ref = circumflexcomb.case;
}
);
width = 645;
}
);
unicode = 308;
},
{
glyphname = K;
kernRight = K;
lastChange = "2025-02-19 14:22:40 +0000";
layers = (
{
anchors = (
{
name = bottom;
pos = (373,0);
},
{
name = top;
pos = (373,1190);
}
);
background = {
anchors = (
{
name = bottom;
pos = (373,0);
},
{
name = top;
pos = (373,1190);
}
);
shapes = (
{
closed = 1;
nodes = (
(295,972,ls),
(295,938.15,o),
(291.559,904.264,o),
(284.5,860.5,cs),
(277.818,819.071,o),
(269.804,773.218,o),
(257.5,724,cs),
(254.5,712,o),
(251.5,699.833,o),
(248.5,687.5,cs),
(245.5,675.167,o),
(242.333,662.667,o),
(239,650,c),
(259,650,l),
(264.276,674.622,o),
(281.727,741.18,o),
(292.5,773.5,cs),
(313.837,837.51,o),
(314.747,841.869,o),
(338,900,cs),
(346,920,o),
(354,939.667,o),
(362,957,cs),
(470,1190,l),
(705,1190,l),
(480,724,l),
(725,0,l),
(490,0,l),
(333,464,l),
(295,408,l),
(295,0,l),
(60,0,l),
(60,1190,l),
(295,1190,l),
(295,1190,l)
);
}
);
};
layerId = "4B056265-F7A9-4FE5-8F86-068480F74FC7";
shapes = (
{
closed = 1;
nodes = (
(295,972,ls),
(295,938.15,o),
(291.559,904.264,o),
(284.5,860.5,cs),
(277.818,819.071,o),
(269.804,773.218,o),
(257.5,724,cs),
(254.5,712,o),
(251.5,699.833,o),
(248.5,687.5,cs),
(245.5,675.167,o),
(242.333,662.667,o),
(239,650,c),
(259,650,l),
(264.276,674.622,o),
(281.727,741.18,o),
(292.5,773.5,cs),
(313.837,837.51,o),
(314.747,841.869,o),
(338,900,cs),
(346,920,o),
(354,939.667,o),
(362,957,cs),
(470,1190,l),
(705,1190,l),
(480,724,l),
(725,0,l),
(490,0,l),
(333,464,l),
(295,408,l),
(295,0,l),
(60,0,l),
(60,1190,l),
(295,1190,l),
(295,1190,l)
);
}
);
width = 745;
}
);
unicode = 75;
},
{
color = 4;
glyphname = Kcommaaccent;
kernRight = K;
lastChange = "2025-02-19 14:33:57 +0000";
layers = (
{
background = {
shapes = (
{
closed = 1;
nodes = (
(295,972,ls),
(295,938.15,o),
(291.559,904.264,o),
(284.5,860.5,cs),
(277.818,819.071,o),
(269.804,773.218,o),
(257.5,724,cs),
(254.5,712,o),
(251.5,699.833,o),
(248.5,687.5,cs),
(245.5,675.167,o),
(242.333,662.667,o),
(239,650,c),
(259,650,l),
(264.276,674.622,o),
(281.727,741.18,o),
(292.5,773.5,cs),
(313.837,837.51,o),
(314.747,841.869,o),
(338,900,cs),
(346,920,o),
(354,939.667,o),
(362,957,cs),
(470,1190,l),
(705,1190,l),
(480,724,l),
(725,0,l),
(490,0,l),
(333,464,l),
(295,408,l),
(295,0,l),
(60,0,l),
(60,1190,l),
(295,1190,l),
(295,1190,l)
);
},
{
closed = 1;
nodes = (
(326,-70,l),
(517,-70,l),
(394,-380,l),
(229,-380,l),
(229,-380,l)
);
}
);
};
layerId = "4B056265-F7A9-4FE5-8F86-068480F74FC7";
shapes = (
{
ref = K;
},
{
pos = (116,0);
ref = commaaccentcomb;
}
);
width = 745;
}
);
unicode = 310;
},
{
glyphname = L;
kernRight = L;
lastChange = "2025-02-19 14:28:44 +0000";
layers = (
{
anchors = (
{
name = bottom;
pos = (285,0);
},
{
name = center;
pos = (285,595);
},
{
name = top;
pos = (187,1190);
},
{
name = topright;
pos = (530,1190);
}
);
background = {
anchors = (
{
name = bottom;
pos = (285,0);
},
{
name = center;
pos = (285,595);
},
{
name = top;
pos = (285,1190);
},
{
name = topright;
pos = (550,1190);
}
);
shapes = (
{
closed = 1;
nodes = (
(60,1190,l),
(295,1190,l),
(295,220,l),
(540,220,l),
(540,0,l),
(60,0,l),
(60,0,l)
);
}
);
};
layerId = "4B056265-F7A9-4FE5-8F86-068480F74FC7";
shapes = (
{
closed = 1;
nodes = (
(60,1190,l),
(295,1190,l),
(295,220,l),
(540,220,l),
(540,0,l),
(60,0,l),
(60,0,l)
);
}
);
width = 570;
}
);
unicode = 76;
},
{
color = 4;
glyphname = Lacute;
kernRight = L;
lastChange = "2025-02-19 14:28:47 +0000";
layers = (
{
background = {
shapes = (
{
closed = 1;
nodes = (
(60,1190,l),
(295,1190,l),
(295,220,l),
(540,220,l),
(540,0,l),
(60,0,l),
(60,0,l)
);
},
{
closed = 1;
nodes = (
(60,1250,l),
(198,1561,l),
(415,1561,l),
(232,1250,l),
(232,1250,l)
);
}
);
};
layerId = "4B056265-F7A9-4FE5-8F86-068480F74FC7";
shapes = (
{
ref = L;
},
{
pos = (76,0);
ref = acutecomb.case;
}
);
width = 570;
}
);
unicode = 313;
},
{
color = 4;
glyphname = Lcaron;
kernRight = L;
lastChange = "2025-02-19 14:28:47 +0000";
layers = (
{
background = {
shapes = (
{
closed = 1;
nodes = (
(60,1190,l),
(295,1190,l),
(295,220,l),
(540,220,l),
(540,0,l),
(60,0,l),
(60,0,l)
);
},
{
closed = 1;
nodes = (
(322,1210,l),
(465,1210,l),
(455,918,l),
(332,918,l),
(332,918,l)
);
}
);
};
layerId = "4B056265-F7A9-4FE5-8F86-068480F74FC7";
shapes = (
{
ref = L;
},
{
pos = (310,-20);
ref = caron.alt;
}
);
width = 570;
}
);
unicode = 317;
},
{
color = 4;
glyphname = Lcommaaccent;
kernRight = L;
lastChange = "2025-02-19 14:33:57 +0000";
layers = (
{
background = {
shapes = (
{
closed = 1;
nodes = (
(60,1190,l),
(295,1190,l),
(295,220,l),
(540,220,l),
(540,0,l),
(60,0,l),
(60,0,l)
);
},
{
closed = 1;
nodes = (
(238,-70,l),
(429,-70,l),
(306,-380,l),
(141,-380,l),
(141,-380,l)
);
}
);
};
layerId = "4B056265-F7A9-4FE5-8F86-068480F74FC7";
shapes = (
{
ref = L;
},
{
pos = (28,0);
ref = commaaccentcomb;
}
);
width = 570;
}
);
unicode = 315;
},
{
color = 3;
glyphname = Ldot;
kernRight = L;
lastChange = "2025-02-19 14:29:07 +0000";
layers = (
{
background = {
shapes = (
{
closed = 1;
nodes = (
(60,1190,l),
(295,1190,l),
(295,220,l),
(540,220,l),
(540,0,l),
(60,0,l),
(60,0,l)
);
},
{
closed = 1;
nodes = (
(418,355,o),
(394,360,o),
(372,376,cs),
(352,390,o),
(337,411,o),
(332,431,cs),
(328,442,o),
(326,454,o),
(326,466,cs),
(326,491,o),
(333,514,o),
(348,532,cs),
(361,549,o),
(379,565,o),
(403,572,cs),
(414,575,o),
(426,577,o),
(438,577,cs),
(464,577,o),
(485,569,o),
(503,556,cs),
(520,544,o),
(536,524,o),
(543,502,cs),
(546,490,o),
(548,478,o),
(548,466,cs),
(548,446,o),
(543,422,o),
(527,400,cs),
(515,383,o),
(495,367,o),
(473,361,cs),
(462,357,o),
(450,355,o),
(438,355,cs)
);
}
);
};
layerId = "4B056265-F7A9-4FE5-8F86-068480F74FC7";
shapes = (
{
alignment = -1;
ref = L;
},
{
pos = (325,48);
ref = periodcentered;
}
);
width = 620;
}
);
unicode = 319;
},
{
glyphname = Lslash;
kernRight = L;
lastChange = "2025-02-19 14:56:54 +0000";
layers = (
{
background = {
shapes = (
{
closed = 1;
nodes = (
(0,470,l),
(131,491,l),
(131,1190,l),
(366,1190,l),
(366,529,l),
(487,549,l),
(516,371,l),
(366,347,l),
(366,220,l),
(611,220,l),
(611,0,l),
(131,0,l),
(131,309,l),
(29,292,l),
(29,292,l)
);
}
);
};
layerId = "4B056265-F7A9-4FE5-8F86-068480F74FC7";
shapes = (
{
closed = 1;
nodes = (
(0,470,l),
(131,491,l),
(131,1190,l),
(366,1190,l),
(366,529,l),
(487,549,l),
(516,371,l),
(366,347,l),
(366,220,l),
(611,220,l),
(611,0,l),
(131,0,l),
(131,309,l),
(29,292,l),
(29,292,l)
);
}
);
width = 641;
}
);
unicode = 321;
},
{
glyphname = M;
lastChange = "2025-02-19 14:22:40 +0000";
layers = (
{
anchors = (
{
name = bottom;
pos = (510,0);
},
{
name = top;
pos = (510,1190);
}
);
background = {
anchors = (
{
name = bottom;
pos = (510,0);
},
{
name = top;
pos = (510,1190);
}
);
shapes = (
{
closed = 1;
nodes = (
(467,714,ls),
(476.994,654.037,o),
(483.221,582.795,o),
(489,499,cs),
(495.651,402.563,o),
(495.589,363.128,o),
(499,262.5,cs),
(499.667,242.833,o),
(500,223.667,o),
(500,205,cs),
(500,186.333,o),
(500,168,o),
(500,150,c),
(520,150,l),
(520,223.65,o),
(522.324,301.559,o),
(525,380.5,cs),
(527.851,464.597,o),
(533.094,539.026,o),
(541,611.5,cs),
(545,648.167,o),
(548.667,682,o),
(554,714,cs),
(629,1190,l),
(960,1190,l),
(960,0,l),
(725,0,l),
(725,141,ls),
(725,244.879,o),
(730.653,378.201,o),
(739.5,497,cs),
(748.887,623.053,o),
(760.423,748.227,o),
(772.5,869,cs),
(775.5,899,o),
(778.5,928.333,o),
(781.5,957,cs),
(784.5,985.667,o),
(787.333,1013.333,o),
(790,1040,c),
(770,1040,l),
(757.515,915.154,o),
(744.519,823.561,o),
(725.5,687.5,cs),
(709.798,575.169,o),
(684.635,426.99,o),
(665,319,cs),
(659.667,289.667,o),
(654.167,261,o),
(648.5,233,cs),
(642.833,205,o),
(637.333,177.667,o),
(632,151,cs),
(600,0,l),
(420,0,l),
(388,151,ls),
(363.811,271.947,o),
(346.663,358.933,o),
(323.5,501,cs),
(300.031,644.941,o),
(281.235,774.552,o),
(269.5,869.5,cs),
(262.167,928.833,o),
(255.333,986.667,o),
(250,1040,c),
(230,1040,l),
(240.322,936.779,o),
(253.628,818.624,o),
(265,685,cs),
(277.271,540.813,o),
(284.506,456.999,o),
(291,312.5,cs),
(293.667,253.167,o),
(295,194.333,o),
(295,141,cs),
(295,0,l),
(60,0,l),
(60,1190,l),
(391,1190,l),
(391,1190,l)
);
}
);
};
layerId = "4B056265-F7A9-4FE5-8F86-068480F74FC7";
shapes = (
{
closed = 1;
nodes = (
(467,714,ls),
(476.994,654.037,o),
(483.221,582.795,o),
(489,499,cs),
(495.651,402.563,o),
(495.589,363.128,o),
(499,262.5,cs),
(499.667,242.833,o),
(500,223.667,o),
(500,205,cs),
(500,186.333,o),
(500,168,o),
(500,150,c),
(520,150,l),
(520,223.65,o),
(522.324,301.559,o),
(525,380.5,cs),
(527.851,464.597,o),
(533.094,539.026,o),
(541,611.5,cs),
(545,648.167,o),
(548.667,682,o),
(554,714,cs),
(629,1190,l),
(960,1190,l),
(960,0,l),
(725,0,l),
(725,141,ls),
(725,244.879,o),
(730.653,378.201,o),
(739.5,497,cs),
(748.887,623.053,o),
(760.423,748.227,o),
(772.5,869,cs),
(775.5,899,o),
(778.5,928.333,o),
(781.5,957,cs),
(784.5,985.667,o),
(787.333,1013.333,o),
(790,1040,c),
(770,1040,l),
(757.515,915.154,o),
(744.519,823.561,o),
(725.5,687.5,cs),
(709.798,575.169,o),
(684.635,426.99,o),
(665,319,cs),
(659.667,289.667,o),
(654.167,261,o),
(648.5,233,cs),
(642.833,205,o),
(637.333,177.667,o),
(632,151,cs),
(600,0,l),
(420,0,l),
(388,151,ls),
(363.811,271.947,o),
(346.663,358.933,o),
(323.5,501,cs),
(300.031,644.941,o),
(281.235,774.552,o),
(269.5,869.5,cs),
(262.167,928.833,o),
(255.333,986.667,o),
(250,1040,c),
(230,1040,l),
(240.322,936.779,o),
(253.628,818.624,o),
(265,685,cs),
(277.271,540.813,o),
(284.506,457,o),
(291,312.5,cs),
(293.667,253.167,o),
(295,194.333,o),
(295,141,cs),
(295,0,l),
(60,0,l),
(60,1190,l),
(391,1190,l),
(391,1190,l)
);
}
);
width = 1020;
}
);
unicode = 77;
},
{
glyphname = N;
lastChange = "2025-02-19 14:22:40 +0000";
layers = (
{
anchors = (
{
name = bottom;
pos = (403,0);
},
{
name = top;
pos = (403,1190);
}
);
background = {
anchors = (
{
name = bottom;
pos = (403,0);
},
{
name = top;
pos = (403,1190);
}
);
shapes = (
{
closed = 1;
nodes = (
(295,0,l),
(60,0,l),
(60,1190,l),
(335,1190,l),
(424,870,ls),
(447.045,788.062,o),
(477.064,666.887,o),
(494,587.5,cs),
(517.449,477.584,o),
(535.517,387.597,o),
(553.5,288,cs),
(557.833,264,o),
(561.667,240.5,o),
(565,217.5,cs),
(568.333,194.5,o),
(571.667,172,o),
(575,150,c),
(595,150,l),
(579.042,255.32,o),
(568.026,316.815,o),
(550.5,439.5,cs),
(537.75,528.75,o),
(521.201,661.627,o),
(515.5,746,cs),
(512.167,795.333,o),
(510,843,o),
(510,887,cs),
(510,1190,l),
(745,1190,l),
(745,0,l),
(485,0,l),
(393,309,ls),
(373.705,372.673,o),
(340.536,493.542,o),
(316,598.5,cs),
(293.162,696.196,o),
(269.437,802.659,o),
(251.5,902,cs),
(242.833,950,o),
(234.667,997.333,o),
(228,1040,c),
(208,1040,l),
(221.629,952.777,o),
(238.351,856.421,o),
(253.5,749,cs),
(268.122,645.319,o),
(282.832,537.347,o),
(289.5,436,cs),
(292.833,385.333,o),
(295,336.333,o),
(295,291,cs)
);
}
);
};
layerId = "4B056265-F7A9-4FE5-8F86-068480F74FC7";
shapes = (
{
closed = 1;
nodes = (
(295,0,l),
(60,0,l),
(60,1190,l),
(335,1190,l),
(424,870,ls),
(447.045,788.062,o),
(477.064,666.887,o),
(494,587.5,cs),
(517.449,477.584,o),
(535.517,387.597,o),
(553.5,288,cs),
(557.833,264,o),
(561.667,240.5,o),
(565,217.5,cs),
(568.333,194.5,o),
(571.667,172,o),
(575,150,c),
(595,150,l),
(579.042,255.32,o),
(568.026,316.815,o),
(550.5,439.5,cs),
(537.75,528.75,o),
(521.201,661.627,o),
(515.5,746,cs),
(512.167,795.333,o),
(510,843,o),
(510,887,cs),
(510,1190,l),
(745,1190,l),
(745,0,l),
(485,0,l),
(393,309,ls),
(373.705,372.673,o),
(340.536,493.542,o),
(316,598.5,cs),
(293.162,696.196,o),
(269.437,802.659,o),
(251.5,902,cs),
(242.833,950,o),
(234.667,997.333,o),
(228,1040,c),
(208,1040,l),
(221.629,952.777,o),
(238.351,856.421,o),
(253.5,749,cs),
(268.122,645.319,o),
(282.832,537.347,o),
(289.5,436,cs),
(292.833,385.333,o),
(295,336.333,o),
(295,291,cs)
);
}
);
width = 805;
}
);
unicode = 78;
},
{
color = 4;
glyphname = Nacute;
lastChange = "2025-02-19 14:29:17 +0000";
layers = (
{
background = {
shapes = (
{
closed = 1;
nodes = (
(295,0,l),
(60,0,l),
(60,1190,l),
(335,1190,l),
(424,870,ls),
(447.045,788.062,o),
(477.064,666.887,o),
(494,587.5,cs),
(517.449,477.584,o),
(535.517,387.597,o),
(553.5,288,cs),
(557.833,264,o),
(561.667,240.5,o),
(565,217.5,cs),
(568.333,194.5,o),
(571.667,172,o),
(575,150,c),
(595,150,l),
(579.042,255.32,o),
(568.026,316.815,o),
(550.5,439.5,cs),
(537.75,528.75,o),
(521.201,661.627,o),
(515.5,746,cs),
(512.167,795.333,o),
(510,843,o),
(510,887,cs),
(510,1190,l),
(745,1190,l),
(745,0,l),
(485,0,l),
(393,309,ls),
(373.705,372.673,o),
(340.536,493.542,o),
(316,598.5,cs),
(293.162,696.196,o),
(269.437,802.659,o),
(251.5,902,cs),
(242.833,950,o),
(234.667,997.333,o),
(228,1040,c),
(208,1040,l),
(221.629,952.777,o),
(238.351,856.421,o),
(253.5,749,cs),
(268.122,645.319,o),
(282.832,537.347,o),
(289.5,436,cs),
(292.833,385.333,o),
(295,336.333,o),
(295,291,cs)
);
},
{
closed = 1;
nodes = (
(247,1250,l),
(385,1561,l),
(602,1561,l),
(419,1250,l),
(419,1250,l)
);
}
);
};
layerId = "4B056265-F7A9-4FE5-8F86-068480F74FC7";
shapes = (
{
ref = N;
},
{
pos = (292,0);
ref = acutecomb.case;
}
);
width = 805;
}
);
unicode = 323;
},
{
color = 4;
glyphname = Ncaron;
lastChange = "2025-02-19 14:29:17 +0000";
layers = (
{
background = {
shapes = (
{
closed = 1;
nodes = (
(295,0,l),
(60,0,l),
(60,1190,l),
(335,1190,l),
(424,870,ls),
(447.045,788.062,o),
(477.064,666.887,o),
(494,587.5,cs),
(517.449,477.584,o),
(535.517,387.597,o),
(553.5,288,cs),
(557.833,264,o),
(561.667,240.5,o),
(565,217.5,cs),
(568.333,194.5,o),
(571.667,172,o),
(575,150,c),
(595,150,l),
(579.042,255.32,o),
(568.026,316.815,o),
(550.5,439.5,cs),
(537.75,528.75,o),
(521.201,661.627,o),
(515.5,746,cs),
(512.167,795.333,o),
(510,843,o),
(510,887,cs),
(510,1190,l),
(745,1190,l),
(745,0,l),
(485,0,l),
(393,309,ls),
(373.705,372.673,o),
(340.536,493.542,o),
(316,598.5,cs),
(293.162,696.196,o),
(269.437,802.659,o),
(251.5,902,cs),
(242.833,950,o),
(234.667,997.333,o),
(228,1040,c),
(208,1040,l),
(221.629,952.777,o),
(238.351,856.421,o),
(253.5,749,cs),
(268.122,645.319,o),
(282.832,537.347,o),
(289.5,436,cs),
(292.833,385.333,o),
(295,336.333,o),
(295,291,cs)
);
},
{
closed = 1;
nodes = (
(160,1545,l),
(318,1545,l),
(403,1395,l),
(489,1545,l),
(646,1545,l),
(521,1250,l),
(286,1250,l),
(286,1250,l)
);
}
);
};
layerId = "4B056265-F7A9-4FE5-8F86-068480F74FC7";
shapes = (
{
ref = N;
},
{
pos = (265,0);
ref = caroncomb.case;
}
);
width = 805;
}
);
unicode = 327;
},
{
color = 4;
glyphname = Ncommaaccent;
lastChange = "2025-02-19 14:33:57 +0000";
layers = (
{
background = {
shapes = (
{
closed = 1;
nodes = (
(295,0,l),
(60,0,l),
(60,1190,l),
(335,1190,l),
(424,870,ls),
(447.045,788.062,o),
(477.064,666.887,o),
(494,587.5,cs),
(517.449,477.584,o),
(535.517,387.597,o),
(553.5,288,cs),
(557.833,264,o),
(561.667,240.5,o),
(565,217.5,cs),
(568.333,194.5,o),
(571.667,172,o),
(575,150,c),
(595,150,l),
(579.042,255.32,o),
(568.026,316.815,o),
(550.5,439.5,cs),
(537.75,528.75,o),
(521.201,661.627,o),
(515.5,746,cs),
(512.167,795.333,o),
(510,843,o),
(510,887,cs),
(510,1190,l),
(745,1190,l),
(745,0,l),
(485,0,l),
(393,309,ls),
(373.705,372.673,o),
(340.536,493.542,o),
(316,598.5,cs),
(293.162,696.196,o),
(269.437,802.659,o),
(251.5,902,cs),
(242.833,950,o),
(234.667,997.333,o),
(228,1040,c),
(208,1040,l),
(221.629,952.777,o),
(238.351,856.421,o),
(253.5,749,cs),
(268.122,645.319,o),
(282.832,537.347,o),
(289.5,436,cs),
(292.833,385.333,o),
(295,336.333,o),
(295,291,cs)
);
},
{
closed = 1;
nodes = (
(356,-70,l),
(547,-70,l),
(424,-380,l),
(259,-380,l),
(259,-380,l)
);
}
);
};
layerId = "4B056265-F7A9-4FE5-8F86-068480F74FC7";
shapes = (
{
ref = N;
},
{
pos = (146,0);
ref = commaaccentcomb;
}
);
width = 805;
}
);
unicode = 325;
},
{
color = 4;
glyphname = Ntilde;
lastChange = "2025-02-19 14:29:17 +0000";
layers = (
{
background = {
shapes = (
{
closed = 1;
nodes = (
(295,0,l),
(60,0,l),
(60,1190,l),
(335,1190,l),
(424,870,ls),
(447.045,788.062,o),
(477.064,666.887,o),
(494,587.5,cs),
(517.449,477.584,o),
(535.517,387.597,o),
(553.5,288,cs),
(557.833,264,o),
(561.667,240.5,o),
(565,217.5,cs),
(568.333,194.5,o),
(571.667,172,o),
(575,150,c),
(595,150,l),
(579.042,255.32,o),
(568.026,316.815,o),
(550.5,439.5,cs),
(537.75,528.75,o),
(521.201,661.627,o),
(515.5,746,cs),
(512.167,795.333,o),
(510,843,o),
(510,887,cs),
(510,1190,l),
(745,1190,l),
(745,0,l),
(485,0,l),
(393,309,ls),
(373.705,372.673,o),
(340.536,493.542,o),
(316,598.5,cs),
(293.162,696.196,o),
(269.437,802.659,o),
(251.5,902,cs),
(242.833,950,o),
(234.667,997.333,o),
(228,1040,c),
(208,1040,l),
(221.629,952.777,o),
(238.351,856.421,o),
(253.5,749,cs),
(268.122,645.319,o),
(282.832,537.347,o),
(289.5,436,cs),
(292.833,385.333,o),
(295,336.333,o),
(295,291,cs)
);
},
{
closed = 1;
nodes = (
(163,1250,l),
(163,1307.219,o),
(170.624,1358.385,o),
(184,1394.5,cs),
(196.212,1427.472,o),
(220.094,1458.183,o),
(246.5,1469.5,cs),
(260.5,1475.5,o),
(274.667,1479,o),
(292,1479,cs),
(324.02,1479,o),
(349.669,1467.166,o),
(373,1455.5,cs),
(393.885,1445.058,o),
(413.6,1429.108,o),
(435.5,1419,cs),
(444.167,1415,o),
(452,1412,o),
(460,1412,cs),
(483.641,1412,o),
(500,1441.829,o),
(500,1479,c),
(650,1479,l),
(650,1325.667,o),
(608,1250,o),
(520,1250,cs),
(495.248,1250,o),
(467.146,1256.409,o),
(439,1274,cs),
(422.212,1284.493,o),
(399.044,1302.441,o),
(380.5,1311,cs),
(371.833,1315,o),
(363,1318,o),
(355,1318,cs),
(345.964,1318,o),
(335.229,1312.875,o),
(329.5,1306,cs),
(321.689,1296.627,o),
(318.975,1287.873,o),
(316,1273,cs),
(314.667,1266.333,o),
(314,1258,o),
(314,1250,c)
);
}
);
};
layerId = "4B056265-F7A9-4FE5-8F86-068480F74FC7";
shapes = (
{
ref = N;
},
{
pos = (253,0);
ref = tildecomb.case;
}
);
width = 805;
}
);
unicode = 209;
},
{
glyphname = O;
kernLeft = C2;
kernRight = C;
lastChange = "2025-02-19 14:22:40 +0000";
layers = (
{
anchors = (
{
name = bottom;
pos = (632,0);
},
{
name = center;
pos = (632,595);
},
{
name = ogonek;
pos = (1137,10);
},
{
name = top;
pos = (632,1190);
},
{
name = topleft;
pos = (20,1190);
},
{
name = topright;
pos = (1243,1190);
}
);
background = {
anchors = (
{
name = bottom;
pos = (632,0);
},
{
name = center;
pos = (632,595);
},
{
name = ogonek;
pos = (1137,10);
},
{
name = top;
pos = (632,1190);
},
{
name = topleft;
pos = (20,1190);
},
{
name = topright;
pos = (1243,1190);
}
);
shapes = (
{
closed = 1;
nodes = (
(30,734.606,o),
(74.115,853.429,o),
(147.5,953.5,cs),
(221.215,1054.02,o),
(326.228,1129.47,o),
(443.5,1169,cs),
(502.833,1189,o),
(566.667,1200,o),
(632,1200,cs),
(766.071,1200,o),
(886.81,1155.139,o),
(984.5,1083.5,cs),
(1098.019,1000.253,o),
(1167.692,891.279,o),
(1202,789.5,cs),
(1222,730.167,o),
(1233,667.333,o),
(1233,602,cs),
(1233,471.621,o),
(1190.396,343.11,o),
(1116.5,241,cs),
(1042.786,139.141,o),
(937.778,62.349,o),
(820.5,21.5,cs),
(761.167,0.833,o),
(697.333,-10,o),
(632,-10,cs),
(498.808,-10,o),
(376.524,35.062,o),
(277.5,109,cs),
(177.977,183.31,o),
(102.587,283.354,o),
(61,409.5,cs),
(41,470.167,o),
(30,535.333,o),
(30,602,cs)
);
},
{
closed = 1;
nodes = (
(265,519.191,o),
(292.195,436.055,o),
(336,375.5,cs),
(383.694,309.57,o),
(447.109,263.471,o),
(516.5,239.5,cs),
(553.167,226.833,o),
(593,220,o),
(633,220,cs),
(713.49,220,o),
(788.283,248.063,o),
(848,293.5,cs),
(908.26,339.35,o),
(954.397,403.457,o),
(979,480,cs),
(991,517.333,o),
(998,557.333,o),
(998,600,cs),
(998,678.972,o),
(970.952,757.535,o),
(927,817,cs),
(878.971,881.981,o),
(821.6,924.252,o),
(747,950.5,cs),
(711,963.167,o),
(673,970,o),
(633,970,cs),
(568.483,970,o),
(491.19,952.836,o),
(417,898,cs),
(356.306,853.139,o),
(308.212,790.481,o),
(284,716.5,cs),
(272,679.833,o),
(265,640,o),
(265,600,cs)
);
}
);
};
layerId = "4B056265-F7A9-4FE5-8F86-068480F74FC7";
shapes = (
{
closed = 1;
nodes = (
(30,734.606,o),
(74.115,853.429,o),
(147.5,953.5,cs),
(221.215,1054.02,o),
(326.228,1129.47,o),
(443.5,1169,cs),
(502.833,1189,o),
(566.667,1200,o),
(632,1200,cs),
(766.071,1200,o),
(886.81,1155.139,o),
(984.5,1083.5,cs),
(1098.019,1000.253,o),
(1167.692,891.279,o),
(1202,789.5,cs),
(1222,730.167,o),
(1233,667.333,o),
(1233,602,cs),
(1233,471.621,o),
(1190.396,343.11,o),
(1116.5,241,cs),
(1042.786,139.141,o),
(937.778,62.349,o),
(820.5,21.5,cs),
(761.167,0.833,o),
(697.333,-10,o),
(632,-10,cs),
(498.808,-10,o),
(376.524,35.062,o),
(277.5,109,cs),
(177.977,183.31,o),
(102.587,283.354,o),
(61,409.5,cs),
(41,470.167,o),
(30,535.333,o),
(30,602,cs)
);
},
{
closed = 1;
nodes = (
(265,519.191,o),
(292.195,436.055,o),
(336,375.5,cs),
(383.694,309.57,o),
(447.109,263.471,o),
(516.5,239.5,cs),
(553.167,226.833,o),
(593,220,o),
(633,220,cs),
(713.49,220,o),
(788.283,248.063,o),
(848,293.5,cs),
(908.26,339.35,o),
(954.397,403.457,o),
(979,480,cs),
(991,517.333,o),
(998,557.333,o),
(998,600,cs),
(998,678.972,o),
(970.952,757.535,o),
(927,817,cs),
(878.971,881.981,o),
(821.6,924.252,o),
(747,950.5,cs),
(711,963.167,o),
(673,970,o),
(633,970,cs),
(568.483,970,o),
(491.19,952.836,o),
(417,898,cs),
(356.306,853.139,o),
(308.212,790.481,o),
(284,716.5,cs),
(272,679.833,o),
(265,640,o),
(265,600,cs)
);
}
);
width = 1263;
}
);
unicode = 79;
},
{
color = 4;
glyphname = Oacute;
kernLeft = C2;
kernRight = C;
lastChange = "2025-02-19 14:29:24 +0000";
layers = (
{
background = {
shapes = (
{
closed = 1;
nodes = (
(30,734.606,o),
(74.115,853.429,o),
(147.5,953.5,cs),
(221.215,1054.02,o),
(326.228,1129.47,o),
(443.5,1169,cs),
(502.833,1189,o),
(566.667,1200,o),
(632,1200,cs),
(766.071,1200,o),
(886.81,1155.139,o),
(984.5,1083.5,cs),
(1098.019,1000.253,o),
(1167.692,891.279,o),
(1202,789.5,cs),
(1222,730.167,o),
(1233,667.333,o),
(1233,602,cs),
(1233,471.621,o),
(1190.396,343.11,o),
(1116.5,241,cs),
(1042.786,139.141,o),
(937.778,62.349,o),
(820.5,21.5,cs),
(761.167,0.833,o),
(697.333,-10,o),
(632,-10,cs),
(498.808,-10,o),
(376.524,35.062,o),
(277.5,109,cs),
(177.977,183.31,o),
(102.587,283.354,o),
(61,409.5,cs),
(41,470.167,o),
(30,535.333,o),
(30,602,cs)
);
},
{
closed = 1;
nodes = (
(476,1250,l),
(614,1561,l),
(831,1561,l),
(648,1250,l),
(648,1250,l)
);
},
{
closed = 1;
nodes = (
(265,519.191,o),
(292.195,436.055,o),
(336,375.5,cs),
(383.694,309.57,o),
(447.109,263.471,o),
(516.5,239.5,cs),
(553.167,226.833,o),
(593,220,o),
(633,220,cs),
(713.49,220,o),
(788.283,248.063,o),
(848,293.5,cs),
(908.26,339.35,o),
(954.397,403.457,o),
(979,480,cs),
(991,517.333,o),
(998,557.333,o),
(998,600,cs),
(998,678.972,o),
(970.952,757.535,o),
(927,817,cs),
(878.971,881.981,o),
(821.6,924.252,o),
(747,950.5,cs),
(711,963.167,o),
(673,970,o),
(633,970,cs),
(568.483,970,o),
(491.19,952.836,o),
(417,898,cs),
(356.306,853.139,o),
(308.212,790.481,o),
(284,716.5,cs),
(272,679.833,o),
(265,640,o),
(265,600,cs)
);
}
);
};
layerId = "4B056265-F7A9-4FE5-8F86-068480F74FC7";
shapes = (
{
ref = O;
},
{
pos = (521,0);
ref = acutecomb.case;
}
);
width = 1263;
}
);
unicode = 211;
},
{
color = 4;
glyphname = Obreve;
kernLeft = C2;
kernRight = C;
lastChange = "2025-02-19 14:29:24 +0000";
layers = (
{
background = {
shapes = (
{
closed = 1;
nodes = (
(30,734.606,o),
(74.115,853.429,o),
(147.5,953.5,cs),
(221.215,1054.02,o),
(326.228,1129.47,o),
(443.5,1169,cs),
(502.833,1189,o),
(566.667,1200,o),
(632,1200,cs),
(766.071,1200,o),
(886.81,1155.139,o),
(984.5,1083.5,cs),
(1098.019,1000.253,o),
(1167.692,891.279,o),
(1202,789.5,cs),
(1222,730.167,o),
(1233,667.333,o),
(1233,602,cs),
(1233,471.621,o),
(1190.396,343.11,o),
(1116.5,241,cs),
(1042.786,139.141,o),
(937.778,62.349,o),
(820.5,21.5,cs),
(761.167,0.833,o),
(697.333,-10,o),
(632,-10,cs),
(498.808,-10,o),
(376.524,35.062,o),
(277.5,109,cs),
(177.977,183.31,o),
(102.587,283.354,o),
(61,409.5,cs),
(41,470.167,o),
(30,535.333,o),
(30,602,cs)
);
},
{
closed = 1;
nodes = (
(853,1482,l),
(853,1421.925,o),
(833.974,1376.362,o),
(812,1344.5,cs),
(786.701,1307.816,o),
(751.374,1277.125,o),
(704.5,1261.5,cs),
(682.5,1254.167,o),
(658.333,1250,o),
(633,1250,cs),
(583.495,1250,o),
(538.397,1265.91,o),
(503,1294.5,cs),
(465.354,1324.907,o),
(441.852,1360.55,o),
(426.5,1408,cs),
(419.167,1430.667,o),
(416,1455.333,o),
(416,1482,c),
(565,1482,l),
(565,1466.642,o),
(569.872,1448.692,o),
(578,1436.5,cs),
(588.338,1420.993,o),
(598.705,1414.318,o),
(612,1409,cs),
(618.667,1406.333,o),
(626,1405,o),
(634,1405,cs),
(647.272,1405,o),
(665.084,1409.949,o),
(676,1419.5,cs),
(687.31,1429.396,o),
(696.522,1442.915,o),
(700.5,1457.5,cs),
(702.5,1464.833,o),
(704,1474,o),
(704,1482,c)
);
},
{
closed = 1;
nodes = (
(265,519.191,o),
(292.195,436.055,o),
(336,375.5,cs),
(383.694,309.57,o),
(447.109,263.471,o),
(516.5,239.5,cs),
(553.167,226.833,o),
(593,220,o),
(633,220,cs),
(713.49,220,o),
(788.283,248.063,o),
(848,293.5,cs),
(908.26,339.35,o),
(954.397,403.457,o),
(979,480,cs),
(991,517.333,o),
(998,557.333,o),
(998,600,cs),
(998,678.972,o),
(970.952,757.535,o),
(927,817,cs),
(878.971,881.981,o),
(821.6,924.252,o),
(747,950.5,cs),
(711,963.167,o),
(673,970,o),
(633,970,cs),
(568.483,970,o),
(491.19,952.836,o),
(417,898,cs),
(356.306,853.139,o),
(308.212,790.481,o),
(284,716.5,cs),
(272,679.833,o),
(265,640,o),
(265,600,cs)
);
}
);
};
layerId = "4B056265-F7A9-4FE5-8F86-068480F74FC7";
shapes = (
{
ref = O;
},
{
pos = (482,0);
ref = brevecomb.case;
}
);
width = 1263;
}
);
unicode = 334;
},
{
color = 4;
glyphname = Ocircumflex;
kernLeft = C2;
kernRight = C;
lastChange = "2025-02-19 14:29:24 +0000";
layers = (
{
background = {
shapes = (
{
closed = 1;
nodes = (
(30,734.606,o),
(74.115,853.429,o),
(147.5,953.5,cs),
(221.215,1054.02,o),
(326.228,1129.47,o),
(443.5,1169,cs),
(502.833,1189,o),
(566.667,1200,o),
(632,1200,cs),
(766.071,1200,o),
(886.81,1155.139,o),
(984.5,1083.5,cs),
(1098.019,1000.253,o),
(1167.692,891.279,o),
(1202,789.5,cs),
(1222,730.167,o),
(1233,667.333,o),
(1233,602,cs),
(1233,471.621,o),
(1190.396,343.11,o),
(1116.5,241,cs),
(1042.786,139.141,o),
(937.778,62.349,o),
(820.5,21.5,cs),
(761.167,0.833,o),
(697.333,-10,o),
(632,-10,cs),
(498.808,-10,o),
(376.524,35.062,o),
(277.5,109,cs),
(177.977,183.31,o),
(102.587,283.354,o),
(61,409.5,cs),
(41,470.167,o),
(30,535.333,o),
(30,602,cs)
);
},
{
closed = 1;
nodes = (
(510,1555,l),
(754,1555,l),
(884,1250,l),
(721,1250,l),
(633,1405,l),
(544,1250,l),
(380,1250,l),
(380,1250,l)
);
},
{
closed = 1;
nodes = (
(265,519.191,o),
(292.195,436.055,o),
(336,375.5,cs),
(383.694,309.57,o),
(447.109,263.471,o),
(516.5,239.5,cs),
(553.167,226.833,o),
(593,220,o),
(633,220,cs),
(713.49,220,o),
(788.283,248.063,o),
(848,293.5,cs),
(908.26,339.35,o),
(954.397,403.457,o),
(979,480,cs),
(991,517.333,o),
(998,557.333,o),
(998,600,cs),
(998,678.972,o),
(970.952,757.535,o),
(927,817,cs),
(878.971,881.981,o),
(821.6,924.252,o),
(747,950.5,cs),
(711,963.167,o),
(673,970,o),
(633,970,cs),
(568.483,970,o),
(491.19,952.836,o),
(417,898,cs),
(356.306,853.139,o),
(308.212,790.481,o),
(284,716.5,cs),
(272,679.833,o),
(265,640,o),
(265,600,cs)
);
}
);
};
layerId = "4B056265-F7A9-4FE5-8F86-068480F74FC7";
shapes = (
{
ref = O;
},
{
pos = (518,0);
ref = circumflexcomb.case;
}
);
width = 1263;
}
);
unicode = 212;
},
{
color = 4;
glyphname = Odieresis;
kernLeft = C2;
kernRight = C;
lastChange = "2025-02-19 14:29:24 +0000";
layers = (
{
background = {
shapes = (
{
closed = 1;
nodes = (
(30,734.606,o),
(74.115,853.429,o),
(147.5,953.5,cs),
(221.215,1054.02,o),
(326.228,1129.47,o),
(443.5,1169,cs),
(502.833,1189,o),
(566.667,1200,o),
(632,1200,cs),
(766.071,1200,o),
(886.81,1155.139,o),
(984.5,1083.5,cs),
(1098.019,1000.253,o),
(1167.692,891.279,o),
(1202,789.5,cs),
(1222,730.167,o),
(1233,667.333,o),
(1233,602,cs),
(1233,471.621,o),
(1190.396,343.11,o),
(1116.5,241,cs),
(1042.786,139.141,o),
(937.778,62.349,o),
(820.5,21.5,cs),
(761.167,0.833,o),
(697.333,-10,o),
(632,-10,cs),
(498.808,-10,o),
(376.524,35.062,o),
(277.5,109,cs),
(177.977,183.31,o),
(102.587,283.354,o),
(61,409.5,cs),
(41,470.167,o),
(30,535.333,o),
(30,602,cs)
);
},
{
closed = 1;
nodes = (
(265,519.191,o),
(292.195,436.055,o),
(336,375.5,cs),
(383.694,309.57,o),
(447.109,263.471,o),
(516.5,239.5,cs),
(553.167,226.833,o),
(593,220,o),
(633,220,cs),
(713.49,220,o),
(788.283,248.063,o),
(848,293.5,cs),
(908.26,339.35,o),
(954.397,403.457,o),
(979,480,cs),
(991,517.333,o),
(998,557.333,o),
(998,600,cs),
(998,678.972,o),
(970.952,757.535,o),
(927,817,cs),
(878.971,881.981,o),
(821.6,924.252,o),
(747,950.5,cs),
(711,963.167,o),
(673,970,o),
(633,970,cs),
(568.483,970,o),
(491.19,952.836,o),
(417,898,cs),
(356.306,853.139,o),
(308.212,790.481,o),
(284,716.5,cs),
(272,679.833,o),
(265,640,o),
(265,600,cs)
);
},
{
closed = 1;
nodes = (
(352,1395.403,o),
(359.885,1422.239,o),
(374,1442,cs),
(388.242,1461.939,o),
(406.352,1475.117,o),
(430,1483,cs),
(442,1487,o),
(453.667,1489,o),
(467,1489,cs),
(491.169,1489,o),
(514.82,1481.415,o),
(535,1467,cs),
(555.703,1452.212,o),
(568.053,1432.842,o),
(576,1409,cs),
(580,1397,o),
(582,1384.333,o),
(582,1371,cs),
(582,1345.442,o),
(574.19,1319.285,o),
(561,1299.5,cs),
(548.486,1280.729,o),
(525.092,1263.268,o),
(504.5,1256,cs),
(493.167,1252,o),
(480.333,1250,o),
(467,1250,cs),
(434.698,1250,o),
(415.872,1260.76,o),
(398.5,1273.5,cs),
(379.077,1287.744,o),
(366.421,1307.736,o),
(358,1333,cs),
(354,1345,o),
(352,1357.667,o),
(352,1371,cs)
);
},
{
closed = 1;
nodes = (
(658,1395.403,o),
(665.885,1422.239,o),
(680,1442,cs),
(694.242,1461.939,o),
(712.352,1475.117,o),
(736,1483,cs),
(748,1487,o),
(759.667,1489,o),
(773,1489,cs),
(797.169,1489,o),
(820.82,1481.415,o),
(841,1467,cs),
(861.703,1452.212,o),
(874.053,1432.842,o),
(882,1409,cs),
(886,1397,o),
(888,1384.333,o),
(888,1371,cs),
(888,1345.442,o),
(880.19,1319.285,o),
(867,1299.5,cs),
(854.486,1280.729,o),
(831.092,1263.268,o),
(810.5,1256,cs),
(799.167,1252,o),
(786.333,1250,o),
(773,1250,cs),
(740.698,1250,o),
(721.872,1260.76,o),
(704.5,1273.5,cs),
(685.077,1287.744,o),
(672.421,1307.736,o),
(664,1333,cs),
(660,1345,o),
(658,1357.667,o),
(658,1371,cs)
);
}
);
};
layerId = "4B056265-F7A9-4FE5-8F86-068480F74FC7";
shapes = (
{
ref = O;
},
{
pos = (337,0);
ref = dieresiscomb.case;
}
);
width = 1263;
}
);
unicode = 214;
},
{
color = 4;
glyphname = Ograve;
kernLeft = C2;
kernRight = C;
lastChange = "2025-02-19 14:29:24 +0000";
layers = (
{
background = {
shapes = (
{
closed = 1;
nodes = (
(30,734.606,o),
(74.115,853.429,o),
(147.5,953.5,cs),
(221.215,1054.02,o),
(326.228,1129.47,o),
(443.5,1169,cs),
(502.833,1189,o),
(566.667,1200,o),
(632,1200,cs),
(766.071,1200,o),
(886.81,1155.139,o),
(984.5,1083.5,cs),
(1098.019,1000.253,o),
(1167.692,891.279,o),
(1202,789.5,cs),
(1222,730.167,o),
(1233,667.333,o),
(1233,602,cs),
(1233,471.621,o),
(1190.396,343.11,o),
(1116.5,241,cs),
(1042.786,139.141,o),
(937.778,62.349,o),
(820.5,21.5,cs),
(761.167,0.833,o),
(697.333,-10,o),
(632,-10,cs),
(498.808,-10,o),
(376.524,35.062,o),
(277.5,109,cs),
(177.977,183.31,o),
(102.587,283.354,o),
(61,409.5,cs),
(41,470.167,o),
(30,535.333,o),
(30,602,cs)
);
},
{
closed = 1;
nodes = (
(447,1561,l),
(664,1561,l),
(802,1250,l),
(630,1250,l),
(630,1250,l)
);
},
{
closed = 1;
nodes = (
(265,519.191,o),
(292.195,436.055,o),
(336,375.5,cs),
(383.694,309.57,o),
(447.109,263.471,o),
(516.5,239.5,cs),
(553.167,226.833,o),
(593,220,o),
(633,220,cs),
(713.49,220,o),
(788.283,248.063,o),
(848,293.5,cs),
(908.26,339.35,o),
(954.397,403.457,o),
(979,480,cs),
(991,517.333,o),
(998,557.333,o),
(998,600,cs),
(998,678.972,o),
(970.952,757.535,o),
(927,817,cs),
(878.971,881.981,o),
(821.6,924.252,o),
(747,950.5,cs),
(711,963.167,o),
(673,970,o),
(633,970,cs),
(568.483,970,o),
(491.19,952.836,o),
(417,898,cs),
(356.306,853.139,o),
(308.212,790.481,o),
(284,716.5,cs),
(272,679.833,o),
(265,640,o),
(265,600,cs)
);
}
);
};
layerId = "4B056265-F7A9-4FE5-8F86-068480F74FC7";
shapes = (
{
ref = O;
},
{
pos = (422,0);
ref = gravecomb.case;
}
);
width = 1263;
}
);
unicode = 210;
},
{
color = 4;
glyphname = Ohungarumlaut;
kernLeft = C2;
kernRight = C;
lastChange = "2025-02-19 14:29:24 +0000";
layers = (
{
background = {
shapes = (
{
closed = 1;
nodes = (
(30,734.606,o),
(74.115,853.429,o),
(147.5,953.5,cs),
(221.215,1054.02,o),
(326.228,1129.47,o),
(443.5,1169,cs),
(502.833,1189,o),
(566.667,1200,o),
(632,1200,cs),
(766.071,1200,o),
(886.81,1155.139,o),
(984.5,1083.5,cs),
(1098.019,1000.253,o),
(1167.692,891.279,o),
(1202,789.5,cs),
(1222,730.167,o),
(1233,667.333,o),
(1233,602,cs),
(1233,471.621,o),
(1190.396,343.11,o),
(1116.5,241,cs),
(1042.786,139.141,o),
(937.778,62.349,o),
(820.5,21.5,cs),
(761.167,0.833,o),
(697.333,-10,o),
(632,-10,cs),
(498.808,-10,o),
(376.524,35.062,o),
(277.5,109,cs),
(177.977,183.31,o),
(102.587,283.354,o),
(61,409.5,cs),
(41,470.167,o),
(30,535.333,o),
(30,602,cs)
);
},
{
closed = 1;
nodes = (
(491,1539,l),
(678,1539,l),
(534,1250,l),
(390,1250,l),
(390,1250,l)
);
},
{
closed = 1;
nodes = (
(727,1539,l),
(914,1539,l),
(769,1250,l),
(625,1250,l),
(625,1250,l)
);
},
{
closed = 1;
nodes = (
(265,519.191,o),
(292.195,436.055,o),
(336,375.5,cs),
(383.694,309.57,o),
(447.109,263.471,o),
(516.5,239.5,cs),
(553.167,226.833,o),
(593,220,o),
(633,220,cs),
(713.49,220,o),
(788.283,248.063,o),
(848,293.5,cs),
(908.26,339.35,o),
(954.397,403.457,o),
(979,480,cs),
(991,517.333,o),
(998,557.333,o),
(998,600,cs),
(998,678.972,o),
(970.952,757.535,o),
(927,817,cs),
(878.971,881.981,o),
(821.6,924.252,o),
(747,950.5,cs),
(711,963.167,o),
(673,970,o),
(633,970,cs),
(568.483,970,o),
(491.19,952.836,o),
(417,898,cs),
(356.306,853.139,o),
(308.212,790.481,o),
(284,716.5,cs),
(272,679.833,o),
(265,640,o),
(265,600,cs)
);
}
);
};
layerId = "4B056265-F7A9-4FE5-8F86-068480F74FC7";
shapes = (
{
ref = O;
},
{
pos = (485,0);
ref = hungarumlautcomb.case;
}
);
width = 1263;
}
);
unicode = 336;
},
{
color = 4;
glyphname = Omacron;
kernLeft = C2;
kernRight = C;
lastChange = "2025-02-19 14:29:24 +0000";
layers = (
{
background = {
shapes = (
{
closed = 1;
nodes = (
(30,734.606,o),
(74.115,853.429,o),
(147.5,953.5,cs),
(221.215,1054.02,o),
(326.228,1129.47,o),
(443.5,1169,cs),
(502.833,1189,o),
(566.667,1200,o),
(632,1200,cs),
(766.071,1200,o),
(886.81,1155.139,o),
(984.5,1083.5,cs),
(1098.019,1000.253,o),
(1167.692,891.279,o),
(1202,789.5,cs),
(1222,730.167,o),
(1233,667.333,o),
(1233,602,cs),
(1233,471.621,o),
(1190.396,343.11,o),
(1116.5,241,cs),
(1042.786,139.141,o),
(937.778,62.349,o),
(820.5,21.5,cs),
(761.167,0.833,o),
(697.333,-10,o),
(632,-10,cs),
(498.808,-10,o),
(376.524,35.062,o),
(277.5,109,cs),
(177.977,183.31,o),
(102.587,283.354,o),
(61,409.5,cs),
(41,470.167,o),
(30,535.333,o),
(30,602,cs)
);
},
{
closed = 1;
nodes = (
(265,519.191,o),
(292.195,436.055,o),
(336,375.5,cs),
(383.694,309.57,o),
(447.109,263.471,o),
(516.5,239.5,cs),
(553.167,226.833,o),
(593,220,o),
(633,220,cs),
(713.49,220,o),
(788.283,248.063,o),
(848,293.5,cs),
(908.26,339.35,o),
(954.397,403.457,o),
(979,480,cs),
(991,517.333,o),
(998,557.333,o),
(998,600,cs),
(998,678.972,o),
(970.952,757.535,o),
(927,817,cs),
(878.971,881.981,o),
(821.6,924.252,o),
(747,950.5,cs),
(711,963.167,o),
(673,970,o),
(633,970,cs),
(568.483,970,o),
(491.19,952.836,o),
(417,898,cs),
(356.306,853.139,o),
(308.212,790.481,o),
(284,716.5,cs),
(272,679.833,o),
(265,640,o),
(265,600,cs)
);
},
{
closed = 1;
nodes = (
(420,1450,l),
(843,1450,l),
(843,1270,l),
(420,1270,l),
(420,1270,l)
);
}
);
};
layerId = "4B056265-F7A9-4FE5-8F86-068480F74FC7";
shapes = (
{
ref = O;
},
{
pos = (502,0);
ref = macroncomb.case;
}
);
width = 1263;
}
);
unicode = 332;
},
{
glyphname = Oslash;
kernLeft = C2;
kernRight = C;
lastChange = "2025-02-19 14:22:40 +0000";
layers = (
{
background = {
shapes = (
{
closed = 1;
nodes = (
(30,734.606,o),
(74.115,853.429,o),
(147.5,953.5,cs),
(221.215,1054.02,o),
(326.228,1129.47,o),
(443.5,1169,cs),
(502.833,1189,o),
(566.667,1200,o),
(632,1200,cs),
(650.566,1200,o),
(671.21,1198.925,o),
(689.5,1197,cs),
(708.163,1195.035,o),
(727.534,1193.104,o),
(746,1189,c),
(781,1280,l),
(1006,1280,l),
(942,1112,l),
(1011.497,1069.233,o),
(1071.896,1012.614,o),
(1119,948.5,cs),
(1165.553,885.137,o),
(1202.283,806.462,o),
(1219.5,727,cs),
(1228.167,687,o),
(1233,644.667,o),
(1233,602,cs),
(1233,471.621,o),
(1190.396,343.11,o),
(1116.5,241,cs),
(1042.786,139.141,o),
(937.778,62.349,o),
(820.5,21.5,cs),
(761.167,0.833,o),
(697.333,-10,o),
(632,-10,cs),
(613.434,-10,o),
(592.79,-8.925,o),
(574.5,-7,cs),
(555.837,-5.035,o),
(536.466,-3.104,o),
(518,1,c),
(483,-90,l),
(258,-90,l),
(322,78,l),
(250.044,122.281,o),
(189.198,181.47,o),
(144,245.5,cs),
(97.453,311.442,o),
(60.838,390.309,o),
(43.5,473,cs),
(34.833,514.333,o),
(30,558,o),
(30,602,cs)
);
},
{
closed = 1;
nodes = (
(265,519.191,o),
(292.195,436.055,o),
(336,375.5,cs),
(383.694,309.57,o),
(447.109,263.471,o),
(516.5,239.5,cs),
(553.167,226.833,o),
(593,220,o),
(633,220,cs),
(713.49,220,o),
(788.283,248.063,o),
(848,293.5,cs),
(908.26,339.35,o),
(954.397,403.457,o),
(979,480,cs),
(991,517.333,o),
(998,557.333,o),
(998,600,cs),
(998,678.972,o),
(970.952,757.535,o),
(927,817,cs),
(878.971,881.981,o),
(821.6,924.252,o),
(747,950.5,cs),
(711,963.167,o),
(673,970,o),
(633,970,cs),
(568.483,970,o),
(491.19,952.836,o),
(417,898,cs),
(356.306,853.139,o),
(308.212,790.481,o),
(284,716.5,cs),
(272,679.833,o),
(265,640,o),
(265,600,cs)
);
}
);
};
layerId = "4B056265-F7A9-4FE5-8F86-068480F74FC7";
shapes = (
{
closed = 1;
nodes = (
(30,734.606,o),
(74.115,853.429,o),
(147.5,953.5,cs),
(221.215,1054.02,o),
(326.228,1129.47,o),
(443.5,1169,cs),
(502.833,1189,o),
(566.667,1200,o),
(632,1200,cs),
(650.566,1200,o),
(671.21,1198.925,o),
(689.5,1197,cs),
(708.163,1195.035,o),
(727.534,1193.104,o),
(746,1189,c),
(781,1280,l),
(1006,1280,l),
(942,1112,l),
(1011.497,1069.233,o),
(1071.896,1012.614,o),
(1119,948.5,cs),
(1165.553,885.137,o),
(1202.283,806.462,o),
(1219.5,727,cs),
(1228.167,687,o),
(1233,644.667,o),
(1233,602,cs),
(1233,471.621,o),
(1190.396,343.11,o),
(1116.5,241,cs),
(1042.786,139.141,o),
(937.778,62.349,o),
(820.5,21.5,cs),
(761.167,0.833,o),
(697.333,-10,o),
(632,-10,cs),
(613.434,-10,o),
(592.79,-8.925,o),
(574.5,-7,cs),
(555.837,-5.035,o),
(536.466,-3.104,o),
(518,1,c),
(483,-90,l),
(258,-90,l),
(322,78,l),
(250.044,122.281,o),
(189.198,181.47,o),
(144,245.5,cs),
(97.453,311.442,o),
(60.838,390.309,o),
(43.5,473,cs),
(34.833,514.333,o),
(30,558,o),
(30,602,cs)
);
},
{
closed = 1;
nodes = (
(265,519.191,o),
(292.195,436.055,o),
(336,375.5,cs),
(383.694,309.57,o),
(447.109,263.471,o),
(516.5,239.5,cs),
(553.167,226.833,o),
(593,220,o),
(633,220,cs),
(713.49,220,o),
(788.283,248.063,o),
(848,293.5,cs),
(908.26,339.35,o),
(954.397,403.457,o),
(979,480,cs),
(991,517.333,o),
(998,557.333,o),
(998,600,cs),
(998,678.972,o),
(970.952,757.535,o),
(927,817,cs),
(878.971,881.981,o),
(821.6,924.252,o),
(747,950.5,cs),
(711,963.167,o),
(673,970,o),
(633,970,cs),
(568.483,970,o),
(491.19,952.836,o),
(417,898,cs),
(356.306,853.139,o),
(308.212,790.481,o),
(284,716.5,cs),
(272,679.833,o),
(265,640,o),
(265,600,cs)
);
}
);
width = 1263;
}
);
unicode = 216;
},
{
color = 4;
glyphname = Otilde;
kernLeft = C2;
kernRight = C;
lastChange = "2025-02-19 14:29:33 +0000";
layers = (
{
background = {
shapes = (
{
closed = 1;
nodes = (
(30,734.606,o),
(74.115,853.429,o),
(147.5,953.5,cs),
(221.215,1054.02,o),
(326.228,1129.47,o),
(443.5,1169,cs),
(502.833,1189,o),
(566.667,1200,o),
(632,1200,cs),
(766.071,1200,o),
(886.81,1155.139,o),
(984.5,1083.5,cs),
(1098.019,1000.253,o),
(1167.692,891.279,o),
(1202,789.5,cs),
(1222,730.167,o),
(1233,667.333,o),
(1233,602,cs),
(1233,471.621,o),
(1190.396,343.11,o),
(1116.5,241,cs),
(1042.786,139.141,o),
(937.778,62.349,o),
(820.5,21.5,cs),
(761.167,0.833,o),
(697.333,-10,o),
(632,-10,cs),
(498.808,-10,o),
(376.524,35.062,o),
(277.5,109,cs),
(177.977,183.31,o),
(102.587,283.354,o),
(61,409.5,cs),
(41,470.167,o),
(30,535.333,o),
(30,602,cs)
);
},
{
closed = 1;
nodes = (
(392,1250,l),
(392,1307.219,o),
(399.624,1358.385,o),
(413,1394.5,cs),
(425.212,1427.472,o),
(449.094,1458.183,o),
(475.5,1469.5,cs),
(489.5,1475.5,o),
(503.667,1479,o),
(521,1479,cs),
(553.02,1479,o),
(578.669,1467.166,o),
(602,1455.5,cs),
(622.885,1445.058,o),
(642.6,1429.108,o),
(664.5,1419,cs),
(673.167,1415,o),
(681,1412,o),
(689,1412,cs),
(712.641,1412,o),
(729,1441.829,o),
(729,1479,c),
(879,1479,l),
(879,1325.667,o),
(837,1250,o),
(749,1250,cs),
(724.248,1250,o),
(696.146,1256.409,o),
(668,1274,cs),
(651.212,1284.493,o),
(628.044,1302.441,o),
(609.5,1311,cs),
(600.833,1315,o),
(592,1318,o),
(584,1318,cs),
(574.964,1318,o),
(564.229,1312.875,o),
(558.5,1306,cs),
(550.689,1296.627,o),
(547.975,1287.873,o),
(545,1273,cs),
(543.667,1266.333,o),
(543,1258,o),
(543,1250,c)
);
},
{
closed = 1;
nodes = (
(265,519.191,o),
(292.195,436.055,o),
(336,375.5,cs),
(383.694,309.57,o),
(447.109,263.471,o),
(516.5,239.5,cs),
(553.167,226.833,o),
(593,220,o),
(633,220,cs),
(713.49,220,o),
(788.283,248.063,o),
(848,293.5,cs),
(908.26,339.35,o),
(954.397,403.457,o),
(979,480,cs),
(991,517.333,o),
(998,557.333,o),
(998,600,cs),
(998,678.972,o),
(970.952,757.535,o),
(927,817,cs),
(878.971,881.981,o),
(821.6,924.252,o),
(747,950.5,cs),
(711,963.167,o),
(673,970,o),
(633,970,cs),
(568.483,970,o),
(491.19,952.836,o),
(417,898,cs),
(356.306,853.139,o),
(308.212,790.481,o),
(284,716.5,cs),
(272,679.833,o),
(265,640,o),
(265,600,cs)
);
}
);
};
layerId = "4B056265-F7A9-4FE5-8F86-068480F74FC7";
shapes = (
{
ref = O;
},
{
pos = (482,0);
ref = tildecomb.case;
}
);
width = 1263;
}
);
unicode = 213;
},
{
glyphname = OE;
kernLeft = C2;
kernRight = E;
lastChange = "2025-02-19 14:22:40 +0000";
layers = (
{
background = {
shapes = (
{
closed = 1;
nodes = (
(30,734.606,o),
(74.115,853.429,o),
(147.5,953.5,cs),
(221.215,1054.02,o),
(326.228,1129.47,o),
(443.5,1169,cs),
(502.833,1189,o),
(566.667,1200,o),
(632,1200,cs),
(690.062,1200,o),
(736.092,1192.45,o),
(791,1178,cs),
(842.786,1164.372,o),
(888.656,1142.398,o),
(935,1116.5,cs),
(957.667,1103.833,o),
(979,1089,o),
(999,1073,c),
(999,1190,l),
(1494,1190,l),
(1494,970,l),
(1234,970,l),
(1234,743,l),
(1474,743,l),
(1474,523,l),
(1234,523,l),
(1234,220,l),
(1499,220,l),
(1499,0,l),
(999,0,l),
(999,119,l),
(959.612,87.49,o),
(913.056,58.881,o),
(865.5,38.5,cs),
(800.987,10.852,o),
(742.722,-0.785,o),
(713,-4.5,cs),
(686.333,-7.833,o),
(660,-10,o),
(632,-10,cs),
(498.808,-10,o),
(376.524,35.062,o),
(277.5,109,cs),
(177.977,183.31,o),
(102.587,283.354,o),
(61,409.5,cs),
(41,470.167,o),
(30,535.333,o),
(30,602,cs)
);
},
{
closed = 1;
nodes = (
(265,519.191,o),
(292.195,436.055,o),
(336,375.5,cs),
(383.694,309.57,o),
(447.109,263.471,o),
(516.5,239.5,cs),
(553.167,226.833,o),
(593,220,o),
(633,220,cs),
(713.49,220,o),
(788.283,248.063,o),
(848,293.5,cs),
(908.26,339.35,o),
(954.397,403.457,o),
(979,480,cs),
(991,517.333,o),
(998,557.333,o),
(998,600,cs),
(998,678.972,o),
(970.952,757.535,o),
(927,817,cs),
(878.971,881.981,o),
(821.6,924.252,o),
(747,950.5,cs),
(711,963.167,o),
(673,970,o),
(633,970,cs),
(568.483,970,o),
(491.19,952.836,o),
(417,898,cs),
(356.306,853.139,o),
(308.212,790.481,o),
(284,716.5,cs),
(272,679.833,o),
(265,640,o),
(265,600,cs)
);
}
);
};
layerId = "4B056265-F7A9-4FE5-8F86-068480F74FC7";
shapes = (
{
closed = 1;
nodes = (
(30,734.606,o),
(74.115,853.429,o),
(147.5,953.5,cs),
(221.215,1054.02,o),
(326.228,1129.47,o),
(443.5,1169,cs),
(502.833,1189,o),
(566.667,1200,o),
(632,1200,cs),
(690.062,1200,o),
(736.092,1192.45,o),
(791,1178,cs),
(842.786,1164.372,o),
(888.656,1142.398,o),
(935,1116.5,cs),
(957.667,1103.833,o),
(979,1089,o),
(999,1073,c),
(999,1190,l),
(1494,1190,l),
(1494,970,l),
(1234,970,l),
(1234,743,l),
(1474,743,l),
(1474,523,l),
(1234,523,l),
(1234,220,l),
(1499,220,l),
(1499,0,l),
(999,0,l),
(999,119,l),
(959.612,87.49,o),
(913.056,58.881,o),
(865.5,38.5,cs),
(800.987,10.852,o),
(742.722,-0.785,o),
(713,-4.5,cs),
(686.333,-7.833,o),
(660,-10,o),
(632,-10,cs),
(498.808,-10,o),
(376.524,35.062,o),
(277.5,109,cs),
(177.977,183.31,o),
(102.587,283.354,o),
(61,409.5,cs),
(41,470.167,o),
(30,535.333,o),
(30,602,cs)
);
},
{
closed = 1;
nodes = (
(265,519.191,o),
(292.195,436.055,o),
(336,375.5,cs),
(383.694,309.57,o),
(447.109,263.471,o),
(516.5,239.5,cs),
(553.167,226.833,o),
(593,220,o),
(633,220,cs),
(713.49,220,o),
(788.283,248.063,o),
(848,293.5,cs),
(908.26,339.35,o),
(954.397,403.457,o),
(979,480,cs),
(991,517.333,o),
(998,557.333,o),
(998,600,cs),
(998,678.972,o),
(970.952,757.535,o),
(927,817,cs),
(878.971,881.981,o),
(821.6,924.252,o),
(747,950.5,cs),
(711,963.167,o),
(673,970,o),
(633,970,cs),
(568.483,970,o),
(491.19,952.836,o),
(417,898,cs),
(356.306,853.139,o),
(308.212,790.481,o),
(284,716.5,cs),
(272,679.833,o),
(265,640,o),
(265,600,cs)
);
}
);
width = 1529;
}
);
unicode = 338;
},
{
glyphname = P;
kernRight = P;
lastChange = "2025-02-19 14:22:40 +0000";
layers = (
{
anchors = (
{
name = bottom;
pos = (363,0);
},
{
name = top;
pos = (363,1190);
}
);
background = {
anchors = (
{
name = bottom;
pos = (363,0);
},
{
name = top;
pos = (363,1190);
}
);
shapes = (
{
closed = 1;
nodes = (
(410,1190,ls),
(496.662,1190,o),
(568.977,1155.683,o),
(618.5,1091,cs),
(666.873,1027.819,o),
(695,934.163,o),
(695,821,cs),
(695,732.912,o),
(679.223,655.742,o),
(645,593,cs),
(611.931,532.373,o),
(567.702,491.074,o),
(507,469,cs),
(477.667,458.333,o),
(444.667,453,o),
(410,453,cs),
(295,453,l),
(295,0,l),
(60,0,l),
(60,1190,l),
(60,1190,l)
);
},
{
closed = 1;
nodes = (
(350,673,ls),
(373.426,673,o),
(399.712,679.712,o),
(418.5,698.5,cs),
(437.299,717.299,o),
(448.101,736.465,o),
(455.5,770.5,cs),
(458.833,785.833,o),
(460,802.333,o),
(460,821,cs),
(460,855.58,o),
(454.975,887.845,o),
(441,913,cs),
(427.995,936.408,o),
(412.208,953.326,o),
(387.5,963.5,cs),
(376.167,968.167,o),
(363.333,970,o),
(350,970,cs),
(295,970,l),
(295,673,l),
(295,673,l)
);
}
);
};
layerId = "4B056265-F7A9-4FE5-8F86-068480F74FC7";
shapes = (
{
closed = 1;
nodes = (
(410,1190,ls),
(496.662,1190,o),
(568.977,1155.683,o),
(618.5,1091,cs),
(666.873,1027.819,o),
(695,934.163,o),
(695,821,cs),
(695,732.912,o),
(679.223,655.742,o),
(645,593,cs),
(611.931,532.373,o),
(567.702,491.074,o),
(507,469,cs),
(477.667,458.333,o),
(444.667,453,o),
(410,453,cs),
(295,453,l),
(295,0,l),
(60,0,l),
(60,1190,l),
(60,1190,l)
);
},
{
closed = 1;
nodes = (
(350,673,ls),
(373.426,673,o),
(399.712,679.712,o),
(418.5,698.5,cs),
(437.299,717.299,o),
(448.101,736.465,o),
(455.5,770.5,cs),
(458.833,785.833,o),
(460,802.333,o),
(460,821,cs),
(460,855.58,o),
(454.975,887.845,o),
(441,913,cs),
(427.995,936.408,o),
(412.208,953.326,o),
(387.5,963.5,cs),
(376.167,968.167,o),
(363.333,970,o),
(350,970,cs),
(295,970,l),
(295,673,l),
(295,673,l)
);
}
);
width = 725;
}
);
unicode = 80;
},
{
glyphname = Thorn;
kernRight = P;
lastChange = "2025-02-19 14:22:40 +0000";
layers = (
{
background = {
shapes = (
{
closed = 1;
nodes = (
(60,1388,l),
(295,1388,l),
(295,1140,l),
(410,1140,ls),
(496.662,1140,o),
(568.977,1105.683,o),
(618.5,1041,cs),
(666.873,977.819,o),
(695,884.163,o),
(695,771,cs),
(695,682.912,o),
(679.223,605.742,o),
(645,543,cs),
(611.931,482.373,o),
(567.702,441.074,o),
(507,419,cs),
(477.667,408.333,o),
(444.667,403,o),
(410,403,cs),
(295,403,l),
(295,0,l),
(60,0,l),
(60,0,l)
);
},
{
closed = 1;
nodes = (
(350,623,ls),
(373.426,623,o),
(399.712,629.712,o),
(418.5,648.5,cs),
(437.299,667.299,o),
(448.101,686.465,o),
(455.5,720.5,cs),
(458.833,735.833,o),
(460,752.333,o),
(460,771,cs),
(460,805.58,o),
(454.975,837.845,o),
(441,863,cs),
(427.995,886.408,o),
(412.208,903.326,o),
(387.5,913.5,cs),
(376.167,918.167,o),
(363.333,920,o),
(350,920,cs),
(295,920,l),
(295,623,l),
(295,623,l)
);
}
);
};
layerId = "4B056265-F7A9-4FE5-8F86-068480F74FC7";
shapes = (
{
closed = 1;
nodes = (
(60,1388,l),
(295,1388,l),
(295,1140,l),
(410,1140,ls),
(496.662,1140,o),
(568.977,1105.683,o),
(618.5,1041,cs),
(666.873,977.819,o),
(695,884.163,o),
(695,771,cs),
(695,682.912,o),
(679.223,605.742,o),
(645,543,cs),
(611.931,482.373,o),
(567.702,441.074,o),
(507,419,cs),
(477.667,408.333,o),
(444.667,403,o),
(410,403,cs),
(295,403,l),
(295,0,l),
(60,0,l),
(60,0,l)
);
},
{
closed = 1;
nodes = (
(350,623,ls),
(373.426,623,o),
(399.712,629.712,o),
(418.5,648.5,cs),
(437.299,667.299,o),
(448.101,686.465,o),
(455.5,720.5,cs),
(458.833,735.833,o),
(460,752.333,o),
(460,771,cs),
(460,805.58,o),
(454.975,837.845,o),
(441,863,cs),
(427.995,886.408,o),
(412.208,903.326,o),
(387.5,913.5,cs),
(376.167,918.167,o),
(363.333,920,o),
(350,920,cs),
(295,920,l),
(295,623,l),
(295,623,l)
);
}
);
width = 725;
}
);
unicode = 222;
},
{
glyphname = Q;
kernLeft = C2;
kernRight = C;
lastChange = "2025-02-19 14:22:40 +0000";
layers = (
{
anchors = (
{
name = bottom;
pos = (632,0);
},
{
name = top;
pos = (632,1190);
}
);
background = {
anchors = (
{
name = bottom;
pos = (632,0);
},
{
name = top;
pos = (632,1190);
}
);
shapes = (
{
closed = 1;
nodes = (
(30,734.606,o),
(74.115,853.429,o),
(147.5,953.5,cs),
(221.215,1054.02,o),
(326.228,1129.47,o),
(443.5,1169,cs),
(502.833,1189,o),
(566.667,1200,o),
(632,1200,cs),
(766.071,1200,o),
(886.81,1155.139,o),
(984.5,1083.5,cs),
(1098.019,1000.253,o),
(1167.692,891.279,o),
(1202,789.5,cs),
(1222,730.167,o),
(1233,667.333,o),
(1233,602,cs),
(1233,470.33,o),
(1191.426,358.632,o),
(1142,280,cs),
(1083.393,186.762,o),
(1003.53,109.029,o),
(905.5,58,cs),
(856.833,32.667,o),
(804.667,14,o),
(750,2,c),
(759,-220,l),
(529,-220,l),
(529,-1,l),
(417.037,20.326,o),
(314.217,69.207,o),
(231.5,146.5,cs),
(149.594,223.035,o),
(88.174,315.657,o),
(55,429,cs),
(39,483.667,o),
(30,542,o),
(30,602,cs)
);
},
{
closed = 1;
nodes = (
(265,532.815,o),
(281.397,462.056,o),
(314,405,cs),
(346.046,348.92,o),
(389.074,302.204,o),
(443,268.5,cs),
(469.667,251.833,o),
(498.333,239.333,o),
(529,230,c),
(529,410,l),
(734,410,l),
(741,232,l),
(797.182,249.876,o),
(856.736,286.734,o),
(895.5,330.5,cs),
(940.844,381.695,o),
(967.05,428.877,o),
(985.5,497,cs),
(994.167,529,o),
(998,563.333,o),
(998,598,cs),
(998,677.754,o),
(971.376,755.962,o),
(927,816,cs),
(880.968,878.279,o),
(821.044,924.447,o),
(747,950.5,cs),
(711,963.167,o),
(673,970,o),
(633,970,cs),
(555.813,970,o),
(477.759,943.729,o),
(417,897.5,cs),
(356.947,851.807,o),
(309.589,792.688,o),
(284,714.5,cs),
(272,677.833,o),
(265,638,o),
(265,598,cs)
);
}
);
};
layerId = "4B056265-F7A9-4FE5-8F86-068480F74FC7";
shapes = (
{
closed = 1;
nodes = (
(30,734.606,o),
(74.115,853.429,o),
(147.5,953.5,cs),
(221.215,1054.02,o),
(326.228,1129.47,o),
(443.5,1169,cs),
(502.833,1189,o),
(566.667,1200,o),
(632,1200,cs),
(766.071,1200,o),
(886.81,1155.139,o),
(984.5,1083.5,cs),
(1098.019,1000.253,o),
(1167.692,891.279,o),
(1202,789.5,cs),
(1222,730.167,o),
(1233,667.333,o),
(1233,602,cs),
(1233,470.33,o),
(1191.426,358.632,o),
(1142,280,cs),
(1083.393,186.762,o),
(1003.53,109.029,o),
(905.5,58,cs),
(856.833,32.667,o),
(804.667,14,o),
(750,2,c),
(759,-220,l),
(529,-220,l),
(529,-1,l),
(417.037,20.326,o),
(314.217,69.207,o),
(231.5,146.5,cs),
(149.594,223.035,o),
(88.174,315.657,o),
(55,429,cs),
(39,483.667,o),
(30,542,o),
(30,602,cs)
);
},
{
closed = 1;
nodes = (
(265,532.815,o),
(281.397,462.056,o),
(314,405,cs),
(346.046,348.92,o),
(389.074,302.204,o),
(443,268.5,cs),
(469.667,251.833,o),
(498.333,239.333,o),
(529,230,c),
(529,410,l),
(734,410,l),
(741,232,l),
(797.182,249.876,o),
(856.736,286.734,o),
(895.5,330.5,cs),
(940.844,381.695,o),
(967.05,428.877,o),
(985.5,497,cs),
(994.167,529,o),
(998,563.333,o),
(998,598,cs),
(998,677.754,o),
(971.376,755.962,o),
(927,816,cs),
(880.968,878.279,o),
(821.044,924.447,o),
(747,950.5,cs),
(711,963.167,o),
(673,970,o),
(633,970,cs),
(555.813,970,o),
(477.759,943.729,o),
(417,897.5,cs),
(356.947,851.807,o),
(309.589,792.688,o),
(284,714.5,cs),
(272,677.833,o),
(265,638,o),
(265,598,cs)
);
}
);
width = 1263;
}
);
unicode = 81;
},
{
glyphname = R;
kernRight = R;
lastChange = "2025-02-19 14:22:40 +0000";
layers = (
{
anchors = (
{
name = bottom;
pos = (380,0);
},
{
name = top;
pos = (380,1190);
}
);
background = {
anchors = (
{
name = bottom;
pos = (380,0);
},
{
name = top;
pos = (380,1190);
}
);
shapes = (
{
closed = 1;
nodes = (
(695,821.225,o),
(681.799,768.486,o),
(658,727.5,cs),
(635.253,688.325,o),
(604.442,656.763,o),
(555.5,636,cs),
(533.5,626.667,o),
(509.667,620.667,o),
(483,618,c),
(483,602,l),
(508.562,602,o),
(530.996,594.355,o),
(555.5,578.5,cs),
(576.508,564.907,o),
(599.005,540.29,o),
(611,517.5,cs),
(617.667,504.833,o),
(622,491.333,o),
(626,478,cs),
(745,0,l),
(510,0,l),
(371,503,l),
(295,503,l),
(295,0,l),
(60,0,l),
(60,1190,l),
(410,1190,ls),
(473.353,1190,o),
(535.109,1170.913,o),
(582.5,1133,cs),
(630.813,1094.349,o),
(663.719,1045.786,o),
(681.5,981.5,cs),
(690.167,950.167,o),
(695,916,o),
(695,880,cs)
);
},
{
closed = 1;
nodes = (
(350,723,ls),
(374.757,723,o),
(399.245,729.188,o),
(418.5,744,cs),
(437.133,758.333,o),
(448.918,778.487,o),
(455.5,803.5,cs),
(458.833,816.167,o),
(460,830,o),
(460,846,cs),
(460,922.096,o),
(419.088,970,o),
(350,970,cs),
(295,970,l),
(295,723,l),
(295,723,l)
);
}
);
};
layerId = "4B056265-F7A9-4FE5-8F86-068480F74FC7";
shapes = (
{
closed = 1;
nodes = (
(695,821.225,o),
(681.799,768.486,o),
(658,727.5,cs),
(635.253,688.325,o),
(604.442,656.763,o),
(555.5,636,cs),
(533.5,626.667,o),
(509.667,620.667,o),
(483,618,c),
(483,602,l),
(508.562,602,o),
(530.996,594.355,o),
(555.5,578.5,cs),
(576.508,564.907,o),
(599.005,540.29,o),
(611,517.5,cs),
(617.667,504.833,o),
(622,491.333,o),
(626,478,cs),
(745,0,l),
(510,0,l),
(371,503,l),
(295,503,l),
(295,0,l),
(60,0,l),
(60,1190,l),
(410,1190,ls),
(473.353,1190,o),
(535.109,1170.913,o),
(582.5,1133,cs),
(630.813,1094.349,o),
(663.719,1045.786,o),
(681.5,981.5,cs),
(690.167,950.167,o),
(695,916,o),
(695,880,cs)
);
},
{
closed = 1;
nodes = (
(350,723,ls),
(374.757,723,o),
(399.245,729.188,o),
(418.5,744,cs),
(437.133,758.333,o),
(448.918,778.487,o),
(455.5,803.5,cs),
(458.833,816.167,o),
(460,830,o),
(460,846,cs),
(460,922.096,o),
(419.088,970,o),
(350,970,cs),
(295,970,l),
(295,723,l),
(295,723,l)
);
}
);
width = 760;
}
);
unicode = 82;
},
{
color = 4;
glyphname = Racute;
kernRight = R;
lastChange = "2025-02-19 14:29:33 +0000";
layers = (
{
background = {
shapes = (
{
closed = 1;
nodes = (
(695,821.225,o),
(681.799,768.486,o),
(658,727.5,cs),
(635.253,688.325,o),
(604.442,656.763,o),
(555.5,636,cs),
(533.5,626.667,o),
(509.667,620.667,o),
(483,618,c),
(483,602,l),
(508.562,602,o),
(530.996,594.355,o),
(555.5,578.5,cs),
(576.508,564.907,o),
(599.005,540.29,o),
(611,517.5,cs),
(617.667,504.833,o),
(622,491.333,o),
(626,478,cs),
(745,0,l),
(510,0,l),
(371,503,l),
(295,503,l),
(295,0,l),
(60,0,l),
(60,1190,l),
(410,1190,ls),
(473.353,1190,o),
(535.109,1170.913,o),
(582.5,1133,cs),
(630.813,1094.349,o),
(663.719,1045.786,o),
(681.5,981.5,cs),
(690.167,950.167,o),
(695,916,o),
(695,880,cs)
);
},
{
closed = 1;
nodes = (
(224,1250,l),
(362,1561,l),
(579,1561,l),
(396,1250,l),
(396,1250,l)
);
},
{
closed = 1;
nodes = (
(350,723,ls),
(374.757,723,o),
(399.245,729.188,o),
(418.5,744,cs),
(437.133,758.333,o),
(448.918,778.487,o),
(455.5,803.5,cs),
(458.833,816.167,o),
(460,830,o),
(460,846,cs),
(460,922.096,o),
(419.088,970,o),
(350,970,cs),
(295,970,l),
(295,723,l),
(295,723,l)
);
}
);
};
layerId = "4B056265-F7A9-4FE5-8F86-068480F74FC7";
shapes = (
{
ref = R;
},
{
pos = (269,0);
ref = acutecomb.case;
}
);
width = 760;
}
);
unicode = 340;
},
{
color = 4;
glyphname = Rcaron;
kernRight = R;
lastChange = "2025-02-19 14:29:33 +0000";
layers = (
{
background = {
shapes = (
{
closed = 1;
nodes = (
(695,821.225,o),
(681.799,768.486,o),
(658,727.5,cs),
(635.253,688.325,o),
(604.442,656.763,o),
(555.5,636,cs),
(533.5,626.667,o),
(509.667,620.667,o),
(483,618,c),
(483,602,l),
(508.562,602,o),
(530.996,594.355,o),
(555.5,578.5,cs),
(576.508,564.907,o),
(599.005,540.29,o),
(611,517.5,cs),
(617.667,504.833,o),
(622,491.333,o),
(626,478,cs),
(745,0,l),
(510,0,l),
(371,503,l),
(295,503,l),
(295,0,l),
(60,0,l),
(60,1190,l),
(410,1190,ls),
(473.353,1190,o),
(535.109,1170.913,o),
(582.5,1133,cs),
(630.813,1094.349,o),
(663.719,1045.786,o),
(681.5,981.5,cs),
(690.167,950.167,o),
(695,916,o),
(695,880,cs)
);
},
{
closed = 1;
nodes = (
(138,1545,l),
(296,1545,l),
(381,1395,l),
(467,1545,l),
(624,1545,l),
(499,1250,l),
(264,1250,l),
(264,1250,l)
);
},
{
closed = 1;
nodes = (
(350,723,ls),
(374.757,723,o),
(399.245,729.188,o),
(418.5,744,cs),
(437.133,758.333,o),
(448.918,778.487,o),
(455.5,803.5,cs),
(458.833,816.167,o),
(460,830,o),
(460,846,cs),
(460,922.096,o),
(419.088,970,o),
(350,970,cs),
(295,970,l),
(295,723,l),
(295,723,l)
);
}
);
};
layerId = "4B056265-F7A9-4FE5-8F86-068480F74FC7";
shapes = (
{
ref = R;
},
{
pos = (242,0);
ref = caroncomb.case;
}
);
width = 760;
}
);
unicode = 344;
},
{
color = 4;
glyphname = Rcommaaccent;
kernRight = R;
lastChange = "2025-02-19 14:33:57 +0000";
layers = (
{
background = {
shapes = (
{
closed = 1;
nodes = (
(695,821.225,o),
(681.799,768.486,o),
(658,727.5,cs),
(635.253,688.325,o),
(604.442,656.763,o),
(555.5,636,cs),
(533.5,626.667,o),
(509.667,620.667,o),
(483,618,c),
(483,602,l),
(508.562,602,o),
(530.996,594.355,o),
(555.5,578.5,cs),
(576.508,564.907,o),
(599.005,540.29,o),
(611,517.5,cs),
(617.667,504.833,o),
(622,491.333,o),
(626,478,cs),
(745,0,l),
(510,0,l),
(371,503,l),
(295,503,l),
(295,0,l),
(60,0,l),
(60,1190,l),
(410,1190,ls),
(473.353,1190,o),
(535.109,1170.913,o),
(582.5,1133,cs),
(630.813,1094.349,o),
(663.719,1045.786,o),
(681.5,981.5,cs),
(690.167,950.167,o),
(695,916,o),
(695,880,cs)
);
},
{
closed = 1;
nodes = (
(333,-70,l),
(524,-70,l),
(401,-380,l),
(236,-380,l),
(236,-380,l)
);
},
{
closed = 1;
nodes = (
(350,723,ls),
(374.757,723,o),
(399.245,729.188,o),
(418.5,744,cs),
(437.133,758.333,o),
(448.918,778.487,o),
(455.5,803.5,cs),
(458.833,816.167,o),
(460,830,o),
(460,846,cs),
(460,922.096,o),
(419.088,970,o),
(350,970,cs),
(295,970,l),
(295,723,l),
(295,723,l)
);
}
);
};
layerId = "4B056265-F7A9-4FE5-8F86-068480F74FC7";
shapes = (
{
ref = R;
},
{
pos = (123,0);
ref = commaaccentcomb;
}
);
width = 760;
}
);
unicode = 342;
},
{
glyphname = S;
kernLeft = S2;
kernRight = S;
lastChange = "2025-02-19 14:22:40 +0000";
layers = (
{
anchors = (
{
name = bottom;
pos = (348,0);
},
{
name = top;
pos = (348,1190);
}
);
background = {
anchors = (
{
name = bottom;
pos = (348,0);
},
{
name = top;
pos = (348,1190);
}
);
shapes = (
{
closed = 1;
nodes = (
(404,903,ls),
(404,967,o),
(381.667,1000,o),
(339,1000,cs),
(299.351,1000,o),
(275,967.677,o),
(275,911,cs),
(275,894.119,o),
(277.057,873.12,o),
(289.5,851,cs),
(301.081,830.412,o),
(322.829,802.171,o),
(353.5,771.5,cs),
(361.833,763.167,o),
(370.833,754.167,o),
(380.5,744.5,cs),
(390.167,734.833,o),
(401,724.667,o),
(413,714,cs),
(485.663,648.603,o),
(548.037,583.574,o),
(586.5,534.5,cs),
(625.715,484.468,o),
(647.208,439.412,o),
(658,389.5,cs),
(663.333,364.833,o),
(665,338.333,o),
(665,309,cs),
(665,229.229,o),
(648.353,162.029,o),
(612,107.5,cs),
(578.334,57,o),
(521.871,19.908,o),
(457.5,3.5,cs),
(423.5,-5.167,o),
(385.333,-10,o),
(344,-10,cs),
(262.468,-10,o),
(194.87,8.194,o),
(144,43,cs),
(93.531,77.531,o),
(59.649,129.405,o),
(42.5,198,cs),
(33.833,232.667,o),
(30,270.333,o),
(30,313,cs),
(30,418,l),
(250,418,l),
(250,312,ls),
(250,272.286,o),
(257.851,243.409,o),
(273.5,221.5,cs),
(288.322,200.749,o),
(312.322,190,o),
(342,190,cs),
(362.701,190,o),
(384.486,195.486,o),
(398,209,cs),
(409.987,220.987,o),
(422.037,238.22,o),
(426.5,265,cs),
(428.5,277,o),
(430,291.333,o),
(430,306,cs),
(430,333.897,o),
(426.998,351.893,o),
(414.5,375.5,cs),
(401.231,400.564,o),
(377.656,425.023,o),
(347,454.5,cs),
(329.667,471.167,o),
(309,489.667,o),
(285,511,cs),
(210.696,577.342,o),
(155.725,631.602,o),
(116.5,683,cs),
(78.04,733.396,o),
(57.628,779.348,o),
(47,828.5,cs),
(41.667,853.167,o),
(40,880,o),
(40,908,cs),
(40,981.847,o),
(55.256,1045.749,o),
(88,1093.5,cs),
(120.334,1140.653,o),
(167.714,1172.225,o),
(229.5,1188,cs),
(260.833,1196,o),
(296.333,1200,o),
(335,1200,cs),
(410.261,1200,o),
(471.511,1184.536,o),
(518.5,1155,cs),
(551.185,1134.455,o),
(592.251,1094.557,o),
(612,1020.5,cs),
(620,990.5,o),
(624,958.333,o),
(624,921,cs),
(624,833,l),
(404,833,l),
(404,833,l)
);
}
);
};
layerId = "4B056265-F7A9-4FE5-8F86-068480F74FC7";
shapes = (
{
closed = 1;
nodes = (
(404,903,ls),
(404,967,o),
(381.667,1000,o),
(339,1000,cs),
(299.351,1000,o),
(275,967.677,o),
(275,911,cs),
(275,894.119,o),
(277.057,873.12,o),
(289.5,851,cs),
(301.081,830.412,o),
(322.829,802.171,o),
(353.5,771.5,cs),
(361.833,763.167,o),
(370.833,754.167,o),
(380.5,744.5,cs),
(390.167,734.833,o),
(401,724.667,o),
(413,714,cs),
(485.663,648.603,o),
(548.037,583.574,o),
(586.5,534.5,cs),
(625.715,484.468,o),
(647.208,439.412,o),
(658,389.5,cs),
(663.333,364.833,o),
(665,338.333,o),
(665,309,cs),
(665,229.229,o),
(648.353,162.029,o),
(612,107.5,cs),
(578.334,57,o),
(521.871,19.908,o),
(457.5,3.5,cs),
(423.5,-5.167,o),
(385.333,-10,o),
(344,-10,cs),
(262.468,-10,o),
(194.87,8.194,o),
(144,43,cs),
(93.531,77.531,o),
(59.649,129.405,o),
(42.5,198,cs),
(33.833,232.667,o),
(30,270.333,o),
(30,313,cs),
(30,418,l),
(250,418,l),
(250,312,ls),
(250,272.286,o),
(257.851,243.409,o),
(273.5,221.5,cs),
(288.322,200.749,o),
(312.322,190,o),
(342,190,cs),
(362.701,190,o),
(384.486,195.486,o),
(398,209,cs),
(409.987,220.987,o),
(422.037,238.22,o),
(426.5,265,cs),
(428.5,277,o),
(430,291.333,o),
(430,306,cs),
(430,333.897,o),
(426.998,351.893,o),
(414.5,375.5,cs),
(401.231,400.564,o),
(377.656,425.023,o),
(347,454.5,cs),
(329.667,471.167,o),
(309,489.667,o),
(285,511,cs),
(210.696,577.342,o),
(155.725,631.602,o),
(116.5,683,cs),
(78.04,733.396,o),
(57.628,779.348,o),
(47,828.5,cs),
(41.667,853.167,o),
(40,880,o),
(40,908,cs),
(40,981.847,o),
(55.256,1045.749,o),
(88,1093.5,cs),
(120.334,1140.653,o),
(167.714,1172.225,o),
(229.5,1188,cs),
(260.833,1196,o),
(296.333,1200,o),
(335,1200,cs),
(410.261,1200,o),
(471.511,1184.536,o),
(518.5,1155,cs),
(551.185,1134.455,o),
(592.251,1094.557,o),
(612,1020.5,cs),
(620,990.5,o),
(624,958.333,o),
(624,921,cs),
(624,833,l),
(404,833,l),
(404,833,l)
);
}
);
width = 695;
}
);
unicode = 83;
},
{
color = 4;
glyphname = Sacute;
kernLeft = S2;
kernRight = S;
lastChange = "2025-02-19 14:29:33 +0000";
layers = (
{
background = {
shapes = (
{
closed = 1;
nodes = (
(404,903,ls),
(404,967,o),
(381.667,1000,o),
(339,1000,cs),
(299.351,1000,o),
(275,967.677,o),
(275,911,cs),
(275,894.119,o),
(277.057,873.12,o),
(289.5,851,cs),
(301.081,830.412,o),
(322.829,802.171,o),
(353.5,771.5,cs),
(361.833,763.167,o),
(370.833,754.167,o),
(380.5,744.5,cs),
(390.167,734.833,o),
(401,724.667,o),
(413,714,cs),
(485.663,648.603,o),
(548.037,583.574,o),
(586.5,534.5,cs),
(625.715,484.468,o),
(647.208,439.412,o),
(658,389.5,cs),
(663.333,364.833,o),
(665,338.333,o),
(665,309,cs),
(665,229.229,o),
(648.353,162.029,o),
(612,107.5,cs),
(578.334,57,o),
(521.871,19.908,o),
(457.5,3.5,cs),
(423.5,-5.167,o),
(385.333,-10,o),
(344,-10,cs),
(262.468,-10,o),
(194.87,8.194,o),
(144,43,cs),
(93.531,77.531,o),
(59.649,129.405,o),
(42.5,198,cs),
(33.833,232.667,o),
(30,270.333,o),
(30,313,cs),
(30,418,l),
(250,418,l),
(250,312,ls),
(250,272.286,o),
(257.851,243.409,o),
(273.5,221.5,cs),
(288.322,200.749,o),
(312.322,190,o),
(342,190,cs),
(362.701,190,o),
(384.486,195.486,o),
(398,209,cs),
(409.987,220.987,o),
(422.037,238.22,o),
(426.5,265,cs),
(428.5,277,o),
(430,291.333,o),
(430,306,cs),
(430,333.897,o),
(426.998,351.893,o),
(414.5,375.5,cs),
(401.231,400.564,o),
(377.656,425.023,o),
(347,454.5,cs),
(329.667,471.167,o),
(309,489.667,o),
(285,511,cs),
(210.696,577.342,o),
(155.725,631.602,o),
(116.5,683,cs),
(78.04,733.396,o),
(57.628,779.348,o),
(47,828.5,cs),
(41.667,853.167,o),
(40,880,o),
(40,908,cs),
(40,981.847,o),
(55.256,1045.749,o),
(88,1093.5,cs),
(120.334,1140.653,o),
(167.714,1172.225,o),
(229.5,1188,cs),
(260.833,1196,o),
(296.333,1200,o),
(335,1200,cs),
(410.261,1200,o),
(471.511,1184.536,o),
(518.5,1155,cs),
(551.185,1134.455,o),
(592.251,1094.557,o),
(612,1020.5,cs),
(620,990.5,o),
(624,958.333,o),
(624,921,cs),
(624,833,l),
(404,833,l),
(404,833,l)
);
},
{
closed = 1;
nodes = (
(202,1250,l),
(340,1561,l),
(557,1561,l),
(374,1250,l),
(374,1250,l)
);
}
);
};
layerId = "4B056265-F7A9-4FE5-8F86-068480F74FC7";
shapes = (
{
ref = S;
},
{
pos = (237,0);
ref = acutecomb.case;
}
);
width = 695;
}
);
unicode = 346;
},
{
color = 4;
glyphname = Scaron;
kernLeft = S2;
kernRight = S;
lastChange = "2025-02-19 14:29:33 +0000";
layers = (
{
background = {
shapes = (
{
closed = 1;
nodes = (
(404,903,ls),
(404,967,o),
(381.667,1000,o),
(339,1000,cs),
(299.351,1000,o),
(275,967.677,o),
(275,911,cs),
(275,894.119,o),
(277.057,873.12,o),
(289.5,851,cs),
(301.081,830.412,o),
(322.829,802.171,o),
(353.5,771.5,cs),
(361.833,763.167,o),
(370.833,754.167,o),
(380.5,744.5,cs),
(390.167,734.833,o),
(401,724.667,o),
(413,714,cs),
(485.663,648.603,o),
(548.037,583.574,o),
(586.5,534.5,cs),
(625.715,484.468,o),
(647.208,439.412,o),
(658,389.5,cs),
(663.333,364.833,o),
(665,338.333,o),
(665,309,cs),
(665,229.229,o),
(648.353,162.029,o),
(612,107.5,cs),
(578.334,57,o),
(521.871,19.908,o),
(457.5,3.5,cs),
(423.5,-5.167,o),
(385.333,-10,o),
(344,-10,cs),
(262.468,-10,o),
(194.87,8.194,o),
(144,43,cs),
(93.531,77.531,o),
(59.649,129.405,o),
(42.5,198,cs),
(33.833,232.667,o),
(30,270.333,o),
(30,313,cs),
(30,418,l),
(250,418,l),
(250,312,ls),
(250,272.286,o),
(257.851,243.409,o),
(273.5,221.5,cs),
(288.322,200.749,o),
(312.322,190,o),
(342,190,cs),
(362.701,190,o),
(384.486,195.486,o),
(398,209,cs),
(409.987,220.987,o),
(422.037,238.22,o),
(426.5,265,cs),
(428.5,277,o),
(430,291.333,o),
(430,306,cs),
(430,333.897,o),
(426.998,351.893,o),
(414.5,375.5,cs),
(401.231,400.564,o),
(377.656,425.023,o),
(347,454.5,cs),
(329.667,471.167,o),
(309,489.667,o),
(285,511,cs),
(210.696,577.342,o),
(155.725,631.602,o),
(116.5,683,cs),
(78.04,733.396,o),
(57.628,779.348,o),
(47,828.5,cs),
(41.667,853.167,o),
(40,880,o),
(40,908,cs),
(40,981.847,o),
(55.256,1045.749,o),
(88,1093.5,cs),
(120.334,1140.653,o),
(167.714,1172.225,o),
(229.5,1188,cs),
(260.833,1196,o),
(296.333,1200,o),
(335,1200,cs),
(410.261,1200,o),
(471.511,1184.536,o),
(518.5,1155,cs),
(551.185,1134.455,o),
(592.251,1094.557,o),
(612,1020.5,cs),
(620,990.5,o),
(624,958.333,o),
(624,921,cs),
(624,833,l),
(404,833,l),
(404,833,l)
);
},
{
closed = 1;
nodes = (
(105,1545,l),
(263,1545,l),
(348,1395,l),
(434,1545,l),
(591,1545,l),
(466,1250,l),
(231,1250,l),
(231,1250,l)
);
}
);
};
layerId = "4B056265-F7A9-4FE5-8F86-068480F74FC7";
shapes = (
{
ref = S;
},
{
pos = (210,0);
ref = caroncomb.case;
}
);
width = 695;
}
);
unicode = 352;
},
{
color = 4;
glyphname = Scedilla;
kernLeft = S2;
kernRight = S;
lastChange = "2025-02-19 14:29:33 +0000";
layers = (
{
background = {
shapes = (
{
closed = 1;
nodes = (
(404,903,ls),
(404,967,o),
(381.667,1000,o),
(339,1000,cs),
(299.351,1000,o),
(275,967.677,o),
(275,911,cs),
(275,894.119,o),
(277.057,873.12,o),
(289.5,851,cs),
(301.081,830.412,o),
(322.829,802.171,o),
(353.5,771.5,cs),
(361.833,763.167,o),
(370.833,754.167,o),
(380.5,744.5,cs),
(390.167,734.833,o),
(401,724.667,o),
(413,714,cs),
(485.663,648.603,o),
(548.037,583.574,o),
(586.5,534.5,cs),
(625.715,484.468,o),
(647.208,439.412,o),
(658,389.5,cs),
(663.333,364.833,o),
(665,338.333,o),
(665,309,cs),
(665,232.014,o),
(651.664,175.647,o),
(621.5,122.5,cs),
(593.482,73.134,o),
(548.547,36.092,o),
(494.5,15,cs),
(467.167,4.333,o),
(435.667,-3,o),
(401,-7,c),
(376,-66,l),
(411.917,-78.828,o),
(440.536,-93.479,o),
(468.5,-118.5,cs),
(491.812,-139.358,o),
(511.409,-165.501,o),
(520,-197,cs),
(524,-211.667,o),
(527,-228,o),
(527,-244,cs),
(527,-293.361,o),
(508.241,-338.759,o),
(473,-374,cs),
(438.44,-408.56,o),
(390.204,-433.825,o),
(325,-448,cs),
(294.333,-454.667,o),
(259,-458,o),
(223,-458,c),
(223,-296,l),
(256.153,-296,o),
(287.181,-292.94,o),
(311,-285,cs),
(332.382,-277.873,o),
(346.982,-271.88,o),
(360.5,-254.5,cs),
(365.167,-248.5,o),
(367,-242,o),
(367,-234,cs),
(367,-221.442,o),
(358.971,-208.18,o),
(348,-200.5,cs),
(333.494,-190.346,o),
(317.536,-184.35,o),
(297,-180.5,cs),
(286.333,-178.5,o),
(275,-178,o),
(263,-178,c),
(262,-74,l),
(291,-7,l),
(119,10.333,o),
(30,119.667,o),
(30,313,cs),
(30,418,l),
(250,418,l),
(250,312,ls),
(250,272.286,o),
(257.851,243.409,o),
(273.5,221.5,cs),
(288.322,200.749,o),
(312.322,190,o),
(342,190,cs),
(362.701,190,o),
(384.486,195.486,o),
(398,209,cs),
(409.987,220.987,o),
(422.037,238.22,o),
(426.5,265,cs),
(428.5,277,o),
(430,291.333,o),
(430,306,cs),
(430,333.897,o),
(426.998,351.893,o),
(414.5,375.5,cs),
(401.231,400.564,o),
(377.656,425.023,o),
(347,454.5,cs),
(329.667,471.167,o),
(309,489.667,o),
(285,511,cs),
(210.696,577.342,o),
(155.725,631.602,o),
(116.5,683,cs),
(78.04,733.396,o),
(57.628,779.348,o),
(47,828.5,cs),
(41.667,853.167,o),
(40,880,o),
(40,908,cs),
(40,981.847,o),
(55.256,1045.749,o),
(88,1093.5,cs),
(120.334,1140.653,o),
(167.714,1172.225,o),
(229.5,1188,cs),
(260.833,1196,o),
(296.333,1200,o),
(335,1200,cs),
(410.261,1200,o),
(471.511,1184.536,o),
(518.5,1155,cs),
(551.185,1134.455,o),
(592.251,1094.557,o),
(612,1020.5,cs),
(620,990.5,o),
(624,958.333,o),
(624,921,cs),
(624,833,l),
(404,833,l),
(404,833,l)
);
}
);
};
layerId = "4B056265-F7A9-4FE5-8F86-068480F74FC7";
shapes = (
{
ref = S;
},
{
pos = (182,0);
ref = cedillacomb;
}
);
width = 695;
}
);
unicode = 350;
},
{
color = 4;
glyphname = Scircumflex;
kernLeft = S2;
kernRight = S;
lastChange = "2025-02-19 14:29:33 +0000";
layers = (
{
background = {
shapes = (
{
closed = 1;
nodes = (
(404,903,ls),
(404,967,o),
(381.667,1000,o),
(339,1000,cs),
(299.351,1000,o),
(275,967.677,o),
(275,911,cs),
(275,894.119,o),
(277.057,873.12,o),
(289.5,851,cs),
(301.081,830.412,o),
(322.829,802.171,o),
(353.5,771.5,cs),
(361.833,763.167,o),
(370.833,754.167,o),
(380.5,744.5,cs),
(390.167,734.833,o),
(401,724.667,o),
(413,714,cs),
(485.663,648.603,o),
(548.037,583.574,o),
(586.5,534.5,cs),
(625.715,484.468,o),
(647.208,439.412,o),
(658,389.5,cs),
(663.333,364.833,o),
(665,338.333,o),
(665,309,cs),
(665,229.229,o),
(648.353,162.029,o),
(612,107.5,cs),
(578.334,57,o),
(521.871,19.908,o),
(457.5,3.5,cs),
(423.5,-5.167,o),
(385.333,-10,o),
(344,-10,cs),
(262.468,-10,o),
(194.87,8.194,o),
(144,43,cs),
(93.531,77.531,o),
(59.649,129.405,o),
(42.5,198,cs),
(33.833,232.667,o),
(30,270.333,o),
(30,313,cs),
(30,418,l),
(250,418,l),
(250,312,ls),
(250,272.286,o),
(257.851,243.409,o),
(273.5,221.5,cs),
(288.322,200.749,o),
(312.322,190,o),
(342,190,cs),
(362.701,190,o),
(384.486,195.486,o),
(398,209,cs),
(409.987,220.987,o),
(422.037,238.22,o),
(426.5,265,cs),
(428.5,277,o),
(430,291.333,o),
(430,306,cs),
(430,333.897,o),
(426.998,351.893,o),
(414.5,375.5,cs),
(401.231,400.564,o),
(377.656,425.023,o),
(347,454.5,cs),
(329.667,471.167,o),
(309,489.667,o),
(285,511,cs),
(210.696,577.342,o),
(155.725,631.602,o),
(116.5,683,cs),
(78.04,733.396,o),
(57.628,779.348,o),
(47,828.5,cs),
(41.667,853.167,o),
(40,880,o),
(40,908,cs),
(40,981.847,o),
(55.256,1045.749,o),
(88,1093.5,cs),
(120.334,1140.653,o),
(167.714,1172.225,o),
(229.5,1188,cs),
(260.833,1196,o),
(296.333,1200,o),
(335,1200,cs),
(410.261,1200,o),
(471.511,1184.536,o),
(518.5,1155,cs),
(551.185,1134.455,o),
(592.251,1094.557,o),
(612,1020.5,cs),
(620,990.5,o),
(624,958.333,o),
(624,921,cs),
(624,833,l),
(404,833,l),
(404,833,l)
);
},
{
closed = 1;
nodes = (
(216,1555,l),
(460,1555,l),
(590,1250,l),
(427,1250,l),
(339,1405,l),
(250,1250,l),
(86,1250,l),
(86,1250,l)
);
}
);
};
layerId = "4B056265-F7A9-4FE5-8F86-068480F74FC7";
shapes = (
{
ref = S;
},
{
pos = (234,0);
ref = circumflexcomb.case;
}
);
width = 695;
}
);
unicode = 348;
},
{
color = 4;
glyphname = Scommaaccent;
kernLeft = S2;
kernRight = S;
lastChange = "2025-02-19 14:33:57 +0000";
layers = (
{
background = {
shapes = (
{
closed = 1;
nodes = (
(404,903,ls),
(404,967,o),
(381.667,1000,o),
(339,1000,cs),
(299.351,1000,o),
(275,967.677,o),
(275,911,cs),
(275,894.119,o),
(277.057,873.12,o),
(289.5,851,cs),
(301.081,830.412,o),
(322.829,802.171,o),
(353.5,771.5,cs),
(361.833,763.167,o),
(370.833,754.167,o),
(380.5,744.5,cs),
(390.167,734.833,o),
(401,724.667,o),
(413,714,cs),
(485.663,648.603,o),
(548.037,583.574,o),
(586.5,534.5,cs),
(625.715,484.468,o),
(647.208,439.412,o),
(658,389.5,cs),
(663.333,364.833,o),
(665,338.333,o),
(665,309,cs),
(665,229.229,o),
(648.353,162.029,o),
(612,107.5,cs),
(578.334,57,o),
(521.871,19.908,o),
(457.5,3.5,cs),
(423.5,-5.167,o),
(385.333,-10,o),
(344,-10,cs),
(262.468,-10,o),
(194.87,8.194,o),
(144,43,cs),
(93.531,77.531,o),
(59.649,129.405,o),
(42.5,198,cs),
(33.833,232.667,o),
(30,270.333,o),
(30,313,cs),
(30,418,l),
(250,418,l),
(250,312,ls),
(250,272.286,o),
(257.851,243.409,o),
(273.5,221.5,cs),
(288.322,200.749,o),
(312.322,190,o),
(342,190,cs),
(362.701,190,o),
(384.486,195.486,o),
(398,209,cs),
(409.987,220.987,o),
(422.037,238.22,o),
(426.5,265,cs),
(428.5,277,o),
(430,291.333,o),
(430,306,cs),
(430,333.897,o),
(426.998,351.893,o),
(414.5,375.5,cs),
(401.231,400.564,o),
(377.656,425.023,o),
(347,454.5,cs),
(329.667,471.167,o),
(309,489.667,o),
(285,511,cs),
(210.696,577.342,o),
(155.725,631.602,o),
(116.5,683,cs),
(78.04,733.396,o),
(57.628,779.348,o),
(47,828.5,cs),
(41.667,853.167,o),
(40,880,o),
(40,908,cs),
(40,981.847,o),
(55.256,1045.749,o),
(88,1093.5,cs),
(120.334,1140.653,o),
(167.714,1172.225,o),
(229.5,1188,cs),
(260.833,1196,o),
(296.333,1200,o),
(335,1200,cs),
(410.261,1200,o),
(471.511,1184.536,o),
(518.5,1155,cs),
(551.185,1134.455,o),
(592.251,1094.557,o),
(612,1020.5,cs),
(620,990.5,o),
(624,958.333,o),
(624,921,cs),
(624,833,l),
(404,833,l),
(404,833,l)
);
},
{
closed = 1;
nodes = (
(291,-70,l),
(482,-70,l),
(359,-380,l),
(194,-380,l),
(194,-380,l)
);
}
);
};
layerId = "4B056265-F7A9-4FE5-8F86-068480F74FC7";
shapes = (
{
ref = S;
},
{
pos = (91,0);
ref = commaaccentcomb;
}
);
width = 695;
}
);
unicode = 536;
},
{
glyphname = Germandbls;
lastChange = "2025-02-19 14:45:42 +0000";
layers = (
{
layerId = "4B056265-F7A9-4FE5-8F86-068480F74FC7";
shapes = (
{
closed = 1;
nodes = (
(338,233,l),
(353.601,221.299,o),
(350.302,223.828,o),
(367.5,214,cs),
(375.564,209.392,o),
(386.33,205.945,o),
(395,204.5,cs),
(397,204.167,o),
(399,203.833,o),
(401,203.5,cs),
(403,203.167,o),
(405,203,o),
(407,203,cs),
(427.398,203,o),
(443.424,216.82,o),
(454.5,243,cs),
(465.42,268.811,o),
(471,307.186,o),
(471,357,cs),
(471,394.764,o),
(467.883,425.444,o),
(460.5,453.5,cs),
(454.591,475.953,o),
(442.812,498.913,o),
(431,506,cs),
(424.333,510,o),
(418,513,o),
(410,513,cs),
(343,513,l),
(343,774,l),
(418,990,l),
(285,990,l),
(285,0,l),
(50,0,l),
(50,1190,l),
(694,1190,l),
(694,1076,l),
(507,567,l),
(444,624,l),
(505,623,o),
(572,598,o),
(618,554.5,cs),
(655.727,518.121,o),
(682.944,468.25,o),
(696,409.5,cs),
(702.667,379.5,o),
(706,347.667,o),
(706,313,cs),
(706,223.234,o),
(680.377,157.046,o),
(658.5,119,cs),
(632.042,72.985,o),
(591.328,30.135,o),
(532.5,6,cs),
(506.5,-4.667,o),
(478.333,-10,o),
(449,-10,cs),
(409,-10,o),
(372.667,0,o),
(338,20,c)
);
}
);
width = 710;
}
);
unicode = 7838;
},
{
glyphname = T;
kernLeft = T2;
kernRight = T;
lastChange = "2025-02-19 14:22:40 +0000";
layers = (
{
anchors = (
{
name = bottom;
pos = (318,0);
},
{
name = center;
pos = (318,595);
},
{
name = top;
pos = (318,1190);
}
);
background = {
anchors = (
{
name = bottom;
pos = (318,0);
},
{
name = center;
pos = (318,595);
},
{
name = top;
pos = (318,1190);
}
);
shapes = (
{
closed = 1;
nodes = (
(200,970,l),
(15,970,l),
(15,1190,l),
(620,1190,l),
(620,970,l),
(435,970,l),
(435,0,l),
(200,0,l),
(200,0,l)
);
}
);
};
layerId = "4B056265-F7A9-4FE5-8F86-068480F74FC7";
shapes = (
{
closed = 1;
nodes = (
(200,970,l),
(15,970,l),
(15,1190,l),
(620,1190,l),
(620,970,l),
(435,970,l),
(435,0,l),
(200,0,l),
(200,0,l)
);
}
);
width = 635;
}
);
unicode = 84;
},
{
glyphname = Tbar;
kernLeft = T2;
kernRight = T;
lastChange = "2025-02-19 14:22:40 +0000";
layers = (
{
background = {
shapes = (
{
closed = 1;
nodes = (
(106,844,l),
(200,844,l),
(200,970,l),
(15,970,l),
(15,1190,l),
(620,1190,l),
(620,970,l),
(435,970,l),
(435,844,l),
(529,844,l),
(529,664,l),
(435,664,l),
(435,0,l),
(200,0,l),
(200,664,l),
(106,664,l),
(106,664,l)
);
}
);
};
layerId = "4B056265-F7A9-4FE5-8F86-068480F74FC7";
shapes = (
{
closed = 1;
nodes = (
(106,844,l),
(200,844,l),
(200,970,l),
(15,970,l),
(15,1190,l),
(620,1190,l),
(620,970,l),
(435,970,l),
(435,844,l),
(529,844,l),
(529,664,l),
(435,664,l),
(435,0,l),
(200,0,l),
(200,664,l),
(106,664,l),
(106,664,l)
);
}
);
width = 635;
}
);
unicode = 358;
},
{
color = 4;
glyphname = Tcaron;
kernLeft = T2;
kernRight = T;
lastChange = "2025-02-19 14:29:37 +0000";
layers = (
{
background = {
shapes = (
{
closed = 1;
nodes = (
(200,970,l),
(15,970,l),
(15,1190,l),
(620,1190,l),
(620,970,l),
(435,970,l),
(435,0,l),
(200,0,l),
(200,0,l)
);
},
{
closed = 1;
nodes = (
(75,1545,l),
(233,1545,l),
(318,1395,l),
(404,1545,l),
(561,1545,l),
(436,1250,l),
(201,1250,l),
(201,1250,l)
);
}
);
};
layerId = "4B056265-F7A9-4FE5-8F86-068480F74FC7";
shapes = (
{
ref = T;
},
{
pos = (180,0);
ref = caroncomb.case;
}
);
width = 635;
}
);
unicode = 356;
},
{
color = 4;
glyphname = Tcedilla;
kernLeft = T2;
kernRight = T;
lastChange = "2025-02-19 14:38:47 +0000";
layers = (
{
background = {
shapes = (
{
closed = 1;
nodes = (
(200,970,l),
(15,970,l),
(15,1190,l),
(620,1190,l),
(620,970,l),
(435,970,l),
(435,0,l),
(200,0,l),
(200,0,l)
);
},
{
closed = 1;
nodes = (
(241,-70,l),
(432,-70,l),
(309,-380,l),
(144,-380,l),
(144,-380,l)
);
}
);
};
layerId = "4B056265-F7A9-4FE5-8F86-068480F74FC7";
shapes = (
{
ref = T;
},
{
pos = (152,0);
ref = cedillacomb;
}
);
width = 635;
}
);
unicode = 354;
},
{
color = 4;
glyphname = Tcommaaccent;
kernLeft = T2;
kernRight = T;
lastChange = "2025-02-19 14:33:57 +0000";
layers = (
{
background = {
shapes = (
{
closed = 1;
nodes = (
(200,970,l),
(15,970,l),
(15,1190,l),
(620,1190,l),
(620,970,l),
(435,970,l),
(435,0,l),
(200,0,l),
(200,0,l)
);
},
{
closed = 1;
nodes = (
(241,-70,l),
(432,-70,l),
(309,-380,l),
(144,-380,l),
(144,-380,l)
);
}
);
};
layerId = "4B056265-F7A9-4FE5-8F86-068480F74FC7";
shapes = (
{
ref = T;
},
{
pos = (61,0);
ref = commaaccentcomb;
}
);
width = 635;
}
);
unicode = 538;
},
{
glyphname = U;
kernLeft = U2;
kernRight = U;
lastChange = "2025-02-19 14:29:52 +0000";
layers = (
{
anchors = (
{
name = bottom;
pos = (363,0);
},
{
name = ogonek;
pos = (530,30);
},
{
name = top;
pos = (363,1190);
},
{
name = topright;
pos = (705,1190);
}
);
background = {
anchors = (
{
name = bottom;
pos = (363,0);
},
{
name = ogonek;
pos = (653,10);
},
{
name = top;
pos = (363,1190);
},
{
name = topright;
pos = (705,1190);
}
);
shapes = (
{
closed = 1;
nodes = (
(50,1190,l),
(285,1190,l),
(285,294,ls),
(285,274.84,o),
(290.339,261.564,o),
(300.5,248.5,cs),
(309.278,237.214,o),
(321.386,228.168,o),
(338.5,223.5,cs),
(345.833,221.5,o),
(355,220,o),
(363,220,cs),
(405.658,220,o),
(440,247.322,o),
(440,294,cs),
(440,1190,l),
(675,1190,l),
(675,294,ls),
(675,221.415,o),
(656.553,156.906,o),
(620.5,107.5,cs),
(583.922,57.375,o),
(536.184,23.595,o),
(469,4,cs),
(437,-5.333,o),
(401.667,-10,o),
(363,-10,cs),
(282.243,-10,o),
(218.981,10.486,o),
(170,44,cs),
(120.138,78.116,o),
(82.398,129.734,o),
(64,191.5,cs),
(54.667,222.833,o),
(50,256.667,o),
(50,294,cs)
);
}
);
};
layerId = "4B056265-F7A9-4FE5-8F86-068480F74FC7";
shapes = (
{
closed = 1;
nodes = (
(50,1190,l),
(285,1190,l),
(285,294,ls),
(285,274.84,o),
(290.339,261.564,o),
(300.5,248.5,cs),
(309.278,237.214,o),
(321.386,228.168,o),
(338.5,223.5,cs),
(345.833,221.5,o),
(355,220,o),
(363,220,cs),
(405.658,220,o),
(440,247.322,o),
(440,294,cs),
(440,1190,l),
(675,1190,l),
(675,294,ls),
(675,221.415,o),
(656.553,156.906,o),
(620.5,107.5,cs),
(583.922,57.375,o),
(536.184,23.595,o),
(469,4,cs),
(437,-5.333,o),
(401.667,-10,o),
(363,-10,cs),
(282.243,-10,o),
(218.981,10.486,o),
(170,44,cs),
(120.138,78.116,o),
(82.398,129.734,o),
(64,191.5,cs),
(54.667,222.833,o),
(50,256.667,o),
(50,294,cs)
);
}
);
width = 725;
}
);
unicode = 85;
},
{
color = 4;
glyphname = Uacute;
kernLeft = U2;
kernRight = U;
lastChange = "2025-02-19 14:29:43 +0000";
layers = (
{
background = {
shapes = (
{
closed = 1;
nodes = (
(50,1190,l),
(285,1190,l),
(285,294,ls),
(285,274.84,o),
(290.339,261.564,o),
(300.5,248.5,cs),
(309.278,237.214,o),
(321.386,228.168,o),
(338.5,223.5,cs),
(345.833,221.5,o),
(355,220,o),
(363,220,cs),
(405.658,220,o),
(440,247.322,o),
(440,294,cs),
(440,1190,l),
(675,1190,l),
(675,294,ls),
(675,221.415,o),
(656.553,156.906,o),
(620.5,107.5,cs),
(583.922,57.375,o),
(536.184,23.595,o),
(469,4,cs),
(437,-5.333,o),
(401.667,-10,o),
(363,-10,cs),
(282.243,-10,o),
(218.981,10.486,o),
(170,44,cs),
(120.138,78.116,o),
(82.398,129.734,o),
(64,191.5,cs),
(54.667,222.833,o),
(50,256.667,o),
(50,294,cs)
);
},
{
closed = 1;
nodes = (
(207,1250,l),
(345,1561,l),
(562,1561,l),
(379,1250,l),
(379,1250,l)
);
}
);
};
layerId = "4B056265-F7A9-4FE5-8F86-068480F74FC7";
shapes = (
{
ref = U;
},
{
pos = (252,0);
ref = acutecomb.case;
}
);
width = 725;
}
);
unicode = 218;
},
{
color = 4;
glyphname = Ubreve;
kernLeft = U2;
kernRight = U;
lastChange = "2025-02-19 14:29:43 +0000";
layers = (
{
background = {
shapes = (
{
closed = 1;
nodes = (
(50,1190,l),
(285,1190,l),
(285,294,ls),
(285,274.84,o),
(290.339,261.564,o),
(300.5,248.5,cs),
(309.278,237.214,o),
(321.386,228.168,o),
(338.5,223.5,cs),
(345.833,221.5,o),
(355,220,o),
(363,220,cs),
(405.658,220,o),
(440,247.322,o),
(440,294,cs),
(440,1190,l),
(675,1190,l),
(675,294,ls),
(675,221.415,o),
(656.553,156.906,o),
(620.5,107.5,cs),
(583.922,57.375,o),
(536.184,23.595,o),
(469,4,cs),
(437,-5.333,o),
(401.667,-10,o),
(363,-10,cs),
(282.243,-10,o),
(218.981,10.486,o),
(170,44,cs),
(120.138,78.116,o),
(82.398,129.734,o),
(64,191.5,cs),
(54.667,222.833,o),
(50,256.667,o),
(50,294,cs)
);
},
{
closed = 1;
nodes = (
(584,1482,l),
(584,1421.925,o),
(564.974,1376.362,o),
(543,1344.5,cs),
(517.701,1307.816,o),
(482.374,1277.125,o),
(435.5,1261.5,cs),
(413.5,1254.167,o),
(389.333,1250,o),
(364,1250,cs),
(314.495,1250,o),
(269.397,1265.91,o),
(234,1294.5,cs),
(196.354,1324.907,o),
(172.852,1360.55,o),
(157.5,1408,cs),
(150.167,1430.667,o),
(147,1455.333,o),
(147,1482,c),
(296,1482,l),
(296,1466.642,o),
(300.872,1448.692,o),
(309,1436.5,cs),
(319.338,1420.993,o),
(329.705,1414.318,o),
(343,1409,cs),
(349.667,1406.333,o),
(357,1405,o),
(365,1405,cs),
(378.272,1405,o),
(396.084,1409.949,o),
(407,1419.5,cs),
(418.31,1429.396,o),
(427.522,1442.915,o),
(431.5,1457.5,cs),
(433.5,1464.833,o),
(435,1474,o),
(435,1482,c)
);
}
);
};
layerId = "4B056265-F7A9-4FE5-8F86-068480F74FC7";
shapes = (
{
ref = U;
},
{
pos = (213,0);
ref = brevecomb.case;
}
);
width = 725;
}
);
unicode = 364;
},
{
color = 4;
glyphname = Ucircumflex;
kernLeft = U2;
kernRight = U;
lastChange = "2025-02-19 14:29:43 +0000";
layers = (
{
background = {
shapes = (
{
closed = 1;
nodes = (
(50,1190,l),
(285,1190,l),
(285,294,ls),
(285,274.84,o),
(290.339,261.564,o),
(300.5,248.5,cs),
(309.278,237.214,o),
(321.386,228.168,o),
(338.5,223.5,cs),
(345.833,221.5,o),
(355,220,o),
(363,220,cs),
(405.658,220,o),
(440,247.322,o),
(440,294,cs),
(440,1190,l),
(675,1190,l),
(675,294,ls),
(675,221.415,o),
(656.553,156.906,o),
(620.5,107.5,cs),
(583.922,57.375,o),
(536.184,23.595,o),
(469,4,cs),
(437,-5.333,o),
(401.667,-10,o),
(363,-10,cs),
(282.243,-10,o),
(218.981,10.486,o),
(170,44,cs),
(120.138,78.116,o),
(82.398,129.734,o),
(64,191.5,cs),
(54.667,222.833,o),
(50,256.667,o),
(50,294,cs)
);
},
{
closed = 1;
nodes = (
(241,1555,l),
(485,1555,l),
(615,1250,l),
(452,1250,l),
(364,1405,l),
(275,1250,l),
(111,1250,l),
(111,1250,l)
);
}
);
};
layerId = "4B056265-F7A9-4FE5-8F86-068480F74FC7";
shapes = (
{
ref = U;
},
{
pos = (249,0);
ref = circumflexcomb.case;
}
);
width = 725;
}
);
unicode = 219;
},
{
color = 4;
glyphname = Udieresis;
kernLeft = U2;
kernRight = U;
lastChange = "2025-02-19 14:29:43 +0000";
layers = (
{
background = {
shapes = (
{
closed = 1;
nodes = (
(50,1190,l),
(285,1190,l),
(285,294,ls),
(285,274.84,o),
(290.339,261.564,o),
(300.5,248.5,cs),
(309.278,237.214,o),
(321.386,228.168,o),
(338.5,223.5,cs),
(345.833,221.5,o),
(355,220,o),
(363,220,cs),
(405.658,220,o),
(440,247.322,o),
(440,294,cs),
(440,1190,l),
(675,1190,l),
(675,294,ls),
(675,221.415,o),
(656.553,156.906,o),
(620.5,107.5,cs),
(583.922,57.375,o),
(536.184,23.595,o),
(469,4,cs),
(437,-5.333,o),
(401.667,-10,o),
(363,-10,cs),
(282.243,-10,o),
(218.981,10.486,o),
(170,44,cs),
(120.138,78.116,o),
(82.398,129.734,o),
(64,191.5,cs),
(54.667,222.833,o),
(50,256.667,o),
(50,294,cs)
);
},
{
closed = 1;
nodes = (
(93,1395.403,o),
(100.885,1422.239,o),
(115,1442,cs),
(129.242,1461.939,o),
(147.352,1475.117,o),
(171,1483,cs),
(183,1487,o),
(194.667,1489,o),
(208,1489,cs),
(232.169,1489,o),
(255.82,1481.415,o),
(276,1467,cs),
(296.703,1452.212,o),
(309.053,1432.842,o),
(317,1409,cs),
(321,1397,o),
(323,1384.333,o),
(323,1371,cs),
(323,1345.442,o),
(315.19,1319.285,o),
(302,1299.5,cs),
(289.486,1280.729,o),
(266.092,1263.268,o),
(245.5,1256,cs),
(234.167,1252,o),
(221.333,1250,o),
(208,1250,cs),
(175.698,1250,o),
(156.872,1260.76,o),
(139.5,1273.5,cs),
(120.077,1287.744,o),
(107.421,1307.736,o),
(99,1333,cs),
(95,1345,o),
(93,1357.667,o),
(93,1371,cs)
);
},
{
closed = 1;
nodes = (
(399,1395.403,o),
(406.885,1422.239,o),
(421,1442,cs),
(435.242,1461.939,o),
(453.352,1475.117,o),
(477,1483,cs),
(489,1487,o),
(500.667,1489,o),
(514,1489,cs),
(538.169,1489,o),
(561.82,1481.415,o),
(582,1467,cs),
(602.703,1452.212,o),
(615.053,1432.842,o),
(623,1409,cs),
(627,1397,o),
(629,1384.333,o),
(629,1371,cs),
(629,1345.442,o),
(621.19,1319.285,o),
(608,1299.5,cs),
(595.486,1280.729,o),
(572.092,1263.268,o),
(551.5,1256,cs),
(540.167,1252,o),
(527.333,1250,o),
(514,1250,cs),
(481.698,1250,o),
(462.872,1260.76,o),
(445.5,1273.5,cs),
(426.077,1287.744,o),
(413.421,1307.736,o),
(405,1333,cs),
(401,1345,o),
(399,1357.667,o),
(399,1371,cs)
);
}
);
};
layerId = "4B056265-F7A9-4FE5-8F86-068480F74FC7";
shapes = (
{
ref = U;
},
{
pos = (68,0);
ref = dieresiscomb.case;
}
);
width = 725;
}
);
unicode = 220;
},
{
color = 4;
glyphname = Ugrave;
kernLeft = U2;
kernRight = U;
lastChange = "2025-02-19 14:29:43 +0000";
layers = (
{
background = {
shapes = (
{
closed = 1;
nodes = (
(50,1190,l),
(285,1190,l),
(285,294,ls),
(285,274.84,o),
(290.339,261.564,o),
(300.5,248.5,cs),
(309.278,237.214,o),
(321.386,228.168,o),
(338.5,223.5,cs),
(345.833,221.5,o),
(355,220,o),
(363,220,cs),
(405.658,220,o),
(440,247.322,o),
(440,294,cs),
(440,1190,l),
(675,1190,l),
(675,294,ls),
(675,221.415,o),
(656.553,156.906,o),
(620.5,107.5,cs),
(583.922,57.375,o),
(536.184,23.595,o),
(469,4,cs),
(437,-5.333,o),
(401.667,-10,o),
(363,-10,cs),
(282.243,-10,o),
(218.981,10.486,o),
(170,44,cs),
(120.138,78.116,o),
(82.398,129.734,o),
(64,191.5,cs),
(54.667,222.833,o),
(50,256.667,o),
(50,294,cs)
);
},
{
closed = 1;
nodes = (
(178,1561,l),
(395,1561,l),
(533,1250,l),
(361,1250,l),
(361,1250,l)
);
}
);
};
layerId = "4B056265-F7A9-4FE5-8F86-068480F74FC7";
shapes = (
{
ref = U;
},
{
pos = (153,0);
ref = gravecomb.case;
}
);
width = 725;
}
);
unicode = 217;
},
{
color = 4;
glyphname = Uhungarumlaut;
kernLeft = U2;
kernRight = U;
lastChange = "2025-02-19 14:29:43 +0000";
layers = (
{
background = {
shapes = (
{
closed = 1;
nodes = (
(50,1190,l),
(285,1190,l),
(285,294,ls),
(285,274.84,o),
(290.339,261.564,o),
(300.5,248.5,cs),
(309.278,237.214,o),
(321.386,228.168,o),
(338.5,223.5,cs),
(345.833,221.5,o),
(355,220,o),
(363,220,cs),
(405.658,220,o),
(440,247.322,o),
(440,294,cs),
(440,1190,l),
(675,1190,l),
(675,294,ls),
(675,221.415,o),
(656.553,156.906,o),
(620.5,107.5,cs),
(583.922,57.375,o),
(536.184,23.595,o),
(469,4,cs),
(437,-5.333,o),
(401.667,-10,o),
(363,-10,cs),
(282.243,-10,o),
(218.981,10.486,o),
(170,44,cs),
(120.138,78.116,o),
(82.398,129.734,o),
(64,191.5,cs),
(54.667,222.833,o),
(50,256.667,o),
(50,294,cs)
);
},
{
closed = 1;
nodes = (
(232,1539,l),
(419,1539,l),
(275,1250,l),
(131,1250,l),
(131,1250,l)
);
},
{
closed = 1;
nodes = (
(468,1539,l),
(655,1539,l),
(510,1250,l),
(366,1250,l),
(366,1250,l)
);
}
);
};
layerId = "4B056265-F7A9-4FE5-8F86-068480F74FC7";
shapes = (
{
ref = U;
},
{
pos = (216,0);
ref = hungarumlautcomb.case;
}
);
width = 725;
}
);
unicode = 368;
},
{
color = 4;
glyphname = Umacron;
kernLeft = U2;
kernRight = U;
lastChange = "2025-02-19 14:29:43 +0000";
layers = (
{
background = {
shapes = (
{
closed = 1;
nodes = (
(50,1190,l),
(285,1190,l),
(285,294,ls),
(285,274.84,o),
(290.339,261.564,o),
(300.5,248.5,cs),
(309.278,237.214,o),
(321.386,228.168,o),
(338.5,223.5,cs),
(345.833,221.5,o),
(355,220,o),
(363,220,cs),
(405.658,220,o),
(440,247.322,o),
(440,294,cs),
(440,1190,l),
(675,1190,l),
(675,294,ls),
(675,221.415,o),
(656.553,156.906,o),
(620.5,107.5,cs),
(583.922,57.375,o),
(536.184,23.595,o),
(469,4,cs),
(437,-5.333,o),
(401.667,-10,o),
(363,-10,cs),
(282.243,-10,o),
(218.981,10.486,o),
(170,44,cs),
(120.138,78.116,o),
(82.398,129.734,o),
(64,191.5,cs),
(54.667,222.833,o),
(50,256.667,o),
(50,294,cs)
);
},
{
closed = 1;
nodes = (
(151,1450,l),
(574,1450,l),
(574,1270,l),
(151,1270,l),
(151,1270,l)
);
}
);
};
layerId = "4B056265-F7A9-4FE5-8F86-068480F74FC7";
shapes = (
{
ref = U;
},
{
pos = (233,0);
ref = macroncomb.case;
}
);
width = 725;
}
);
unicode = 362;
},
{
color = 4;
glyphname = Uogonek;
kernLeft = U2;
kernRight = U;
lastChange = "2025-02-19 14:29:52 +0000";
layers = (
{
background = {
shapes = (
{
closed = 1;
nodes = (
(50,1190,l),
(285,1190,l),
(285,294,ls),
(285,274.84,o),
(290.339,261.564,o),
(300.5,248.5,cs),
(309.278,237.214,o),
(321.386,228.168,o),
(338.5,223.5,cs),
(345.833,221.5,o),
(355,220,o),
(363,220,cs),
(405.658,220,o),
(440,247.322,o),
(440,294,cs),
(440,1190,l),
(675,1190,l),
(675,294,ls),
(675,236.921,o),
(664.808,186.687,o),
(640.5,139.5,cs),
(616.829,93.551,o),
(584.318,60.033,o),
(543,35.5,cs),
(521.667,22.833,o),
(498.333,13,o),
(473,5,c),
(452.494,-8.67,o),
(445.107,-16.881,o),
(431.5,-32,cs),
(418.757,-46.159,o),
(411.716,-63.134,o),
(408.5,-76,cs),
(406.5,-84,o),
(405,-91,o),
(405,-99,cs),
(405,-122.345,o),
(415.852,-137.091,o),
(422.5,-143,cs),
(435.498,-154.553,o),
(455.489,-163.217,o),
(473,-166.5,cs),
(483.667,-168.5,o),
(495.667,-169,o),
(509,-169,c),
(509,-317,l),
(443.505,-317,o),
(392.93,-305.425,o),
(349.5,-287,cs),
(301.172,-266.497,o),
(274.664,-239.584,o),
(258.5,-208.5,cs),
(249.833,-191.833,o),
(246,-173.667,o),
(246,-155,cs),
(246,-133.922,o),
(251.378,-107.659,o),
(258,-90,cs),
(265.461,-70.103,o),
(280.359,-48.03,o),
(293.5,-32.5,cs),
(300.833,-23.833,o),
(308.667,-16,o),
(318,-8,c),
(253.636,-0.276,o),
(197.138,20.325,o),
(152,57,cs),
(106.903,93.642,o),
(77.101,143.63,o),
(62,199,cs),
(54,228.333,o),
(50,259.333,o),
(50,294,cs)
);
}
);
};
layerId = "4B056265-F7A9-4FE5-8F86-068480F74FC7";
shapes = (
{
ref = U;
},
{
pos = (249,30);
ref = ogonekcomb;
}
);
width = 725;
}
);
unicode = 370;
},
{
color = 4;
glyphname = Uring;
kernLeft = U2;
kernRight = U;
lastChange = "2025-02-19 14:29:43 +0000";
layers = (
{
background = {
shapes = (
{
closed = 1;
nodes = (
(50,1190,l),
(285,1190,l),
(285,294,ls),
(285,274.84,o),
(290.339,261.564,o),
(300.5,248.5,cs),
(309.278,237.214,o),
(321.386,228.168,o),
(338.5,223.5,cs),
(345.833,221.5,o),
(355,220,o),
(363,220,cs),
(405.658,220,o),
(440,247.322,o),
(440,294,cs),
(440,1190,l),
(675,1190,l),
(675,294,ls),
(675,221.415,o),
(656.553,156.906,o),
(620.5,107.5,cs),
(583.922,57.375,o),
(536.184,23.595,o),
(469,4,cs),
(437,-5.333,o),
(401.667,-10,o),
(363,-10,cs),
(282.243,-10,o),
(218.981,10.486,o),
(170,44,cs),
(120.138,78.116,o),
(82.398,129.734,o),
(64,191.5,cs),
(54.667,222.833,o),
(50,256.667,o),
(50,294,cs)
);
},
{
closed = 1;
nodes = (
(194,1467.625,o),
(204.431,1502.003,o),
(225.5,1531.5,cs),
(246.604,1561.045,o),
(276.841,1582.413,o),
(308,1592,cs),
(325.333,1597.333,o),
(343.333,1600,o),
(362,1600,cs),
(398.9,1600,o),
(436.566,1589.148,o),
(463,1568,cs),
(490.919,1545.665,o),
(510.862,1522.433,o),
(523,1484.5,cs),
(528.333,1467.833,o),
(531,1449,o),
(531,1429,cs),
(531,1389.112,o),
(520.103,1352.218,o),
(499.5,1322,cs),
(481.045,1294.933,o),
(450.844,1269.414,o),
(417,1259,cs),
(399.667,1253.667,o),
(382,1250,o),
(362,1250,cs),
(322.517,1250,o),
(288.291,1263.588,o),
(261.5,1284,cs),
(233.968,1304.977,o),
(212.95,1334.543,o),
(202,1371.5,cs),
(196.667,1389.5,o),
(194,1409,o),
(194,1429,cs)
);
},
{
closed = 1;
nodes = (
(321,1415.142,o),
(323.687,1403.97,o),
(329,1396,cs),
(333.267,1389.6,o),
(339.977,1381.721,o),
(349.5,1379,cs),
(354.167,1377.667,o),
(357.667,1377,o),
(363,1377,cs),
(373.146,1377,o),
(380.382,1379.506,o),
(388.5,1386,cs),
(394.74,1390.992,o),
(400.177,1399.621,o),
(403,1409.5,cs),
(404.333,1414.167,o),
(405,1419.667,o),
(405,1425,cs),
(405,1434.858,o),
(402.313,1446.03,o),
(397,1454,cs),
(392.733,1460.4,o),
(386.023,1468.279,o),
(376.5,1471,cs),
(371.833,1472.333,o),
(368.333,1473,o),
(363,1473,cs),
(352.854,1473,o),
(345.618,1470.494,o),
(337.5,1464,cs),
(331.26,1459.008,o),
(325.823,1450.379,o),
(323,1440.5,cs),
(321.667,1435.833,o),
(321,1430.333,o),
(321,1425,cs)
);
}
);
};
layerId = "4B056265-F7A9-4FE5-8F86-068480F74FC7";
shapes = (
{
ref = U;
},
{
pos = (224,0);
ref = ringcomb.case;
}
);
width = 725;
}
);
unicode = 366;
},
{
color = 4;
glyphname = Utilde;
kernLeft = U2;
kernRight = U;
lastChange = "2025-02-19 14:29:43 +0000";
layers = (
{
background = {
shapes = (
{
closed = 1;
nodes = (
(50,1190,l),
(285,1190,l),
(285,294,ls),
(285,274.84,o),
(290.339,261.564,o),
(300.5,248.5,cs),
(309.278,237.214,o),
(321.386,228.168,o),
(338.5,223.5,cs),
(345.833,221.5,o),
(355,220,o),
(363,220,cs),
(405.658,220,o),
(440,247.322,o),
(440,294,cs),
(440,1190,l),
(675,1190,l),
(675,294,ls),
(675,221.415,o),
(656.553,156.906,o),
(620.5,107.5,cs),
(583.922,57.375,o),
(536.184,23.595,o),
(469,4,cs),
(437,-5.333,o),
(401.667,-10,o),
(363,-10,cs),
(282.243,-10,o),
(218.981,10.486,o),
(170,44,cs),
(120.138,78.116,o),
(82.398,129.734,o),
(64,191.5,cs),
(54.667,222.833,o),
(50,256.667,o),
(50,294,cs)
);
},
{
closed = 1;
nodes = (
(123,1250,l),
(123,1307.219,o),
(130.624,1358.385,o),
(144,1394.5,cs),
(156.212,1427.472,o),
(180.094,1458.183,o),
(206.5,1469.5,cs),
(220.5,1475.5,o),
(234.667,1479,o),
(252,1479,cs),
(284.02,1479,o),
(309.669,1467.166,o),
(333,1455.5,cs),
(353.885,1445.058,o),
(373.6,1429.108,o),
(395.5,1419,cs),
(404.167,1415,o),
(412,1412,o),
(420,1412,cs),
(443.641,1412,o),
(460,1441.829,o),
(460,1479,c),
(610,1479,l),
(610,1325.667,o),
(568,1250,o),
(480,1250,cs),
(455.248,1250,o),
(427.146,1256.409,o),
(399,1274,cs),
(382.212,1284.493,o),
(359.044,1302.441,o),
(340.5,1311,cs),
(331.833,1315,o),
(323,1318,o),
(315,1318,cs),
(305.964,1318,o),
(295.229,1312.875,o),
(289.5,1306,cs),
(281.689,1296.627,o),
(278.975,1287.873,o),
(276,1273,cs),
(274.667,1266.333,o),
(274,1258,o),
(274,1250,c)
);
}
);
};
layerId = "4B056265-F7A9-4FE5-8F86-068480F74FC7";
shapes = (
{
ref = U;
},
{
pos = (213,0);
ref = tildecomb.case;
}
);
width = 725;
}
);
unicode = 360;
},
{
glyphname = V;
kernLeft = V2;
kernRight = V;
lastChange = "2025-02-19 14:22:40 +0000";
layers = (
{
anchors = (
{
name = bottom;
pos = (364,0);
},
{
name = top;
pos = (364,1190);
}
);
background = {
anchors = (
{
name = bottom;
pos = (364,0);
},
{
name = top;
pos = (364,1190);
}
);
shapes = (
{
closed = 1;
nodes = (
(339,423,ls),
(342.693,400.842,o),
(346.869,347.838,o),
(349,318,cs),
(351.643,280.998,o),
(352.187,240.764,o),
(353.5,204,cs),
(353.833,194.667,o),
(354,185.5,o),
(354,176.5,cs),
(354,167.5,o),
(354,158.667,o),
(354,150,c),
(374,150,l),
(374,196.866,o),
(374.886,213.687,o),
(376.5,260.5,cs),
(377.735,296.32,o),
(379.557,338.831,o),
(383.5,373,cs),
(384.5,381.667,o),
(385.333,390.167,o),
(386,398.5,cs),
(386.667,406.833,o),
(387.667,415,o),
(389,423,cs),
(483,1190,l),
(718,1190,l),
(532,0,l),
(196,0,l),
(10,1190,l),
(245,1190,l),
(245,1190,l)
);
}
);
};
layerId = "4B056265-F7A9-4FE5-8F86-068480F74FC7";
shapes = (
{
closed = 1;
nodes = (
(339,423,ls),
(342.693,400.842,o),
(346.869,347.838,o),
(349,318,cs),
(351.643,280.998,o),
(352.187,240.764,o),
(353.5,204,cs),
(353.833,194.667,o),
(354,185.5,o),
(354,176.5,cs),
(354,167.5,o),
(354,158.667,o),
(354,150,c),
(374,150,l),
(374,196.866,o),
(374.886,213.687,o),
(376.5,260.5,cs),
(377.735,296.32,o),
(379.557,338.831,o),
(383.5,373,cs),
(384.5,381.667,o),
(385.333,390.167,o),
(386,398.5,cs),
(386.667,406.833,o),
(387.667,415,o),
(389,423,cs),
(483,1190,l),
(718,1190,l),
(532,0,l),
(196,0,l),
(10,1190,l),
(245,1190,l),
(245,1190,l)
);
}
);
width = 728;
}
);
unicode = 86;
},
{
glyphname = W;
kernLeft = V2;
kernRight = V;
lastChange = "2025-02-19 14:22:40 +0000";
layers = (
{
anchors = (
{
name = bottom;
pos = (541,0);
},
{
name = top;
pos = (541,1190);
}
);
background = {
anchors = (
{
name = bottom;
pos = (541,0);
},
{
name = top;
pos = (541,1190);
}
);
shapes = (
{
closed = 1;
nodes = (
(315,583,ls),
(316.94,567.481,o),
(319.456,528.425,o),
(320.5,506.5,cs),
(321.167,492.5,o),
(322,476.833,o),
(322,461.5,cs),
(322,453.833,o),
(322.167,445.833,o),
(322.5,437.5,cs),
(322.833,429.167,o),
(323,420.667,o),
(323,412,cs),
(323,403.333,o),
(323,394.667,o),
(323,386,cs),
(323,377.333,o),
(323,368.333,o),
(323,359,cs),
(322,150,l),
(342,150,l),
(342,163.333,o),
(342.167,177.167,o),
(342.5,191.5,cs),
(342.833,205.833,o),
(343,220.333,o),
(343,235,cs),
(343,294.892,o),
(346.342,354.696,o),
(349,414.5,cs),
(351.32,466.69,o),
(357.369,540.006,o),
(364,582,cs),
(450,1190,l),
(631,1190,l),
(717,582,ls),
(723.631,540.006,o),
(729.68,466.69,o),
(732,414.5,cs),
(734.658,354.696,o),
(738,294.892,o),
(738,235,cs),
(738,220.333,o),
(738.167,205.833,o),
(738.5,191.5,cs),
(738.833,177.167,o),
(739,163.333,o),
(739,150,c),
(759,150,l),
(757,392,ls),
(757,395.333,o),
(757,399.5,o),
(757,404.5,cs),
(757,409.5,o),
(757,414.833,o),
(757,420.5,cs),
(757,426.167,o),
(757.167,432.167,o),
(757.5,438.5,cs),
(757.833,444.833,o),
(758,451.333,o),
(758,458,cs),
(758,492.284,o),
(760.917,511.261,o),
(762.5,544.5,cs),
(763.167,558.5,o),
(764.667,571,o),
(766,583,cs),
(836,1190,l),
(1071,1190,l),
(905,0,l),
(619,0,l),
(577,354,ls),
(572.454,397.187,o),
(564.741,475.885,o),
(561.5,524.5,cs),
(557.41,585.847,o),
(553.894,643.566,o),
(552.5,703.5,cs),
(552.167,717.833,o),
(551.833,731.833,o),
(551.5,745.5,cs),
(551.167,759.167,o),
(551,772.667,o),
(551,786,c),
(531,786,l),
(531,737.351,o),
(530.659,676.888,o),
(526.5,614.5,cs),
(522.542,555.131,o),
(519.661,495.445,o),
(514,436,cs),
(512.667,422,o),
(511.167,408,o),
(509.5,394,cs),
(507.833,380,o),
(506.333,366.667,o),
(505,354,cs),
(462,0,l),
(176,0,l),
(10,1190,l),
(245,1190,l),
(245,1190,l)
);
}
);
};
layerId = "4B056265-F7A9-4FE5-8F86-068480F74FC7";
shapes = (
{
closed = 1;
nodes = (
(315,583,ls),
(316.94,567.481,o),
(319.456,528.425,o),
(320.5,506.5,cs),
(321.167,492.5,o),
(322,476.833,o),
(322,461.5,cs),
(322,453.833,o),
(322.167,445.833,o),
(322.5,437.5,cs),
(322.833,429.167,o),
(323,420.667,o),
(323,412,cs),
(323,403.333,o),
(323,394.667,o),
(323,386,cs),
(323,377.333,o),
(323,368.333,o),
(323,359,cs),
(322,150,l),
(342,150,l),
(342,163.333,o),
(342.167,177.167,o),
(342.5,191.5,cs),
(342.833,205.833,o),
(343,220.333,o),
(343,235,cs),
(343,294.892,o),
(346.342,354.696,o),
(349,414.5,cs),
(351.32,466.69,o),
(357.369,540.006,o),
(364,582,cs),
(450,1190,l),
(631,1190,l),
(717,582,ls),
(723.631,540.006,o),
(729.68,466.69,o),
(732,414.5,cs),
(734.658,354.696,o),
(738,294.892,o),
(738,235,cs),
(738,220.333,o),
(738.167,205.833,o),
(738.5,191.5,cs),
(738.833,177.167,o),
(739,163.333,o),
(739,150,c),
(759,150,l),
(757,392,ls),
(757,395.333,o),
(757,399.5,o),
(757,404.5,cs),
(757,409.5,o),
(757,414.833,o),
(757,420.5,cs),
(757,426.167,o),
(757.167,432.167,o),
(757.5,438.5,cs),
(757.833,444.833,o),
(758,451.333,o),
(758,458,cs),
(758,492.284,o),
(760.917,511.261,o),
(762.5,544.5,cs),
(763.167,558.5,o),
(764.667,571,o),
(766,583,cs),
(836,1190,l),
(1071,1190,l),
(905,0,l),
(619,0,l),
(577,354,ls),
(572.454,397.187,o),
(564.741,475.885,o),
(561.5,524.5,cs),
(557.41,585.847,o),
(553.894,643.566,o),
(552.5,703.5,cs),
(552.167,717.833,o),
(551.833,731.833,o),
(551.5,745.5,cs),
(551.167,759.167,o),
(551,772.667,o),
(551,786,c),
(531,786,l),
(531,737.351,o),
(530.659,676.888,o),
(526.5,614.5,cs),
(522.542,555.131,o),
(519.661,495.445,o),
(514,436,cs),
(512.667,422,o),
(511.167,408,o),
(509.5,394,cs),
(507.833,380,o),
(506.333,366.667,o),
(505,354,cs),
(462,0,l),
(176,0,l),
(10,1190,l),
(245,1190,l),
(245,1190,l)
);
}
);
width = 1081;
}
);
unicode = 87;
},
{
color = 4;
glyphname = Wacute;
kernLeft = V2;
kernRight = V;
lastChange = "2025-02-19 14:29:58 +0000";
layers = (
{
background = {
shapes = (
{
closed = 1;
nodes = (
(315,583,ls),
(316.94,567.481,o),
(319.456,528.425,o),
(320.5,506.5,cs),
(321.167,492.5,o),
(322,476.833,o),
(322,461.5,cs),
(322,453.833,o),
(322.167,445.833,o),
(322.5,437.5,cs),
(322.833,429.167,o),
(323,420.667,o),
(323,412,cs),
(323,403.333,o),
(323,394.667,o),
(323,386,cs),
(323,377.333,o),
(323,368.333,o),
(323,359,cs),
(322,150,l),
(342,150,l),
(342,163.333,o),
(342.167,177.167,o),
(342.5,191.5,cs),
(342.833,205.833,o),
(343,220.333,o),
(343,235,cs),
(343,294.892,o),
(346.342,354.696,o),
(349,414.5,cs),
(351.32,466.69,o),
(357.369,540.006,o),
(364,582,cs),
(450,1190,l),
(631,1190,l),
(717,582,ls),
(723.631,540.006,o),
(729.68,466.69,o),
(732,414.5,cs),
(734.658,354.696,o),
(738,294.892,o),
(738,235,cs),
(738,220.333,o),
(738.167,205.833,o),
(738.5,191.5,cs),
(738.833,177.167,o),
(739,163.333,o),
(739,150,c),
(759,150,l),
(757,392,ls),
(757,395.333,o),
(757,399.5,o),
(757,404.5,cs),
(757,409.5,o),
(757,414.833,o),
(757,420.5,cs),
(757,426.167,o),
(757.167,432.167,o),
(757.5,438.5,cs),
(757.833,444.833,o),
(758,451.333,o),
(758,458,cs),
(758,492.284,o),
(760.917,511.261,o),
(762.5,544.5,cs),
(763.167,558.5,o),
(764.667,571,o),
(766,583,cs),
(836,1190,l),
(1071,1190,l),
(905,0,l),
(619,0,l),
(577,354,ls),
(572.454,397.187,o),
(564.741,475.885,o),
(561.5,524.5,cs),
(557.41,585.847,o),
(553.894,643.566,o),
(552.5,703.5,cs),
(552.167,717.833,o),
(551.833,731.833,o),
(551.5,745.5,cs),
(551.167,759.167,o),
(551,772.667,o),
(551,786,c),
(531,786,l),
(531,737.351,o),
(530.659,676.888,o),
(526.5,614.5,cs),
(522.542,555.131,o),
(519.661,495.445,o),
(514,436,cs),
(512.667,422,o),
(511.167,408,o),
(509.5,394,cs),
(507.833,380,o),
(506.333,366.667,o),
(505,354,cs),
(462,0,l),
(176,0,l),
(10,1190,l),
(245,1190,l),
(245,1190,l)
);
},
{
closed = 1;
nodes = (
(425,1250,l),
(563,1561,l),
(780,1561,l),
(597,1250,l),
(597,1250,l)
);
}
);
};
layerId = "4B056265-F7A9-4FE5-8F86-068480F74FC7";
shapes = (
{
ref = W;
},
{
pos = (430,0);
ref = acutecomb.case;
}
);
width = 1081;
}
);
unicode = 7810;
},
{
color = 4;
glyphname = Wcircumflex;
kernLeft = V2;
kernRight = V;
lastChange = "2025-02-19 14:29:58 +0000";
layers = (
{
background = {
shapes = (
{
closed = 1;
nodes = (
(315,583,ls),
(316.94,567.481,o),
(319.456,528.425,o),
(320.5,506.5,cs),
(321.167,492.5,o),
(322,476.833,o),
(322,461.5,cs),
(322,453.833,o),
(322.167,445.833,o),
(322.5,437.5,cs),
(322.833,429.167,o),
(323,420.667,o),
(323,412,cs),
(323,403.333,o),
(323,394.667,o),
(323,386,cs),
(323,377.333,o),
(323,368.333,o),
(323,359,cs),
(322,150,l),
(342,150,l),
(342,163.333,o),
(342.167,177.167,o),
(342.5,191.5,cs),
(342.833,205.833,o),
(343,220.333,o),
(343,235,cs),
(343,294.892,o),
(346.342,354.696,o),
(349,414.5,cs),
(351.32,466.69,o),
(357.369,540.006,o),
(364,582,cs),
(450,1190,l),
(631,1190,l),
(717,582,ls),
(723.631,540.006,o),
(729.68,466.69,o),
(732,414.5,cs),
(734.658,354.696,o),
(738,294.892,o),
(738,235,cs),
(738,220.333,o),
(738.167,205.833,o),
(738.5,191.5,cs),
(738.833,177.167,o),
(739,163.333,o),
(739,150,c),
(759,150,l),
(757,392,ls),
(757,395.333,o),
(757,399.5,o),
(757,404.5,cs),
(757,409.5,o),
(757,414.833,o),
(757,420.5,cs),
(757,426.167,o),
(757.167,432.167,o),
(757.5,438.5,cs),
(757.833,444.833,o),
(758,451.333,o),
(758,458,cs),
(758,492.284,o),
(760.917,511.261,o),
(762.5,544.5,cs),
(763.167,558.5,o),
(764.667,571,o),
(766,583,cs),
(836,1190,l),
(1071,1190,l),
(905,0,l),
(619,0,l),
(577,354,ls),
(572.454,397.187,o),
(564.741,475.885,o),
(561.5,524.5,cs),
(557.41,585.847,o),
(553.894,643.566,o),
(552.5,703.5,cs),
(552.167,717.833,o),
(551.833,731.833,o),
(551.5,745.5,cs),
(551.167,759.167,o),
(551,772.667,o),
(551,786,c),
(531,786,l),
(531,737.351,o),
(530.659,676.888,o),
(526.5,614.5,cs),
(522.542,555.131,o),
(519.661,495.445,o),
(514,436,cs),
(512.667,422,o),
(511.167,408,o),
(509.5,394,cs),
(507.833,380,o),
(506.333,366.667,o),
(505,354,cs),
(462,0,l),
(176,0,l),
(10,1190,l),
(245,1190,l),
(245,1190,l)
);
},
{
closed = 1;
nodes = (
(419,1555,l),
(663,1555,l),
(793,1250,l),
(630,1250,l),
(542,1405,l),
(453,1250,l),
(289,1250,l),
(289,1250,l)
);
}
);
};
layerId = "4B056265-F7A9-4FE5-8F86-068480F74FC7";
shapes = (
{
ref = W;
},
{
pos = (427,0);
ref = circumflexcomb.case;
}
);
width = 1081;
}
);
unicode = 372;
},
{
color = 4;
glyphname = Wdieresis;
kernLeft = V2;
kernRight = V;
lastChange = "2025-02-19 14:29:58 +0000";
layers = (
{
background = {
shapes = (
{
closed = 1;
nodes = (
(315,583,ls),
(316.94,567.481,o),
(319.456,528.425,o),
(320.5,506.5,cs),
(321.167,492.5,o),
(322,476.833,o),
(322,461.5,cs),
(322,453.833,o),
(322.167,445.833,o),
(322.5,437.5,cs),
(322.833,429.167,o),
(323,420.667,o),
(323,412,cs),
(323,403.333,o),
(323,394.667,o),
(323,386,cs),
(323,377.333,o),
(323,368.333,o),
(323,359,cs),
(322,150,l),
(342,150,l),
(342,163.333,o),
(342.167,177.167,o),
(342.5,191.5,cs),
(342.833,205.833,o),
(343,220.333,o),
(343,235,cs),
(343,294.892,o),
(346.342,354.696,o),
(349,414.5,cs),
(351.32,466.69,o),
(357.369,540.006,o),
(364,582,cs),
(450,1190,l),
(631,1190,l),
(717,582,ls),
(723.631,540.006,o),
(729.68,466.69,o),
(732,414.5,cs),
(734.658,354.696,o),
(738,294.892,o),
(738,235,cs),
(738,220.333,o),
(738.167,205.833,o),
(738.5,191.5,cs),
(738.833,177.167,o),
(739,163.333,o),
(739,150,c),
(759,150,l),
(757,392,ls),
(757,395.333,o),
(757,399.5,o),
(757,404.5,cs),
(757,409.5,o),
(757,414.833,o),
(757,420.5,cs),
(757,426.167,o),
(757.167,432.167,o),
(757.5,438.5,cs),
(757.833,444.833,o),
(758,451.333,o),
(758,458,cs),
(758,492.284,o),
(760.917,511.261,o),
(762.5,544.5,cs),
(763.167,558.5,o),
(764.667,571,o),
(766,583,cs),
(836,1190,l),
(1071,1190,l),
(905,0,l),
(619,0,l),
(577,354,ls),
(572.454,397.187,o),
(564.741,475.885,o),
(561.5,524.5,cs),
(557.41,585.847,o),
(553.894,643.566,o),
(552.5,703.5,cs),
(552.167,717.833,o),
(551.833,731.833,o),
(551.5,745.5,cs),
(551.167,759.167,o),
(551,772.667,o),
(551,786,c),
(531,786,l),
(531,737.351,o),
(530.659,676.888,o),
(526.5,614.5,cs),
(522.542,555.131,o),
(519.661,495.445,o),
(514,436,cs),
(512.667,422,o),
(511.167,408,o),
(509.5,394,cs),
(507.833,380,o),
(506.333,366.667,o),
(505,354,cs),
(462,0,l),
(176,0,l),
(10,1190,l),
(245,1190,l),
(245,1190,l)
);
},
{
closed = 1;
nodes = (
(271,1395.403,o),
(278.885,1422.239,o),
(293,1442,cs),
(307.242,1461.939,o),
(325.352,1475.117,o),
(349,1483,cs),
(361,1487,o),
(372.667,1489,o),
(386,1489,cs),
(410.169,1489,o),
(433.82,1481.415,o),
(454,1467,cs),
(474.703,1452.212,o),
(487.053,1432.842,o),
(495,1409,cs),
(499,1397,o),
(501,1384.333,o),
(501,1371,cs),
(501,1345.442,o),
(493.19,1319.285,o),
(480,1299.5,cs),
(467.486,1280.729,o),
(444.092,1263.268,o),
(423.5,1256,cs),
(412.167,1252,o),
(399.333,1250,o),
(386,1250,cs),
(353.698,1250,o),
(334.872,1260.76,o),
(317.5,1273.5,cs),
(298.077,1287.744,o),
(285.421,1307.736,o),
(277,1333,cs),
(273,1345,o),
(271,1357.667,o),
(271,1371,cs)
);
},
{
closed = 1;
nodes = (
(577,1395.403,o),
(584.885,1422.239,o),
(599,1442,cs),
(613.242,1461.939,o),
(631.352,1475.117,o),
(655,1483,cs),
(667,1487,o),
(678.667,1489,o),
(692,1489,cs),
(716.169,1489,o),
(739.82,1481.415,o),
(760,1467,cs),
(780.703,1452.212,o),
(793.053,1432.842,o),
(801,1409,cs),
(805,1397,o),
(807,1384.333,o),
(807,1371,cs),
(807,1345.442,o),
(799.19,1319.285,o),
(786,1299.5,cs),
(773.486,1280.729,o),
(750.092,1263.268,o),
(729.5,1256,cs),
(718.167,1252,o),
(705.333,1250,o),
(692,1250,cs),
(659.698,1250,o),
(640.872,1260.76,o),
(623.5,1273.5,cs),
(604.077,1287.744,o),
(591.421,1307.736,o),
(583,1333,cs),
(579,1345,o),
(577,1357.667,o),
(577,1371,cs)
);
}
);
};
layerId = "4B056265-F7A9-4FE5-8F86-068480F74FC7";
shapes = (
{
ref = W;
},
{
pos = (246,0);
ref = dieresiscomb.case;
}
);
width = 1081;
}
);
unicode = 7812;
},
{
color = 4;
glyphname = Wgrave;
kernLeft = V2;
kernRight = V;
lastChange = "2025-02-19 14:29:58 +0000";
layers = (
{
background = {
shapes = (
{
closed = 1;
nodes = (
(315,583,ls),
(316.94,567.481,o),
(319.456,528.425,o),
(320.5,506.5,cs),
(321.167,492.5,o),
(322,476.833,o),
(322,461.5,cs),
(322,453.833,o),
(322.167,445.833,o),
(322.5,437.5,cs),
(322.833,429.167,o),
(323,420.667,o),
(323,412,cs),
(323,403.333,o),
(323,394.667,o),
(323,386,cs),
(323,377.333,o),
(323,368.333,o),
(323,359,cs),
(322,150,l),
(342,150,l),
(342,163.333,o),
(342.167,177.167,o),
(342.5,191.5,cs),
(342.833,205.833,o),
(343,220.333,o),
(343,235,cs),
(343,294.892,o),
(346.342,354.696,o),
(349,414.5,cs),
(351.32,466.69,o),
(357.369,540.006,o),
(364,582,cs),
(450,1190,l),
(631,1190,l),
(717,582,ls),
(723.631,540.006,o),
(729.68,466.69,o),
(732,414.5,cs),
(734.658,354.696,o),
(738,294.892,o),
(738,235,cs),
(738,220.333,o),
(738.167,205.833,o),
(738.5,191.5,cs),
(738.833,177.167,o),
(739,163.333,o),
(739,150,c),
(759,150,l),
(757,392,ls),
(757,395.333,o),
(757,399.5,o),
(757,404.5,cs),
(757,409.5,o),
(757,414.833,o),
(757,420.5,cs),
(757,426.167,o),
(757.167,432.167,o),
(757.5,438.5,cs),
(757.833,444.833,o),
(758,451.333,o),
(758,458,cs),
(758,492.284,o),
(760.917,511.261,o),
(762.5,544.5,cs),
(763.167,558.5,o),
(764.667,571,o),
(766,583,cs),
(836,1190,l),
(1071,1190,l),
(905,0,l),
(619,0,l),
(577,354,ls),
(572.454,397.187,o),
(564.741,475.885,o),
(561.5,524.5,cs),
(557.41,585.847,o),
(553.894,643.566,o),
(552.5,703.5,cs),
(552.167,717.833,o),
(551.833,731.833,o),
(551.5,745.5,cs),
(551.167,759.167,o),
(551,772.667,o),
(551,786,c),
(531,786,l),
(531,737.351,o),
(530.659,676.888,o),
(526.5,614.5,cs),
(522.542,555.131,o),
(519.661,495.445,o),
(514,436,cs),
(512.667,422,o),
(511.167,408,o),
(509.5,394,cs),
(507.833,380,o),
(506.333,366.667,o),
(505,354,cs),
(462,0,l),
(176,0,l),
(10,1190,l),
(245,1190,l),
(245,1190,l)
);
},
{
closed = 1;
nodes = (
(316,1561,l),
(533,1561,l),
(671,1250,l),
(499,1250,l),
(499,1250,l)
);
}
);
};
layerId = "4B056265-F7A9-4FE5-8F86-068480F74FC7";
shapes = (
{
ref = W;
},
{
pos = (331,0);
ref = gravecomb.case;
}
);
width = 1081;
}
);
unicode = 7808;
},
{
glyphname = X;
lastChange = "2025-02-19 14:22:40 +0000";
layers = (
{
anchors = (
{
name = bottom;
pos = (394,0);
},
{
name = top;
pos = (394,1190);
}
);
background = {
anchors = (
{
name = bottom;
pos = (394,0);
},
{
name = top;
pos = (394,1190);
}
);
shapes = (
{
closed = 1;
nodes = (
(365,907,ls),
(369.893,892.32,o),
(375.862,871.398,o),
(378,857.5,cs),
(382.047,831.196,o),
(382.233,844.204,o),
(385.5,805,cs),
(386.167,797,o),
(387,788,o),
(387,780,c),
(407,780,l),
(407,797.432,o),
(408.379,814.466,o),
(411,831.5,cs),
(414.251,852.63,o),
(419.136,875.192,o),
(422,884.5,cs),
(423.333,888.833,o),
(424.5,892.833,o),
(425.5,896.5,cs),
(426.5,900.167,o),
(427.667,904,o),
(429,908,cs),
(522,1190,l),
(757,1190,l),
(526,595,l),
(757,0,l),
(522,0,l),
(427,311,ls),
(421.468,327.597,o),
(416.499,346.51,o),
(414,364,cs),
(410.454,388.819,o),
(409.289,381.241,o),
(406.5,417.5,cs),
(406.167,421.833,o),
(405.833,426,o),
(405.5,430,cs),
(405.167,434,o),
(405,438,o),
(405,442,c),
(385,442,l),
(385,412.751,o),
(384.202,401.832,o),
(382.5,378,cs),
(381.088,358.23,o),
(377.386,345.931,o),
(374,329,cs),
(373.333,325.667,o),
(372.5,322.333,o),
(371.5,319,cs),
(370.5,315.667,o),
(369.667,312.667,o),
(369,310,cs),
(270,0,l),
(30,0,l),
(261,595,l),
(30,1190,l),
(270,1190,l),
(270,1190,l)
);
}
);
};
layerId = "4B056265-F7A9-4FE5-8F86-068480F74FC7";
shapes = (
{
closed = 1;
nodes = (
(365,907,ls),
(369.893,892.32,o),
(375.862,871.398,o),
(378,857.5,cs),
(382.047,831.196,o),
(382.233,844.204,o),
(385.5,805,cs),
(386.167,797,o),
(387,788,o),
(387,780,c),
(407,780,l),
(407,797.432,o),
(408.379,814.466,o),
(411,831.5,cs),
(414.251,852.63,o),
(419.136,875.192,o),
(422,884.5,cs),
(423.333,888.833,o),
(424.5,892.833,o),
(425.5,896.5,cs),
(426.5,900.167,o),
(427.667,904,o),
(429,908,cs),
(522,1190,l),
(757,1190,l),
(526,595,l),
(757,0,l),
(522,0,l),
(427,311,ls),
(421.468,327.597,o),
(416.499,346.51,o),
(414,364,cs),
(410.454,388.819,o),
(409.289,381.241,o),
(406.5,417.5,cs),
(406.167,421.833,o),
(405.833,426,o),
(405.5,430,cs),
(405.167,434,o),
(405,438,o),
(405,442,c),
(385,442,l),
(385,412.751,o),
(384.202,401.832,o),
(382.5,378,cs),
(381.088,358.23,o),
(377.386,345.931,o),
(374,329,cs),
(373.333,325.667,o),
(372.5,322.333,o),
(371.5,319,cs),
(370.5,315.667,o),
(369.667,312.667,o),
(369,310,cs),
(270,0,l),
(30,0,l),
(261,595,l),
(30,1190,l),
(270,1190,l),
(270,1190,l)
);
}
);
width = 787;
}
);
unicode = 88;
},
{
glyphname = Y;
kernLeft = V2;
kernRight = V;
lastChange = "2025-02-19 14:22:40 +0000";
layers = (
{
anchors = (
{
name = bottom;
pos = (354,0);
},
{
name = top;
pos = (354,1190);
},
{
name = topleft;
pos = (20,1190);
}
);
background = {
anchors = (
{
name = bottom;
pos = (354,0);
},
{
name = top;
pos = (354,1190);
},
{
name = topleft;
pos = (20,1190);
}
);
shapes = (
{
closed = 1;
nodes = (
(312,863,ls),
(323.058,815.084,o),
(324.428,808.004,o),
(332,755,cs),
(337.023,719.84,o),
(341.352,674.837,o),
(342.5,645,cs),
(342.833,636.333,o),
(343.167,627.833,o),
(343.5,619.5,cs),
(343.833,611.167,o),
(344,603,o),
(344,595,c),
(364,595,l),
(364,623.713,o),
(365.889,665.296,o),
(369.5,699,cs),
(373.392,735.324,o),
(377.698,773.772,o),
(384.5,810.5,cs),
(387.833,828.5,o),
(392,845.667,o),
(396,863,cs),
(473,1190,l),
(708,1190,l),
(472,419,l),
(472,0,l),
(237,0,l),
(237,419,l),
(0,1190,l),
(235,1190,l),
(235,1190,l)
);
}
);
};
layerId = "4B056265-F7A9-4FE5-8F86-068480F74FC7";
shapes = (
{
closed = 1;
nodes = (
(312,863,ls),
(323.058,815.084,o),
(324.428,808.004,o),
(332,755,cs),
(337.023,719.84,o),
(341.352,674.837,o),
(342.5,645,cs),
(342.833,636.333,o),
(343.167,627.833,o),
(343.5,619.5,cs),
(343.833,611.167,o),
(344,603,o),
(344,595,c),
(364,595,l),
(364,623.713,o),
(365.889,665.296,o),
(369.5,699,cs),
(373.392,735.324,o),
(377.698,773.772,o),
(384.5,810.5,cs),
(387.833,828.5,o),
(392,845.667,o),
(396,863,cs),
(473,1190,l),
(708,1190,l),
(472,419,l),
(472,0,l),
(237,0,l),
(237,419,l),
(0,1190,l),
(235,1190,l),
(235,1190,l)
);
}
);
width = 708;
}
);
unicode = 89;
},
{
color = 4;
glyphname = Yacute;
kernLeft = V2;
kernRight = V;
lastChange = "2025-02-19 14:30:06 +0000";
layers = (
{
background = {
shapes = (
{
closed = 1;
nodes = (
(312,863,ls),
(323.058,815.084,o),
(324.428,808.004,o),
(332,755,cs),
(337.023,719.84,o),
(341.352,674.837,o),
(342.5,645,cs),
(342.833,636.333,o),
(343.167,627.833,o),
(343.5,619.5,cs),
(343.833,611.167,o),
(344,603,o),
(344,595,c),
(364,595,l),
(364,623.713,o),
(365.889,665.296,o),
(369.5,699,cs),
(373.392,735.324,o),
(377.698,773.772,o),
(384.5,810.5,cs),
(387.833,828.5,o),
(392,845.667,o),
(396,863,cs),
(473,1190,l),
(708,1190,l),
(472,419,l),
(472,0,l),
(237,0,l),
(237,419,l),
(0,1190,l),
(235,1190,l),
(235,1190,l)
);
},
{
closed = 1;
nodes = (
(198,1250,l),
(336,1561,l),
(553,1561,l),
(370,1250,l),
(370,1250,l)
);
}
);
};
layerId = "4B056265-F7A9-4FE5-8F86-068480F74FC7";
shapes = (
{
ref = Y;
},
{
pos = (243,0);
ref = acutecomb.case;
}
);
width = 708;
}
);
unicode = 221;
},
{
color = 4;
glyphname = Ycircumflex;
kernLeft = V2;
kernRight = V;
lastChange = "2025-02-19 14:30:06 +0000";
layers = (
{
background = {
shapes = (
{
closed = 1;
nodes = (
(312,863,ls),
(323.058,815.084,o),
(324.428,808.004,o),
(332,755,cs),
(337.023,719.84,o),
(341.352,674.837,o),
(342.5,645,cs),
(342.833,636.333,o),
(343.167,627.833,o),
(343.5,619.5,cs),
(343.833,611.167,o),
(344,603,o),
(344,595,c),
(364,595,l),
(364,623.713,o),
(365.889,665.296,o),
(369.5,699,cs),
(373.392,735.324,o),
(377.698,773.772,o),
(384.5,810.5,cs),
(387.833,828.5,o),
(392,845.667,o),
(396,863,cs),
(473,1190,l),
(708,1190,l),
(472,419,l),
(472,0,l),
(237,0,l),
(237,419,l),
(0,1190,l),
(235,1190,l),
(235,1190,l)
);
},
{
closed = 1;
nodes = (
(233,1555,l),
(477,1555,l),
(607,1250,l),
(444,1250,l),
(356,1405,l),
(267,1250,l),
(103,1250,l),
(103,1250,l)
);
}
);
};
layerId = "4B056265-F7A9-4FE5-8F86-068480F74FC7";
shapes = (
{
ref = Y;
},
{
pos = (240,0);
ref = circumflexcomb.case;
}
);
width = 708;
}
);
unicode = 374;
},
{
color = 4;
glyphname = Ydieresis;
kernLeft = V2;
kernRight = V;
lastChange = "2025-02-19 14:30:06 +0000";
layers = (
{
background = {
shapes = (
{
closed = 1;
nodes = (
(312,863,ls),
(323.058,815.084,o),
(324.428,808.004,o),
(332,755,cs),
(337.023,719.84,o),
(341.352,674.837,o),
(342.5,645,cs),
(342.833,636.333,o),
(343.167,627.833,o),
(343.5,619.5,cs),
(343.833,611.167,o),
(344,603,o),
(344,595,c),
(364,595,l),
(364,623.713,o),
(365.889,665.296,o),
(369.5,699,cs),
(373.392,735.324,o),
(377.698,773.772,o),
(384.5,810.5,cs),
(387.833,828.5,o),
(392,845.667,o),
(396,863,cs),
(473,1190,l),
(708,1190,l),
(472,419,l),
(472,0,l),
(237,0,l),
(237,419,l),
(0,1190,l),
(235,1190,l),
(235,1190,l)
);
},
{
closed = 1;
nodes = (
(85,1395.403,o),
(92.885,1422.239,o),
(107,1442,cs),
(121.242,1461.939,o),
(139.352,1475.117,o),
(163,1483,cs),
(175,1487,o),
(186.667,1489,o),
(200,1489,cs),
(224.169,1489,o),
(247.82,1481.415,o),
(268,1467,cs),
(288.703,1452.212,o),
(301.053,1432.842,o),
(309,1409,cs),
(313,1397,o),
(315,1384.333,o),
(315,1371,cs),
(315,1345.442,o),
(307.19,1319.285,o),
(294,1299.5,cs),
(281.486,1280.729,o),
(258.092,1263.268,o),
(237.5,1256,cs),
(226.167,1252,o),
(213.333,1250,o),
(200,1250,cs),
(167.698,1250,o),
(148.872,1260.76,o),
(131.5,1273.5,cs),
(112.077,1287.744,o),
(99.421,1307.736,o),
(91,1333,cs),
(87,1345,o),
(85,1357.667,o),
(85,1371,cs)
);
},
{
closed = 1;
nodes = (
(391,1395.403,o),
(398.885,1422.239,o),
(413,1442,cs),
(427.242,1461.939,o),
(445.352,1475.117,o),
(469,1483,cs),
(481,1487,o),
(492.667,1489,o),
(506,1489,cs),
(530.169,1489,o),
(553.82,1481.415,o),
(574,1467,cs),
(594.703,1452.212,o),
(607.053,1432.842,o),
(615,1409,cs),
(619,1397,o),
(621,1384.333,o),
(621,1371,cs),
(621,1345.442,o),
(613.19,1319.285,o),
(600,1299.5,cs),
(587.486,1280.729,o),
(564.092,1263.268,o),
(543.5,1256,cs),
(532.167,1252,o),
(519.333,1250,o),
(506,1250,cs),
(473.698,1250,o),
(454.872,1260.76,o),
(437.5,1273.5,cs),
(418.077,1287.744,o),
(405.421,1307.736,o),
(397,1333,cs),
(393,1345,o),
(391,1357.667,o),
(391,1371,cs)
);
}
);
};
layerId = "4B056265-F7A9-4FE5-8F86-068480F74FC7";
shapes = (
{
ref = Y;
},
{
pos = (59,0);
ref = dieresiscomb.case;
}
);
width = 708;
}
);
unicode = 376;
},
{
glyphname = Z;
kernLeft = Z2;
kernRight = Z;
lastChange = "2025-02-19 14:22:40 +0000";
layers = (
{
anchors = (
{
name = bottom;
pos = (333,0);
},
{
name = center;
pos = (333,595);
},
{
name = top;
pos = (333,1190);
}
);
background = {
anchors = (
{
name = bottom;
pos = (333,0);
},
{
name = center;
pos = (333,595);
},
{
name = top;
pos = (333,1190);
}
);
shapes = (
{
closed = 1;
nodes = (
(30,120,l),
(351,970,l),
(40,970,l),
(40,1190,l),
(625,1190,l),
(625,1070,l),
(304,220,l),
(635,220,l),
(635,0,l),
(30,0,l),
(30,0,l)
);
}
);
};
layerId = "4B056265-F7A9-4FE5-8F86-068480F74FC7";
shapes = (
{
closed = 1;
nodes = (
(30,120,l),
(351,970,l),
(40,970,l),
(40,1190,l),
(625,1190,l),
(625,1070,l),
(304,220,l),
(635,220,l),
(635,0,l),
(30,0,l),
(30,0,l)
);
}
);
width = 665;
}
);
unicode = 90;
},
{
color = 4;
glyphname = Zacute;
kernLeft = Z2;
kernRight = Z;
lastChange = "2025-02-19 14:30:17 +0000";
layers = (
{
background = {
shapes = (
{
closed = 1;
nodes = (
(30,120,l),
(351,970,l),
(40,970,l),
(40,1190,l),
(625,1190,l),
(625,1070,l),
(304,220,l),
(635,220,l),
(635,0,l),
(30,0,l),
(30,0,l)
);
},
{
closed = 1;
nodes = (
(197,1250,l),
(335,1561,l),
(552,1561,l),
(369,1250,l),
(369,1250,l)
);
}
);
};
layerId = "4B056265-F7A9-4FE5-8F86-068480F74FC7";
shapes = (
{
ref = Z;
},
{
pos = (222,0);
ref = acutecomb.case;
}
);
width = 665;
}
);
unicode = 377;
},
{
color = 4;
glyphname = Zcaron;
kernLeft = Z2;
kernRight = Z;
lastChange = "2025-02-19 14:30:17 +0000";
layers = (
{
background = {
shapes = (
{
closed = 1;
nodes = (
(30,120,l),
(351,970,l),
(40,970,l),
(40,1190,l),
(625,1190,l),
(625,1070,l),
(304,220,l),
(635,220,l),
(635,0,l),
(30,0,l),
(30,0,l)
);
},
{
closed = 1;
nodes = (
(90,1545,l),
(248,1545,l),
(333,1395,l),
(419,1545,l),
(576,1545,l),
(451,1250,l),
(216,1250,l),
(216,1250,l)
);
}
);
};
layerId = "4B056265-F7A9-4FE5-8F86-068480F74FC7";
shapes = (
{
ref = Z;
},
{
pos = (195,0);
ref = caroncomb.case;
}
);
width = 665;
}
);
unicode = 381;
},
{
color = 4;
glyphname = Zdotaccent;
kernLeft = Z2;
kernRight = Z;
lastChange = "2025-02-19 14:30:17 +0000";
layers = (
{
background = {
shapes = (
{
closed = 1;
nodes = (
(30,120,l),
(351,970,l),
(40,970,l),
(40,1190,l),
(625,1190,l),
(625,1070,l),
(304,220,l),
(635,220,l),
(635,0,l),
(30,0,l),
(30,0,l)
);
},
{
closed = 1;
nodes = (
(208,1409.096,o),
(215.602,1434.876,o),
(231.5,1458,cs),
(245.879,1478.915,o),
(269.691,1495.797,o),
(292.5,1503,cs),
(305.167,1507,o),
(318.333,1509,o),
(333,1509,cs),
(361.791,1509,o),
(384.2,1501.175,o),
(407,1485.5,cs),
(427.741,1471.241,o),
(444.045,1447.69,o),
(452,1422.5,cs),
(456,1409.833,o),
(458,1395.667,o),
(458,1381,cs),
(458,1344.168,o),
(445.211,1312.23,o),
(423,1288,cs),
(400.754,1263.732,o),
(369.235,1250,o),
(333,1250,cs),
(303.995,1250,o),
(278.625,1258.9,o),
(258.5,1275,cs),
(237.804,1291.557,o),
(223.103,1310.673,o),
(214,1339.5,cs),
(210,1352.167,o),
(208,1366.333,o),
(208,1381,cs)
);
}
);
};
layerId = "4B056265-F7A9-4FE5-8F86-068480F74FC7";
shapes = (
{
ref = Z;
},
{
pos = (203,0);
ref = dotaccentcomb.case;
}
);
width = 665;
}
);
unicode = 379;
},
{
glyphname = Q.ss01;
kernLeft = C2;
lastChange = "2025-02-19 14:38:30 +0000";
layers = (
{
background = {
shapes = (
{
closed = 1;
nodes = (
(1233,517.373,o),
(1208.896,435.546,o),
(1166,364.5,cs),
(1133.183,310.147,o),
(1071.997,244.45,o),
(976,198,cs),
(934.667,178,o),
(889.333,162,o),
(840,150,c),
(840,140,l),
(890.014,147.145,o),
(951.689,158.955,o),
(1003,170.5,cs),
(1069.893,185.551,o),
(1089.487,190.667,o),
(1158,210.5,cs),
(1170.667,214.167,o),
(1183.167,218.167,o),
(1195.5,222.5,cs),
(1207.833,226.833,o),
(1220.333,231,o),
(1233,235,c),
(1233,0,l),
(633,0,ls),
(493.435,0,o),
(372.606,43.044,o),
(274,115,cs),
(171.321,189.928,o),
(99.981,291.224,o),
(60,412.5,cs),
(40,473.167,o),
(30,539,o),
(30,607,cs),
(30,738.712,o),
(74.237,856.428,o),
(147.5,955,cs),
(220.951,1053.825,o),
(325.408,1129.194,o),
(443.5,1169,cs),
(502.833,1189,o),
(566.667,1200,o),
(632,1200,cs),
(765.422,1200,o),
(886.249,1155.741,o),
(984.5,1085,cs),
(1083.358,1013.822,o),
(1162.863,909.801,o),
(1202,795,cs),
(1222,736.333,o),
(1233,674,o),
(1233,610,cs)
);
},
{
closed = 1;
nodes = (
(265,503.642,o),
(297.948,427.983,o),
(335.5,374.5,cs),
(379.407,311.966,o),
(442.982,264.552,o),
(515.5,239.5,cs),
(552.167,226.833,o),
(591.667,220,o),
(633,220,cs),
(712.616,220,o),
(789.223,247.457,o),
(849.5,293,cs),
(904.446,334.515,o),
(953.91,397.832,o),
(980,479,cs),
(992,516.333,o),
(998,557.333,o),
(998,600,cs),
(998,678.972,o),
(970.952,757.535,o),
(927,817,cs),
(878.971,881.981,o),
(821.6,924.252,o),
(747,950.5,cs),
(711,963.167,o),
(673,970,o),
(633,970,cs),
(568.483,970,o),
(491.19,952.836,o),
(417,898,cs),
(356.306,853.139,o),
(308.212,790.481,o),
(284,716.5,cs),
(272,679.833,o),
(265,640,o),
(265,600,cs)
);
}
);
};
layerId = "4B056265-F7A9-4FE5-8F86-068480F74FC7";
shapes = (
{
closed = 1;
nodes = (
(1233,517.373,o),
(1208.896,435.546,o),
(1166,364.5,cs),
(1133.183,310.147,o),
(1071.997,244.45,o),
(976,198,cs),
(934.667,178,o),
(889.333,162,o),
(840,150,c),
(840,140,l),
(890.014,147.145,o),
(951.689,158.955,o),
(1003,170.5,cs),
(1069.893,185.551,o),
(1089.487,190.667,o),
(1158,210.5,cs),
(1170.667,214.167,o),
(1183.167,218.167,o),
(1195.5,222.5,cs),
(1207.833,226.833,o),
(1220.333,231,o),
(1233,235,c),
(1233,0,l),
(633,0,ls),
(493.435,0,o),
(372.606,43.044,o),
(274,115,cs),
(171.321,189.928,o),
(99.981,291.224,o),
(60,412.5,cs),
(40,473.167,o),
(30,539,o),
(30,607,cs),
(30,738.712,o),
(74.237,856.428,o),
(147.5,955,cs),
(220.951,1053.825,o),
(325.408,1129.194,o),
(443.5,1169,cs),
(502.833,1189,o),
(566.667,1200,o),
(632,1200,cs),
(765.422,1200,o),
(886.249,1155.741,o),
(984.5,1085,cs),
(1083.358,1013.822,o),
(1162.863,909.801,o),
(1202,795,cs),
(1222,736.333,o),
(1233,674,o),
(1233,610,cs)
);
},
{
closed = 1;
nodes = (
(265,503.642,o),
(297.948,427.983,o),
(335.5,374.5,cs),
(379.407,311.966,o),
(442.982,264.552,o),
(515.5,239.5,cs),
(552.167,226.833,o),
(591.667,220,o),
(633,220,cs),
(712.616,220,o),
(789.223,247.457,o),
(849.5,293,cs),
(904.446,334.515,o),
(953.91,397.832,o),
(980,479,cs),
(992,516.333,o),
(998,557.333,o),
(998,600,cs),
(998,678.972,o),
(970.952,757.535,o),
(927,817,cs),
(878.971,881.981,o),
(821.6,924.252,o),
(747,950.5,cs),
(711,963.167,o),
(673,970,o),
(633,970,cs),
(568.483,970,o),
(491.19,952.836,o),
(417,898,cs),
(356.306,853.139,o),
(308.212,790.481,o),
(284,716.5,cs),
(272,679.833,o),
(265,640,o),
(265,600,cs)
);
}
);
width = 1273;
}
);
},
